ISO-10303-21;
HEADER;
/* Generated by software containing ST-Developer
 * from STEP Tools, Inc. (www.steptools.com) 
 */

FILE_DESCRIPTION(
/* description */ (''),
/* implementation_level */ '2;1');

FILE_NAME(
/* name */ '22mm-norm.step',
/* time_stamp */ '2025-11-28T21:58:23-05:00',
/* author */ (''),
/* organization */ (''),
/* preprocessor_version */ 'ST-DEVELOPER v20.1',
/* originating_system */ 'Autodesk Translation Framework v14.21.0.0',
/* authorisation */ '');

FILE_SCHEMA (('AUTOMOTIVE_DESIGN { 1 0 10303 214 3 1 1 }'));
ENDSEC;

DATA;
#10=MECHANICAL_DESIGN_GEOMETRIC_PRESENTATION_REPRESENTATION('',(#17,#18),
#1963);
#11=ITEM_DEFINED_TRANSFORMATION($,$,#1226,#1305);
#12=(
REPRESENTATION_RELATIONSHIP($,$,#1974,#1973)
REPRESENTATION_RELATIONSHIP_WITH_TRANSFORMATION(#11)
SHAPE_REPRESENTATION_RELATIONSHIP()
);
#13=CONTEXT_DEPENDENT_SHAPE_REPRESENTATION(#12,#1972);
#14=NEXT_ASSEMBLY_USAGE_OCCURRENCE('Norm MX 22mm:1','Norm MX 22mm:1',
'Norm MX 22mm:1',#1976,#1977,'Norm MX 22mm:1');
#15=SHAPE_REPRESENTATION_RELATIONSHIP('SRR','None',#1974,#16);
#16=ADVANCED_BREP_SHAPE_REPRESENTATION('',(#19,#20),#1962);
#17=STYLED_ITEM('',(#1987),#19);
#18=STYLED_ITEM('',(#1988),#20);
#19=MANIFOLD_SOLID_BREP('Norm MX 22mm',#1211);
#20=MANIFOLD_SOLID_BREP('Socket',#1212);
#21=FACE_BOUND('',#138,.T.);
#22=FACE_BOUND('',#139,.T.);
#23=FACE_BOUND('',#140,.T.);
#24=FACE_BOUND('',#141,.T.);
#25=FACE_BOUND('',#162,.T.);
#26=FACE_BOUND('',#166,.T.);
#27=FACE_BOUND('',#169,.T.);
#28=FACE_BOUND('',#171,.T.);
#29=CYLINDRICAL_SURFACE('',#1237,0.875006350013);
#30=CYLINDRICAL_SURFACE('',#1253,2.1);
#31=CYLINDRICAL_SURFACE('',#1261,0.875006350013);
#32=CYLINDRICAL_SURFACE('',#1265,2.);
#33=CYLINDRICAL_SURFACE('',#1276,0.875006350013);
#34=CYLINDRICAL_SURFACE('',#1279,2.);
#35=FACE_OUTER_BOUND('',#101,.T.);
#36=FACE_OUTER_BOUND('',#102,.T.);
#37=FACE_OUTER_BOUND('',#103,.T.);
#38=FACE_OUTER_BOUND('',#104,.T.);
#39=FACE_OUTER_BOUND('',#105,.T.);
#40=FACE_OUTER_BOUND('',#106,.T.);
#41=FACE_OUTER_BOUND('',#107,.T.);
#42=FACE_OUTER_BOUND('',#108,.T.);
#43=FACE_OUTER_BOUND('',#109,.T.);
#44=FACE_OUTER_BOUND('',#110,.T.);
#45=FACE_OUTER_BOUND('',#111,.T.);
#46=FACE_OUTER_BOUND('',#112,.T.);
#47=FACE_OUTER_BOUND('',#113,.T.);
#48=FACE_OUTER_BOUND('',#114,.T.);
#49=FACE_OUTER_BOUND('',#115,.T.);
#50=FACE_OUTER_BOUND('',#116,.T.);
#51=FACE_OUTER_BOUND('',#117,.T.);
#52=FACE_OUTER_BOUND('',#118,.T.);
#53=FACE_OUTER_BOUND('',#119,.T.);
#54=FACE_OUTER_BOUND('',#120,.T.);
#55=FACE_OUTER_BOUND('',#121,.T.);
#56=FACE_OUTER_BOUND('',#122,.T.);
#57=FACE_OUTER_BOUND('',#123,.T.);
#58=FACE_OUTER_BOUND('',#124,.T.);
#59=FACE_OUTER_BOUND('',#125,.T.);
#60=FACE_OUTER_BOUND('',#126,.T.);
#61=FACE_OUTER_BOUND('',#127,.T.);
#62=FACE_OUTER_BOUND('',#128,.T.);
#63=FACE_OUTER_BOUND('',#129,.T.);
#64=FACE_OUTER_BOUND('',#130,.T.);
#65=FACE_OUTER_BOUND('',#131,.T.);
#66=FACE_OUTER_BOUND('',#132,.T.);
#67=FACE_OUTER_BOUND('',#133,.T.);
#68=FACE_OUTER_BOUND('',#134,.T.);
#69=FACE_OUTER_BOUND('',#135,.T.);
#70=FACE_OUTER_BOUND('',#136,.T.);
#71=FACE_OUTER_BOUND('',#137,.T.);
#72=FACE_OUTER_BOUND('',#142,.T.);
#73=FACE_OUTER_BOUND('',#143,.T.);
#74=FACE_OUTER_BOUND('',#144,.T.);
#75=FACE_OUTER_BOUND('',#145,.T.);
#76=FACE_OUTER_BOUND('',#146,.T.);
#77=FACE_OUTER_BOUND('',#147,.T.);
#78=FACE_OUTER_BOUND('',#148,.T.);
#79=FACE_OUTER_BOUND('',#149,.T.);
#80=FACE_OUTER_BOUND('',#150,.T.);
#81=FACE_OUTER_BOUND('',#151,.T.);
#82=FACE_OUTER_BOUND('',#152,.T.);
#83=FACE_OUTER_BOUND('',#153,.T.);
#84=FACE_OUTER_BOUND('',#154,.T.);
#85=FACE_OUTER_BOUND('',#155,.T.);
#86=FACE_OUTER_BOUND('',#156,.T.);
#87=FACE_OUTER_BOUND('',#157,.T.);
#88=FACE_OUTER_BOUND('',#158,.T.);
#89=FACE_OUTER_BOUND('',#159,.T.);
#90=FACE_OUTER_BOUND('',#160,.T.);
#91=FACE_OUTER_BOUND('',#161,.T.);
#92=FACE_OUTER_BOUND('',#163,.T.);
#93=FACE_OUTER_BOUND('',#164,.T.);
#94=FACE_OUTER_BOUND('',#165,.T.);
#95=FACE_OUTER_BOUND('',#167,.T.);
#96=FACE_OUTER_BOUND('',#168,.T.);
#97=FACE_OUTER_BOUND('',#170,.T.);
#98=FACE_OUTER_BOUND('',#172,.T.);
#99=FACE_OUTER_BOUND('',#173,.T.);
#100=FACE_OUTER_BOUND('',#174,.T.);
#101=EDGE_LOOP('',(#759,#760,#761,#762,#763,#764,#765,#766,#767,#768,#769,
#770,#771,#772,#773,#774,#775,#776));
#102=EDGE_LOOP('',(#777,#778,#779,#780));
#103=EDGE_LOOP('',(#781,#782,#783,#784));
#104=EDGE_LOOP('',(#785,#786,#787,#788));
#105=EDGE_LOOP('',(#789,#790,#791,#792));
#106=EDGE_LOOP('',(#793,#794,#795,#796));
#107=EDGE_LOOP('',(#797,#798,#799,#800));
#108=EDGE_LOOP('',(#801,#802,#803,#804));
#109=EDGE_LOOP('',(#805,#806,#807,#808));
#110=EDGE_LOOP('',(#809,#810,#811,#812));
#111=EDGE_LOOP('',(#813,#814,#815,#816));
#112=EDGE_LOOP('',(#817,#818,#819,#820));
#113=EDGE_LOOP('',(#821,#822,#823,#824));
#114=EDGE_LOOP('',(#825,#826,#827,#828));
#115=EDGE_LOOP('',(#829,#830,#831,#832));
#116=EDGE_LOOP('',(#833,#834,#835,#836,#837));
#117=EDGE_LOOP('',(#838,#839,#840,#841));
#118=EDGE_LOOP('',(#842,#843,#844,#845));
#119=EDGE_LOOP('',(#846,#847,#848,#849));
#120=EDGE_LOOP('',(#850,#851,#852,#853));
#121=EDGE_LOOP('',(#854,#855,#856,#857));
#122=EDGE_LOOP('',(#858,#859,#860,#861));
#123=EDGE_LOOP('',(#862,#863,#864,#865));
#124=EDGE_LOOP('',(#866,#867,#868,#869));
#125=EDGE_LOOP('',(#870,#871,#872,#873));
#126=EDGE_LOOP('',(#874,#875,#876,#877));
#127=EDGE_LOOP('',(#878,#879,#880,#881));
#128=EDGE_LOOP('',(#882,#883,#884,#885,#886));
#129=EDGE_LOOP('',(#887,#888,#889,#890));
#130=EDGE_LOOP('',(#891,#892,#893,#894,#895,#896));
#131=EDGE_LOOP('',(#897,#898,#899,#900));
#132=EDGE_LOOP('',(#901,#902,#903,#904,#905));
#133=EDGE_LOOP('',(#906,#907,#908,#909));
#134=EDGE_LOOP('',(#910,#911,#912,#913));
#135=EDGE_LOOP('',(#914,#915,#916,#917));
#136=EDGE_LOOP('',(#918,#919,#920,#921));
#137=EDGE_LOOP('',(#922,#923,#924,#925));
#138=EDGE_LOOP('',(#926,#927,#928,#929,#930,#931,#932,#933,#934,#935,#936,
#937,#938,#939,#940,#941,#942,#943,#944,#945,#946,#947));
#139=EDGE_LOOP('',(#948));
#140=EDGE_LOOP('',(#949,#950,#951,#952));
#141=EDGE_LOOP('',(#953,#954,#955,#956));
#142=EDGE_LOOP('',(#957,#958,#959,#960,#961,#962));
#143=EDGE_LOOP('',(#963,#964,#965,#966,#967));
#144=EDGE_LOOP('',(#968,#969,#970,#971));
#145=EDGE_LOOP('',(#972,#973));
#146=EDGE_LOOP('',(#974,#975,#976,#977));
#147=EDGE_LOOP('',(#978,#979));
#148=EDGE_LOOP('',(#980,#981,#982,#983));
#149=EDGE_LOOP('',(#984));
#150=EDGE_LOOP('',(#985,#986,#987,#988));
#151=EDGE_LOOP('',(#989,#990,#991,#992));
#152=EDGE_LOOP('',(#993,#994,#995,#996));
#153=EDGE_LOOP('',(#997,#998,#999,#1000));
#154=EDGE_LOOP('',(#1001,#1002,#1003,#1004));
#155=EDGE_LOOP('',(#1005,#1006,#1007,#1008));
#156=EDGE_LOOP('',(#1009,#1010,#1011,#1012));
#157=EDGE_LOOP('',(#1013,#1014,#1015,#1016));
#158=EDGE_LOOP('',(#1017,#1018,#1019,#1020));
#159=EDGE_LOOP('',(#1021,#1022,#1023,#1024));
#160=EDGE_LOOP('',(#1025,#1026,#1027,#1028));
#161=EDGE_LOOP('',(#1029,#1030,#1031,#1032));
#162=EDGE_LOOP('',(#1033,#1034,#1035,#1036));
#163=EDGE_LOOP('',(#1037,#1038,#1039,#1040));
#164=EDGE_LOOP('',(#1041,#1042,#1043,#1044));
#165=EDGE_LOOP('',(#1045,#1046,#1047,#1048));
#166=EDGE_LOOP('',(#1049,#1050,#1051,#1052));
#167=EDGE_LOOP('',(#1053,#1054,#1055,#1056));
#168=EDGE_LOOP('',(#1057,#1058,#1059,#1060));
#169=EDGE_LOOP('',(#1061,#1062,#1063,#1064));
#170=EDGE_LOOP('',(#1065,#1066,#1067,#1068));
#171=EDGE_LOOP('',(#1069,#1070,#1071,#1072));
#172=EDGE_LOOP('',(#1073,#1074,#1075,#1076));
#173=EDGE_LOOP('',(#1077,#1078,#1079,#1080));
#174=EDGE_LOOP('',(#1081,#1082,#1083,#1084));
#175=CIRCLE('',#1228,2.1);
#176=CIRCLE('',#1229,0.875006350013);
#177=CIRCLE('',#1230,2.);
#178=CIRCLE('',#1238,0.875006350013);
#179=CIRCLE('',#1239,0.875006350013);
#180=CIRCLE('',#1254,2.1);
#181=CIRCLE('',#1262,0.875006350013);
#182=CIRCLE('',#1263,0.875006350013);
#183=CIRCLE('',#1266,2.);
#184=CIRCLE('',#1267,2.);
#185=CIRCLE('',#1277,0.875006350013);
#186=CIRCLE('',#1280,2.);
#187=LINE('',#1624,#338);
#188=LINE('',#1626,#339);
#189=LINE('',#1628,#340);
#190=LINE('',#1630,#341);
#191=LINE('',#1632,#342);
#192=LINE('',#1634,#343);
#193=LINE('',#1636,#344);
#194=LINE('',#1638,#345);
#195=LINE('',#1642,#346);
#196=LINE('',#1644,#347);
#197=LINE('',#1646,#348);
#198=LINE('',#1648,#349);
#199=LINE('',#1650,#350);
#200=LINE('',#1652,#351);
#201=LINE('',#1656,#352);
#202=LINE('',#1661,#353);
#203=LINE('',#1663,#354);
#204=LINE('',#1665,#355);
#205=LINE('',#1666,#356);
#206=LINE('',#1670,#357);
#207=LINE('',#1672,#358);
#208=LINE('',#1674,#359);
#209=LINE('',#1675,#360);
#210=LINE('',#1678,#361);
#211=LINE('',#1680,#362);
#212=LINE('',#1681,#363);
#213=LINE('',#1685,#364);
#214=LINE('',#1687,#365);
#215=LINE('',#1689,#366);
#216=LINE('',#1690,#367);
#217=LINE('',#1693,#368);
#218=LINE('',#1695,#369);
#219=LINE('',#1696,#370);
#220=LINE('',#1700,#371);
#221=LINE('',#1702,#372);
#222=LINE('',#1704,#373);
#223=LINE('',#1705,#374);
#224=LINE('',#1710,#375);
#225=LINE('',#1714,#376);
#226=LINE('',#1716,#377);
#227=LINE('',#1717,#378);
#228=LINE('',#1719,#379);
#229=LINE('',#1720,#380);
#230=LINE('',#1723,#381);
#231=LINE('',#1725,#382);
#232=LINE('',#1726,#383);
#233=LINE('',#1728,#384);
#234=LINE('',#1729,#385);
#235=LINE('',#1733,#386);
#236=LINE('',#1735,#387);
#237=LINE('',#1737,#388);
#238=LINE('',#1738,#389);
#239=LINE('',#1741,#390);
#240=LINE('',#1743,#391);
#241=LINE('',#1744,#392);
#242=LINE('',#1746,#393);
#243=LINE('',#1747,#394);
#244=LINE('',#1749,#395);
#245=LINE('',#1751,#396);
#246=LINE('',#1752,#397);
#247=LINE('',#1755,#398);
#248=LINE('',#1756,#399);
#249=LINE('',#1759,#400);
#250=LINE('',#1760,#401);
#251=LINE('',#1763,#402);
#252=LINE('',#1764,#403);
#253=LINE('',#1767,#404);
#254=LINE('',#1768,#405);
#255=LINE('',#1771,#406);
#256=LINE('',#1772,#407);
#257=LINE('',#1776,#408);
#258=LINE('',#1779,#409);
#259=LINE('',#1780,#410);
#260=LINE('',#1783,#411);
#261=LINE('',#1784,#412);
#262=LINE('',#1787,#413);
#263=LINE('',#1788,#414);
#264=LINE('',#1791,#415);
#265=LINE('',#1792,#416);
#266=LINE('',#1795,#417);
#267=LINE('',#1796,#418);
#268=LINE('',#1799,#419);
#269=LINE('',#1801,#420);
#270=LINE('',#1802,#421);
#271=LINE('',#1808,#422);
#272=LINE('',#1810,#423);
#273=LINE('',#1812,#424);
#274=LINE('',#1814,#425);
#275=LINE('',#1815,#426);
#276=LINE('',#1821,#427);
#277=LINE('',#1823,#428);
#278=LINE('',#1825,#429);
#279=LINE('',#1826,#430);
#280=LINE('',#1829,#431);
#281=LINE('',#1831,#432);
#282=LINE('',#1832,#433);
#283=LINE('',#1835,#434);
#284=LINE('',#1836,#435);
#285=LINE('',#1839,#436);
#286=LINE('',#1840,#437);
#287=LINE('',#1842,#438);
#288=LINE('',#1844,#439);
#289=LINE('',#1846,#440);
#290=LINE('',#1860,#441);
#291=LINE('',#1862,#442);
#292=LINE('',#1864,#443);
#293=LINE('',#1865,#444);
#294=LINE('',#1869,#445);
#295=LINE('',#1871,#446);
#296=LINE('',#1873,#447);
#297=LINE('',#1874,#448);
#298=LINE('',#1877,#449);
#299=LINE('',#1879,#450);
#300=LINE('',#1880,#451);
#301=LINE('',#1884,#452);
#302=LINE('',#1886,#453);
#303=LINE('',#1888,#454);
#304=LINE('',#1889,#455);
#305=LINE('',#1893,#456);
#306=LINE('',#1894,#457);
#307=LINE('',#1895,#458);
#308=LINE('',#1898,#459);
#309=LINE('',#1900,#460);
#310=LINE('',#1901,#461);
#311=LINE('',#1903,#462);
#312=LINE('',#1904,#463);
#313=LINE('',#1907,#464);
#314=LINE('',#1909,#465);
#315=LINE('',#1910,#466);
#316=LINE('',#1914,#467);
#317=LINE('',#1916,#468);
#318=LINE('',#1918,#469);
#319=LINE('',#1919,#470);
#320=LINE('',#1921,#471);
#321=LINE('',#1925,#472);
#322=LINE('',#1927,#473);
#323=LINE('',#1929,#474);
#324=LINE('',#1930,#475);
#325=LINE('',#1931,#476);
#326=LINE('',#1934,#477);
#327=LINE('',#1936,#478);
#328=LINE('',#1937,#479);
#329=LINE('',#1939,#480);
#330=LINE('',#1940,#481);
#331=LINE('',#1943,#482);
#332=LINE('',#1945,#483);
#333=LINE('',#1946,#484);
#334=LINE('',#1947,#485);
#335=LINE('',#1948,#486);
#336=LINE('',#1950,#487);
#337=LINE('',#1951,#488);
#338=VECTOR('',#1312,10.);
#339=VECTOR('',#1313,10.);
#340=VECTOR('',#1314,10.);
#341=VECTOR('',#1315,10.);
#342=VECTOR('',#1316,10.);
#343=VECTOR('',#1317,10.);
#344=VECTOR('',#1318,10.);
#345=VECTOR('',#1319,10.);
#346=VECTOR('',#1322,10.);
#347=VECTOR('',#1323,10.);
#348=VECTOR('',#1324,10.);
#349=VECTOR('',#1325,10.);
#350=VECTOR('',#1326,10.);
#351=VECTOR('',#1327,10.);
#352=VECTOR('',#1330,10.);
#353=VECTOR('',#1335,10.);
#354=VECTOR('',#1336,10.);
#355=VECTOR('',#1337,10.);
#356=VECTOR('',#1338,10.);
#357=VECTOR('',#1341,10.);
#358=VECTOR('',#1342,10.);
#359=VECTOR('',#1343,10.);
#360=VECTOR('',#1344,10.);
#361=VECTOR('',#1347,10.);
#362=VECTOR('',#1348,10.);
#363=VECTOR('',#1349,10.);
#364=VECTOR('',#1352,10.);
#365=VECTOR('',#1353,10.);
#366=VECTOR('',#1354,10.);
#367=VECTOR('',#1355,10.);
#368=VECTOR('',#1358,10.);
#369=VECTOR('',#1359,10.);
#370=VECTOR('',#1360,10.);
#371=VECTOR('',#1363,10.);
#372=VECTOR('',#1364,10.);
#373=VECTOR('',#1365,10.);
#374=VECTOR('',#1366,10.);
#375=VECTOR('',#1371,0.875006350013);
#376=VECTOR('',#1376,10.);
#377=VECTOR('',#1377,10.);
#378=VECTOR('',#1378,10.);
#379=VECTOR('',#1381,10.);
#380=VECTOR('',#1382,10.);
#381=VECTOR('',#1385,10.);
#382=VECTOR('',#1386,10.);
#383=VECTOR('',#1387,10.);
#384=VECTOR('',#1390,10.);
#385=VECTOR('',#1391,10.);
#386=VECTOR('',#1394,10.);
#387=VECTOR('',#1395,10.);
#388=VECTOR('',#1396,10.);
#389=VECTOR('',#1397,10.);
#390=VECTOR('',#1400,10.);
#391=VECTOR('',#1401,10.);
#392=VECTOR('',#1402,10.);
#393=VECTOR('',#1405,10.);
#394=VECTOR('',#1406,10.);
#395=VECTOR('',#1409,10.);
#396=VECTOR('',#1410,10.);
#397=VECTOR('',#1411,10.);
#398=VECTOR('',#1414,10.);
#399=VECTOR('',#1415,10.);
#400=VECTOR('',#1418,10.);
#401=VECTOR('',#1419,10.);
#402=VECTOR('',#1422,10.);
#403=VECTOR('',#1423,10.);
#404=VECTOR('',#1426,10.);
#405=VECTOR('',#1427,10.);
#406=VECTOR('',#1430,10.);
#407=VECTOR('',#1431,10.);
#408=VECTOR('',#1436,10.);
#409=VECTOR('',#1439,10.);
#410=VECTOR('',#1440,10.);
#411=VECTOR('',#1443,10.);
#412=VECTOR('',#1444,10.);
#413=VECTOR('',#1447,10.);
#414=VECTOR('',#1448,10.);
#415=VECTOR('',#1451,10.);
#416=VECTOR('',#1452,10.);
#417=VECTOR('',#1455,10.);
#418=VECTOR('',#1456,10.);
#419=VECTOR('',#1459,10.);
#420=VECTOR('',#1460,10.);
#421=VECTOR('',#1461,10.);
#422=VECTOR('',#1468,10.);
#423=VECTOR('',#1471,10.);
#424=VECTOR('',#1472,10.);
#425=VECTOR('',#1473,10.);
#426=VECTOR('',#1474,10.);
#427=VECTOR('',#1481,10.);
#428=VECTOR('',#1484,10.);
#429=VECTOR('',#1485,10.);
#430=VECTOR('',#1486,10.);
#431=VECTOR('',#1489,10.);
#432=VECTOR('',#1490,10.);
#433=VECTOR('',#1491,10.);
#434=VECTOR('',#1494,10.);
#435=VECTOR('',#1495,10.);
#436=VECTOR('',#1498,10.);
#437=VECTOR('',#1499,10.);
#438=VECTOR('',#1502,10.);
#439=VECTOR('',#1505,10.);
#440=VECTOR('',#1508,10.);
#441=VECTOR('',#1531,10.);
#442=VECTOR('',#1532,10.);
#443=VECTOR('',#1533,10.);
#444=VECTOR('',#1534,10.);
#445=VECTOR('',#1537,10.);
#446=VECTOR('',#1538,10.);
#447=VECTOR('',#1539,10.);
#448=VECTOR('',#1540,10.);
#449=VECTOR('',#1543,1000.);
#450=VECTOR('',#1544,10.);
#451=VECTOR('',#1545,10.);
#452=VECTOR('',#1548,1000.);
#453=VECTOR('',#1549,1000.);
#454=VECTOR('',#1550,1000.);
#455=VECTOR('',#1551,1000.);
#456=VECTOR('',#1554,1000.);
#457=VECTOR('',#1555,1000.);
#458=VECTOR('',#1556,1000.);
#459=VECTOR('',#1559,1000.);
#460=VECTOR('',#1560,1000.);
#461=VECTOR('',#1561,1000.);
#462=VECTOR('',#1564,1000.);
#463=VECTOR('',#1565,1000.);
#464=VECTOR('',#1568,1000.);
#465=VECTOR('',#1569,1000.);
#466=VECTOR('',#1570,10.);
#467=VECTOR('',#1573,1000.);
#468=VECTOR('',#1574,10.);
#469=VECTOR('',#1575,1000.);
#470=VECTOR('',#1576,10.);
#471=VECTOR('',#1579,1000.);
#472=VECTOR('',#1582,1000.);
#473=VECTOR('',#1583,1000.);
#474=VECTOR('',#1584,1000.);
#475=VECTOR('',#1585,1000.);
#476=VECTOR('',#1586,10.);
#477=VECTOR('',#1589,1000.);
#478=VECTOR('',#1590,1000.);
#479=VECTOR('',#1591,1000.);
#480=VECTOR('',#1594,1000.);
#481=VECTOR('',#1595,1000.);
#482=VECTOR('',#1598,1000.);
#483=VECTOR('',#1599,1000.);
#484=VECTOR('',#1600,1000.);
#485=VECTOR('',#1601,10.);
#486=VECTOR('',#1602,10.);
#487=VECTOR('',#1605,1000.);
#488=VECTOR('',#1606,1000.);
#489=VERTEX_POINT('',#1622);
#490=VERTEX_POINT('',#1623);
#491=VERTEX_POINT('',#1625);
#492=VERTEX_POINT('',#1627);
#493=VERTEX_POINT('',#1629);
#494=VERTEX_POINT('',#1631);
#495=VERTEX_POINT('',#1633);
#496=VERTEX_POINT('',#1635);
#497=VERTEX_POINT('',#1637);
#498=VERTEX_POINT('',#1639);
#499=VERTEX_POINT('',#1641);
#500=VERTEX_POINT('',#1643);
#501=VERTEX_POINT('',#1645);
#502=VERTEX_POINT('',#1647);
#503=VERTEX_POINT('',#1649);
#504=VERTEX_POINT('',#1651);
#505=VERTEX_POINT('',#1653);
#506=VERTEX_POINT('',#1655);
#507=VERTEX_POINT('',#1659);
#508=VERTEX_POINT('',#1660);
#509=VERTEX_POINT('',#1662);
#510=VERTEX_POINT('',#1664);
#511=VERTEX_POINT('',#1668);
#512=VERTEX_POINT('',#1669);
#513=VERTEX_POINT('',#1671);
#514=VERTEX_POINT('',#1673);
#515=VERTEX_POINT('',#1677);
#516=VERTEX_POINT('',#1679);
#517=VERTEX_POINT('',#1683);
#518=VERTEX_POINT('',#1684);
#519=VERTEX_POINT('',#1686);
#520=VERTEX_POINT('',#1688);
#521=VERTEX_POINT('',#1692);
#522=VERTEX_POINT('',#1694);
#523=VERTEX_POINT('',#1698);
#524=VERTEX_POINT('',#1699);
#525=VERTEX_POINT('',#1701);
#526=VERTEX_POINT('',#1703);
#527=VERTEX_POINT('',#1707);
#528=VERTEX_POINT('',#1709);
#529=VERTEX_POINT('',#1713);
#530=VERTEX_POINT('',#1715);
#531=VERTEX_POINT('',#1722);
#532=VERTEX_POINT('',#1724);
#533=VERTEX_POINT('',#1731);
#534=VERTEX_POINT('',#1732);
#535=VERTEX_POINT('',#1734);
#536=VERTEX_POINT('',#1736);
#537=VERTEX_POINT('',#1740);
#538=VERTEX_POINT('',#1742);
#539=VERTEX_POINT('',#1750);
#540=VERTEX_POINT('',#1754);
#541=VERTEX_POINT('',#1758);
#542=VERTEX_POINT('',#1762);
#543=VERTEX_POINT('',#1766);
#544=VERTEX_POINT('',#1770);
#545=VERTEX_POINT('',#1774);
#546=VERTEX_POINT('',#1778);
#547=VERTEX_POINT('',#1782);
#548=VERTEX_POINT('',#1786);
#549=VERTEX_POINT('',#1790);
#550=VERTEX_POINT('',#1794);
#551=VERTEX_POINT('',#1798);
#552=VERTEX_POINT('',#1800);
#553=VERTEX_POINT('',#1804);
#554=VERTEX_POINT('',#1806);
#555=VERTEX_POINT('',#1811);
#556=VERTEX_POINT('',#1813);
#557=VERTEX_POINT('',#1817);
#558=VERTEX_POINT('',#1819);
#559=VERTEX_POINT('',#1824);
#560=VERTEX_POINT('',#1828);
#561=VERTEX_POINT('',#1830);
#562=VERTEX_POINT('',#1834);
#563=VERTEX_POINT('',#1838);
#564=VERTEX_POINT('',#1858);
#565=VERTEX_POINT('',#1859);
#566=VERTEX_POINT('',#1861);
#567=VERTEX_POINT('',#1863);
#568=VERTEX_POINT('',#1867);
#569=VERTEX_POINT('',#1868);
#570=VERTEX_POINT('',#1870);
#571=VERTEX_POINT('',#1872);
#572=VERTEX_POINT('',#1876);
#573=VERTEX_POINT('',#1878);
#574=VERTEX_POINT('',#1882);
#575=VERTEX_POINT('',#1883);
#576=VERTEX_POINT('',#1885);
#577=VERTEX_POINT('',#1887);
#578=VERTEX_POINT('',#1891);
#579=VERTEX_POINT('',#1892);
#580=VERTEX_POINT('',#1897);
#581=VERTEX_POINT('',#1899);
#582=VERTEX_POINT('',#1906);
#583=VERTEX_POINT('',#1908);
#584=VERTEX_POINT('',#1912);
#585=VERTEX_POINT('',#1913);
#586=VERTEX_POINT('',#1915);
#587=VERTEX_POINT('',#1917);
#588=VERTEX_POINT('',#1923);
#589=VERTEX_POINT('',#1924);
#590=VERTEX_POINT('',#1926);
#591=VERTEX_POINT('',#1928);
#592=VERTEX_POINT('',#1933);
#593=VERTEX_POINT('',#1935);
#594=VERTEX_POINT('',#1942);
#595=VERTEX_POINT('',#1944);
#596=EDGE_CURVE('',#489,#490,#187,.T.);
#597=EDGE_CURVE('',#491,#490,#188,.T.);
#598=EDGE_CURVE('',#491,#492,#189,.T.);
#599=EDGE_CURVE('',#492,#493,#190,.T.);
#600=EDGE_CURVE('',#493,#494,#191,.T.);
#601=EDGE_CURVE('',#494,#495,#192,.T.);
#602=EDGE_CURVE('',#495,#496,#193,.T.);
#603=EDGE_CURVE('',#496,#497,#194,.T.);
#604=EDGE_CURVE('',#497,#498,#175,.T.);
#605=EDGE_CURVE('',#498,#499,#195,.T.);
#606=EDGE_CURVE('',#499,#500,#196,.T.);
#607=EDGE_CURVE('',#500,#501,#197,.T.);
#608=EDGE_CURVE('',#501,#502,#198,.T.);
#609=EDGE_CURVE('',#502,#503,#199,.T.);
#610=EDGE_CURVE('',#503,#504,#200,.T.);
#611=EDGE_CURVE('',#504,#505,#176,.T.);
#612=EDGE_CURVE('',#505,#506,#201,.T.);
#613=EDGE_CURVE('',#506,#489,#177,.T.);
#614=EDGE_CURVE('',#507,#508,#202,.T.);
#615=EDGE_CURVE('',#508,#509,#203,.T.);
#616=EDGE_CURVE('',#509,#510,#204,.T.);
#617=EDGE_CURVE('',#510,#507,#205,.T.);
#618=EDGE_CURVE('',#511,#512,#206,.T.);
#619=EDGE_CURVE('',#511,#513,#207,.T.);
#620=EDGE_CURVE('',#514,#513,#208,.T.);
#621=EDGE_CURVE('',#512,#514,#209,.T.);
#622=EDGE_CURVE('',#515,#511,#210,.T.);
#623=EDGE_CURVE('',#515,#516,#211,.T.);
#624=EDGE_CURVE('',#513,#516,#212,.T.);
#625=EDGE_CURVE('',#517,#518,#213,.T.);
#626=EDGE_CURVE('',#517,#519,#214,.T.);
#627=EDGE_CURVE('',#520,#519,#215,.T.);
#628=EDGE_CURVE('',#518,#520,#216,.T.);
#629=EDGE_CURVE('',#521,#517,#217,.T.);
#630=EDGE_CURVE('',#521,#522,#218,.T.);
#631=EDGE_CURVE('',#519,#522,#219,.T.);
#632=EDGE_CURVE('',#523,#524,#220,.T.);
#633=EDGE_CURVE('',#523,#525,#221,.T.);
#634=EDGE_CURVE('',#526,#525,#222,.T.);
#635=EDGE_CURVE('',#524,#526,#223,.T.);
#636=EDGE_CURVE('',#527,#527,#178,.T.);
#637=EDGE_CURVE('',#527,#528,#224,.T.);
#638=EDGE_CURVE('',#528,#528,#179,.T.);
#639=EDGE_CURVE('',#512,#529,#225,.T.);
#640=EDGE_CURVE('',#530,#514,#226,.T.);
#641=EDGE_CURVE('',#529,#530,#227,.T.);
#642=EDGE_CURVE('',#529,#515,#228,.T.);
#643=EDGE_CURVE('',#516,#530,#229,.T.);
#644=EDGE_CURVE('',#518,#531,#230,.T.);
#645=EDGE_CURVE('',#532,#520,#231,.T.);
#646=EDGE_CURVE('',#531,#532,#232,.T.);
#647=EDGE_CURVE('',#531,#521,#233,.T.);
#648=EDGE_CURVE('',#522,#532,#234,.T.);
#649=EDGE_CURVE('',#533,#534,#235,.T.);
#650=EDGE_CURVE('',#533,#535,#236,.T.);
#651=EDGE_CURVE('',#536,#535,#237,.T.);
#652=EDGE_CURVE('',#534,#536,#238,.T.);
#653=EDGE_CURVE('',#534,#537,#239,.T.);
#654=EDGE_CURVE('',#538,#536,#240,.T.);
#655=EDGE_CURVE('',#537,#538,#241,.T.);
#656=EDGE_CURVE('',#537,#523,#242,.T.);
#657=EDGE_CURVE('',#525,#538,#243,.T.);
#658=EDGE_CURVE('',#524,#491,#244,.T.);
#659=EDGE_CURVE('',#539,#526,#245,.T.);
#660=EDGE_CURVE('',#492,#539,#246,.T.);
#661=EDGE_CURVE('',#540,#539,#247,.T.);
#662=EDGE_CURVE('',#493,#540,#248,.T.);
#663=EDGE_CURVE('',#541,#540,#249,.T.);
#664=EDGE_CURVE('',#494,#541,#250,.T.);
#665=EDGE_CURVE('',#542,#541,#251,.T.);
#666=EDGE_CURVE('',#495,#542,#252,.T.);
#667=EDGE_CURVE('',#543,#542,#253,.T.);
#668=EDGE_CURVE('',#496,#543,#254,.T.);
#669=EDGE_CURVE('',#544,#543,#255,.T.);
#670=EDGE_CURVE('',#497,#544,#256,.T.);
#671=EDGE_CURVE('',#545,#544,#180,.T.);
#672=EDGE_CURVE('',#498,#545,#257,.T.);
#673=EDGE_CURVE('',#546,#545,#258,.T.);
#674=EDGE_CURVE('',#499,#546,#259,.T.);
#675=EDGE_CURVE('',#547,#546,#260,.T.);
#676=EDGE_CURVE('',#500,#547,#261,.T.);
#677=EDGE_CURVE('',#548,#547,#262,.T.);
#678=EDGE_CURVE('',#501,#548,#263,.T.);
#679=EDGE_CURVE('',#549,#548,#264,.T.);
#680=EDGE_CURVE('',#502,#549,#265,.T.);
#681=EDGE_CURVE('',#550,#549,#266,.T.);
#682=EDGE_CURVE('',#503,#550,#267,.T.);
#683=EDGE_CURVE('',#551,#550,#268,.T.);
#684=EDGE_CURVE('',#552,#551,#269,.T.);
#685=EDGE_CURVE('',#504,#552,#270,.T.);
#686=EDGE_CURVE('',#552,#553,#181,.T.);
#687=EDGE_CURVE('',#554,#551,#182,.T.);
#688=EDGE_CURVE('',#553,#554,#271,.T.);
#689=EDGE_CURVE('',#553,#505,#272,.T.);
#690=EDGE_CURVE('',#555,#554,#273,.T.);
#691=EDGE_CURVE('',#556,#555,#274,.T.);
#692=EDGE_CURVE('',#506,#556,#275,.T.);
#693=EDGE_CURVE('',#556,#557,#183,.T.);
#694=EDGE_CURVE('',#558,#555,#184,.T.);
#695=EDGE_CURVE('',#557,#558,#276,.T.);
#696=EDGE_CURVE('',#557,#489,#277,.T.);
#697=EDGE_CURVE('',#559,#558,#278,.T.);
#698=EDGE_CURVE('',#490,#559,#279,.T.);
#699=EDGE_CURVE('',#560,#508,#280,.T.);
#700=EDGE_CURVE('',#561,#560,#281,.T.);
#701=EDGE_CURVE('',#561,#509,#282,.T.);
#702=EDGE_CURVE('',#562,#561,#283,.T.);
#703=EDGE_CURVE('',#562,#510,#284,.T.);
#704=EDGE_CURVE('',#563,#562,#285,.T.);
#705=EDGE_CURVE('',#507,#563,#286,.T.);
#706=EDGE_CURVE('',#560,#563,#287,.T.);
#707=EDGE_CURVE('',#535,#559,#288,.T.);
#708=EDGE_CURVE('',#524,#533,#289,.T.);
#709=EDGE_CURVE('',#553,#552,#185,.T.);
#710=EDGE_CURVE('',#557,#556,#186,.T.);
#711=EDGE_CURVE('',#564,#565,#290,.F.);
#712=EDGE_CURVE('',#564,#566,#291,.T.);
#713=EDGE_CURVE('',#567,#566,#292,.T.);
#714=EDGE_CURVE('',#565,#567,#293,.T.);
#715=EDGE_CURVE('',#568,#569,#294,.T.);
#716=EDGE_CURVE('',#570,#568,#295,.F.);
#717=EDGE_CURVE('',#571,#570,#296,.F.);
#718=EDGE_CURVE('',#571,#569,#297,.T.);
#719=EDGE_CURVE('',#572,#570,#298,.T.);
#720=EDGE_CURVE('',#573,#572,#299,.T.);
#721=EDGE_CURVE('',#571,#573,#300,.T.);
#722=EDGE_CURVE('',#574,#575,#301,.T.);
#723=EDGE_CURVE('',#576,#574,#302,.T.);
#724=EDGE_CURVE('',#576,#577,#303,.T.);
#725=EDGE_CURVE('',#575,#577,#304,.T.);
#726=EDGE_CURVE('',#578,#579,#305,.T.);
#727=EDGE_CURVE('',#578,#574,#306,.T.);
#728=EDGE_CURVE('',#579,#575,#307,.T.);
#729=EDGE_CURVE('',#580,#577,#308,.T.);
#730=EDGE_CURVE('',#581,#576,#309,.T.);
#731=EDGE_CURVE('',#581,#580,#310,.T.);
#732=EDGE_CURVE('',#580,#579,#311,.T.);
#733=EDGE_CURVE('',#581,#578,#312,.T.);
#734=EDGE_CURVE('',#573,#582,#313,.T.);
#735=EDGE_CURVE('',#572,#583,#314,.T.);
#736=EDGE_CURVE('',#583,#582,#315,.F.);
#737=EDGE_CURVE('',#584,#585,#316,.T.);
#738=EDGE_CURVE('',#584,#586,#317,.F.);
#739=EDGE_CURVE('',#586,#587,#318,.T.);
#740=EDGE_CURVE('',#587,#585,#319,.T.);
#741=EDGE_CURVE('',#583,#568,#320,.T.);
#742=EDGE_CURVE('',#588,#589,#321,.T.);
#743=EDGE_CURVE('',#590,#589,#322,.T.);
#744=EDGE_CURVE('',#591,#590,#323,.T.);
#745=EDGE_CURVE('',#591,#588,#324,.T.);
#746=EDGE_CURVE('',#582,#569,#325,.F.);
#747=EDGE_CURVE('',#589,#592,#326,.T.);
#748=EDGE_CURVE('',#593,#592,#327,.T.);
#749=EDGE_CURVE('',#593,#590,#328,.T.);
#750=EDGE_CURVE('',#584,#567,#329,.T.);
#751=EDGE_CURVE('',#585,#565,#330,.T.);
#752=EDGE_CURVE('',#594,#592,#331,.T.);
#753=EDGE_CURVE('',#595,#594,#332,.T.);
#754=EDGE_CURVE('',#595,#593,#333,.T.);
#755=EDGE_CURVE('',#564,#587,#334,.F.);
#756=EDGE_CURVE('',#586,#566,#335,.T.);
#757=EDGE_CURVE('',#588,#594,#336,.T.);
#758=EDGE_CURVE('',#595,#591,#337,.T.);
#759=ORIENTED_EDGE('',*,*,#596,.T.);
#760=ORIENTED_EDGE('',*,*,#597,.F.);
#761=ORIENTED_EDGE('',*,*,#598,.T.);
#762=ORIENTED_EDGE('',*,*,#599,.T.);
#763=ORIENTED_EDGE('',*,*,#600,.T.);
#764=ORIENTED_EDGE('',*,*,#601,.T.);
#765=ORIENTED_EDGE('',*,*,#602,.T.);
#766=ORIENTED_EDGE('',*,*,#603,.T.);
#767=ORIENTED_EDGE('',*,*,#604,.T.);
#768=ORIENTED_EDGE('',*,*,#605,.T.);
#769=ORIENTED_EDGE('',*,*,#606,.T.);
#770=ORIENTED_EDGE('',*,*,#607,.T.);
#771=ORIENTED_EDGE('',*,*,#608,.T.);
#772=ORIENTED_EDGE('',*,*,#609,.T.);
#773=ORIENTED_EDGE('',*,*,#610,.T.);
#774=ORIENTED_EDGE('',*,*,#611,.T.);
#775=ORIENTED_EDGE('',*,*,#612,.T.);
#776=ORIENTED_EDGE('',*,*,#613,.T.);
#777=ORIENTED_EDGE('',*,*,#614,.T.);
#778=ORIENTED_EDGE('',*,*,#615,.T.);
#779=ORIENTED_EDGE('',*,*,#616,.T.);
#780=ORIENTED_EDGE('',*,*,#617,.T.);
#781=ORIENTED_EDGE('',*,*,#618,.F.);
#782=ORIENTED_EDGE('',*,*,#619,.T.);
#783=ORIENTED_EDGE('',*,*,#620,.F.);
#784=ORIENTED_EDGE('',*,*,#621,.F.);
#785=ORIENTED_EDGE('',*,*,#622,.F.);
#786=ORIENTED_EDGE('',*,*,#623,.T.);
#787=ORIENTED_EDGE('',*,*,#624,.F.);
#788=ORIENTED_EDGE('',*,*,#619,.F.);
#789=ORIENTED_EDGE('',*,*,#625,.F.);
#790=ORIENTED_EDGE('',*,*,#626,.T.);
#791=ORIENTED_EDGE('',*,*,#627,.F.);
#792=ORIENTED_EDGE('',*,*,#628,.F.);
#793=ORIENTED_EDGE('',*,*,#629,.F.);
#794=ORIENTED_EDGE('',*,*,#630,.T.);
#795=ORIENTED_EDGE('',*,*,#631,.F.);
#796=ORIENTED_EDGE('',*,*,#626,.F.);
#797=ORIENTED_EDGE('',*,*,#632,.F.);
#798=ORIENTED_EDGE('',*,*,#633,.T.);
#799=ORIENTED_EDGE('',*,*,#634,.F.);
#800=ORIENTED_EDGE('',*,*,#635,.F.);
#801=ORIENTED_EDGE('',*,*,#636,.F.);
#802=ORIENTED_EDGE('',*,*,#637,.T.);
#803=ORIENTED_EDGE('',*,*,#638,.F.);
#804=ORIENTED_EDGE('',*,*,#637,.F.);
#805=ORIENTED_EDGE('',*,*,#639,.F.);
#806=ORIENTED_EDGE('',*,*,#621,.T.);
#807=ORIENTED_EDGE('',*,*,#640,.F.);
#808=ORIENTED_EDGE('',*,*,#641,.F.);
#809=ORIENTED_EDGE('',*,*,#642,.F.);
#810=ORIENTED_EDGE('',*,*,#641,.T.);
#811=ORIENTED_EDGE('',*,*,#643,.F.);
#812=ORIENTED_EDGE('',*,*,#623,.F.);
#813=ORIENTED_EDGE('',*,*,#644,.F.);
#814=ORIENTED_EDGE('',*,*,#628,.T.);
#815=ORIENTED_EDGE('',*,*,#645,.F.);
#816=ORIENTED_EDGE('',*,*,#646,.F.);
#817=ORIENTED_EDGE('',*,*,#647,.F.);
#818=ORIENTED_EDGE('',*,*,#646,.T.);
#819=ORIENTED_EDGE('',*,*,#648,.F.);
#820=ORIENTED_EDGE('',*,*,#630,.F.);
#821=ORIENTED_EDGE('',*,*,#649,.F.);
#822=ORIENTED_EDGE('',*,*,#650,.T.);
#823=ORIENTED_EDGE('',*,*,#651,.F.);
#824=ORIENTED_EDGE('',*,*,#652,.F.);
#825=ORIENTED_EDGE('',*,*,#653,.F.);
#826=ORIENTED_EDGE('',*,*,#652,.T.);
#827=ORIENTED_EDGE('',*,*,#654,.F.);
#828=ORIENTED_EDGE('',*,*,#655,.F.);
#829=ORIENTED_EDGE('',*,*,#656,.F.);
#830=ORIENTED_EDGE('',*,*,#655,.T.);
#831=ORIENTED_EDGE('',*,*,#657,.F.);
#832=ORIENTED_EDGE('',*,*,#633,.F.);
#833=ORIENTED_EDGE('',*,*,#598,.F.);
#834=ORIENTED_EDGE('',*,*,#658,.F.);
#835=ORIENTED_EDGE('',*,*,#635,.T.);
#836=ORIENTED_EDGE('',*,*,#659,.F.);
#837=ORIENTED_EDGE('',*,*,#660,.F.);
#838=ORIENTED_EDGE('',*,*,#599,.F.);
#839=ORIENTED_EDGE('',*,*,#660,.T.);
#840=ORIENTED_EDGE('',*,*,#661,.F.);
#841=ORIENTED_EDGE('',*,*,#662,.F.);
#842=ORIENTED_EDGE('',*,*,#600,.F.);
#843=ORIENTED_EDGE('',*,*,#662,.T.);
#844=ORIENTED_EDGE('',*,*,#663,.F.);
#845=ORIENTED_EDGE('',*,*,#664,.F.);
#846=ORIENTED_EDGE('',*,*,#601,.F.);
#847=ORIENTED_EDGE('',*,*,#664,.T.);
#848=ORIENTED_EDGE('',*,*,#665,.F.);
#849=ORIENTED_EDGE('',*,*,#666,.F.);
#850=ORIENTED_EDGE('',*,*,#602,.F.);
#851=ORIENTED_EDGE('',*,*,#666,.T.);
#852=ORIENTED_EDGE('',*,*,#667,.F.);
#853=ORIENTED_EDGE('',*,*,#668,.F.);
#854=ORIENTED_EDGE('',*,*,#603,.F.);
#855=ORIENTED_EDGE('',*,*,#668,.T.);
#856=ORIENTED_EDGE('',*,*,#669,.F.);
#857=ORIENTED_EDGE('',*,*,#670,.F.);
#858=ORIENTED_EDGE('',*,*,#604,.F.);
#859=ORIENTED_EDGE('',*,*,#670,.T.);
#860=ORIENTED_EDGE('',*,*,#671,.F.);
#861=ORIENTED_EDGE('',*,*,#672,.F.);
#862=ORIENTED_EDGE('',*,*,#605,.F.);
#863=ORIENTED_EDGE('',*,*,#672,.T.);
#864=ORIENTED_EDGE('',*,*,#673,.F.);
#865=ORIENTED_EDGE('',*,*,#674,.F.);
#866=ORIENTED_EDGE('',*,*,#606,.F.);
#867=ORIENTED_EDGE('',*,*,#674,.T.);
#868=ORIENTED_EDGE('',*,*,#675,.F.);
#869=ORIENTED_EDGE('',*,*,#676,.F.);
#870=ORIENTED_EDGE('',*,*,#607,.F.);
#871=ORIENTED_EDGE('',*,*,#676,.T.);
#872=ORIENTED_EDGE('',*,*,#677,.F.);
#873=ORIENTED_EDGE('',*,*,#678,.F.);
#874=ORIENTED_EDGE('',*,*,#608,.F.);
#875=ORIENTED_EDGE('',*,*,#678,.T.);
#876=ORIENTED_EDGE('',*,*,#679,.F.);
#877=ORIENTED_EDGE('',*,*,#680,.F.);
#878=ORIENTED_EDGE('',*,*,#609,.F.);
#879=ORIENTED_EDGE('',*,*,#680,.T.);
#880=ORIENTED_EDGE('',*,*,#681,.F.);
#881=ORIENTED_EDGE('',*,*,#682,.F.);
#882=ORIENTED_EDGE('',*,*,#610,.F.);
#883=ORIENTED_EDGE('',*,*,#682,.T.);
#884=ORIENTED_EDGE('',*,*,#683,.F.);
#885=ORIENTED_EDGE('',*,*,#684,.F.);
#886=ORIENTED_EDGE('',*,*,#685,.F.);
#887=ORIENTED_EDGE('',*,*,#686,.F.);
#888=ORIENTED_EDGE('',*,*,#684,.T.);
#889=ORIENTED_EDGE('',*,*,#687,.F.);
#890=ORIENTED_EDGE('',*,*,#688,.F.);
#891=ORIENTED_EDGE('',*,*,#612,.F.);
#892=ORIENTED_EDGE('',*,*,#689,.F.);
#893=ORIENTED_EDGE('',*,*,#688,.T.);
#894=ORIENTED_EDGE('',*,*,#690,.F.);
#895=ORIENTED_EDGE('',*,*,#691,.F.);
#896=ORIENTED_EDGE('',*,*,#692,.F.);
#897=ORIENTED_EDGE('',*,*,#693,.F.);
#898=ORIENTED_EDGE('',*,*,#691,.T.);
#899=ORIENTED_EDGE('',*,*,#694,.F.);
#900=ORIENTED_EDGE('',*,*,#695,.F.);
#901=ORIENTED_EDGE('',*,*,#596,.F.);
#902=ORIENTED_EDGE('',*,*,#696,.F.);
#903=ORIENTED_EDGE('',*,*,#695,.T.);
#904=ORIENTED_EDGE('',*,*,#697,.F.);
#905=ORIENTED_EDGE('',*,*,#698,.F.);
#906=ORIENTED_EDGE('',*,*,#699,.F.);
#907=ORIENTED_EDGE('',*,*,#700,.F.);
#908=ORIENTED_EDGE('',*,*,#701,.T.);
#909=ORIENTED_EDGE('',*,*,#615,.F.);
#910=ORIENTED_EDGE('',*,*,#701,.F.);
#911=ORIENTED_EDGE('',*,*,#702,.F.);
#912=ORIENTED_EDGE('',*,*,#703,.T.);
#913=ORIENTED_EDGE('',*,*,#616,.F.);
#914=ORIENTED_EDGE('',*,*,#703,.F.);
#915=ORIENTED_EDGE('',*,*,#704,.F.);
#916=ORIENTED_EDGE('',*,*,#705,.F.);
#917=ORIENTED_EDGE('',*,*,#617,.F.);
#918=ORIENTED_EDGE('',*,*,#705,.T.);
#919=ORIENTED_EDGE('',*,*,#706,.F.);
#920=ORIENTED_EDGE('',*,*,#699,.T.);
#921=ORIENTED_EDGE('',*,*,#614,.F.);
#922=ORIENTED_EDGE('',*,*,#706,.T.);
#923=ORIENTED_EDGE('',*,*,#704,.T.);
#924=ORIENTED_EDGE('',*,*,#702,.T.);
#925=ORIENTED_EDGE('',*,*,#700,.T.);
#926=ORIENTED_EDGE('',*,*,#707,.T.);
#927=ORIENTED_EDGE('',*,*,#697,.T.);
#928=ORIENTED_EDGE('',*,*,#694,.T.);
#929=ORIENTED_EDGE('',*,*,#690,.T.);
#930=ORIENTED_EDGE('',*,*,#687,.T.);
#931=ORIENTED_EDGE('',*,*,#683,.T.);
#932=ORIENTED_EDGE('',*,*,#681,.T.);
#933=ORIENTED_EDGE('',*,*,#679,.T.);
#934=ORIENTED_EDGE('',*,*,#677,.T.);
#935=ORIENTED_EDGE('',*,*,#675,.T.);
#936=ORIENTED_EDGE('',*,*,#673,.T.);
#937=ORIENTED_EDGE('',*,*,#671,.T.);
#938=ORIENTED_EDGE('',*,*,#669,.T.);
#939=ORIENTED_EDGE('',*,*,#667,.T.);
#940=ORIENTED_EDGE('',*,*,#665,.T.);
#941=ORIENTED_EDGE('',*,*,#663,.T.);
#942=ORIENTED_EDGE('',*,*,#661,.T.);
#943=ORIENTED_EDGE('',*,*,#659,.T.);
#944=ORIENTED_EDGE('',*,*,#634,.T.);
#945=ORIENTED_EDGE('',*,*,#657,.T.);
#946=ORIENTED_EDGE('',*,*,#654,.T.);
#947=ORIENTED_EDGE('',*,*,#651,.T.);
#948=ORIENTED_EDGE('',*,*,#636,.T.);
#949=ORIENTED_EDGE('',*,*,#631,.T.);
#950=ORIENTED_EDGE('',*,*,#648,.T.);
#951=ORIENTED_EDGE('',*,*,#645,.T.);
#952=ORIENTED_EDGE('',*,*,#627,.T.);
#953=ORIENTED_EDGE('',*,*,#624,.T.);
#954=ORIENTED_EDGE('',*,*,#643,.T.);
#955=ORIENTED_EDGE('',*,*,#640,.T.);
#956=ORIENTED_EDGE('',*,*,#620,.T.);
#957=ORIENTED_EDGE('',*,*,#658,.T.);
#958=ORIENTED_EDGE('',*,*,#597,.T.);
#959=ORIENTED_EDGE('',*,*,#698,.T.);
#960=ORIENTED_EDGE('',*,*,#707,.F.);
#961=ORIENTED_EDGE('',*,*,#650,.F.);
#962=ORIENTED_EDGE('',*,*,#708,.F.);
#963=ORIENTED_EDGE('',*,*,#653,.T.);
#964=ORIENTED_EDGE('',*,*,#656,.T.);
#965=ORIENTED_EDGE('',*,*,#632,.T.);
#966=ORIENTED_EDGE('',*,*,#708,.T.);
#967=ORIENTED_EDGE('',*,*,#649,.T.);
#968=ORIENTED_EDGE('',*,*,#685,.T.);
#969=ORIENTED_EDGE('',*,*,#709,.F.);
#970=ORIENTED_EDGE('',*,*,#689,.T.);
#971=ORIENTED_EDGE('',*,*,#611,.F.);
#972=ORIENTED_EDGE('',*,*,#686,.T.);
#973=ORIENTED_EDGE('',*,*,#709,.T.);
#974=ORIENTED_EDGE('',*,*,#692,.T.);
#975=ORIENTED_EDGE('',*,*,#710,.F.);
#976=ORIENTED_EDGE('',*,*,#696,.T.);
#977=ORIENTED_EDGE('',*,*,#613,.F.);
#978=ORIENTED_EDGE('',*,*,#693,.T.);
#979=ORIENTED_EDGE('',*,*,#710,.T.);
#980=ORIENTED_EDGE('',*,*,#629,.T.);
#981=ORIENTED_EDGE('',*,*,#625,.T.);
#982=ORIENTED_EDGE('',*,*,#644,.T.);
#983=ORIENTED_EDGE('',*,*,#647,.T.);
#984=ORIENTED_EDGE('',*,*,#638,.T.);
#985=ORIENTED_EDGE('',*,*,#622,.T.);
#986=ORIENTED_EDGE('',*,*,#618,.T.);
#987=ORIENTED_EDGE('',*,*,#639,.T.);
#988=ORIENTED_EDGE('',*,*,#642,.T.);
#989=ORIENTED_EDGE('',*,*,#711,.F.);
#990=ORIENTED_EDGE('',*,*,#712,.T.);
#991=ORIENTED_EDGE('',*,*,#713,.F.);
#992=ORIENTED_EDGE('',*,*,#714,.F.);
#993=ORIENTED_EDGE('',*,*,#715,.F.);
#994=ORIENTED_EDGE('',*,*,#716,.F.);
#995=ORIENTED_EDGE('',*,*,#717,.F.);
#996=ORIENTED_EDGE('',*,*,#718,.T.);
#997=ORIENTED_EDGE('',*,*,#717,.T.);
#998=ORIENTED_EDGE('',*,*,#719,.F.);
#999=ORIENTED_EDGE('',*,*,#720,.F.);
#1000=ORIENTED_EDGE('',*,*,#721,.F.);
#1001=ORIENTED_EDGE('',*,*,#722,.F.);
#1002=ORIENTED_EDGE('',*,*,#723,.F.);
#1003=ORIENTED_EDGE('',*,*,#724,.T.);
#1004=ORIENTED_EDGE('',*,*,#725,.F.);
#1005=ORIENTED_EDGE('',*,*,#726,.F.);
#1006=ORIENTED_EDGE('',*,*,#727,.T.);
#1007=ORIENTED_EDGE('',*,*,#722,.T.);
#1008=ORIENTED_EDGE('',*,*,#728,.F.);
#1009=ORIENTED_EDGE('',*,*,#729,.T.);
#1010=ORIENTED_EDGE('',*,*,#724,.F.);
#1011=ORIENTED_EDGE('',*,*,#730,.F.);
#1012=ORIENTED_EDGE('',*,*,#731,.T.);
#1013=ORIENTED_EDGE('',*,*,#732,.F.);
#1014=ORIENTED_EDGE('',*,*,#731,.F.);
#1015=ORIENTED_EDGE('',*,*,#733,.T.);
#1016=ORIENTED_EDGE('',*,*,#726,.T.);
#1017=ORIENTED_EDGE('',*,*,#734,.F.);
#1018=ORIENTED_EDGE('',*,*,#720,.T.);
#1019=ORIENTED_EDGE('',*,*,#735,.T.);
#1020=ORIENTED_EDGE('',*,*,#736,.T.);
#1021=ORIENTED_EDGE('',*,*,#737,.F.);
#1022=ORIENTED_EDGE('',*,*,#738,.T.);
#1023=ORIENTED_EDGE('',*,*,#739,.T.);
#1024=ORIENTED_EDGE('',*,*,#740,.T.);
#1025=ORIENTED_EDGE('',*,*,#716,.T.);
#1026=ORIENTED_EDGE('',*,*,#741,.F.);
#1027=ORIENTED_EDGE('',*,*,#735,.F.);
#1028=ORIENTED_EDGE('',*,*,#719,.T.);
#1029=ORIENTED_EDGE('',*,*,#742,.T.);
#1030=ORIENTED_EDGE('',*,*,#743,.F.);
#1031=ORIENTED_EDGE('',*,*,#744,.F.);
#1032=ORIENTED_EDGE('',*,*,#745,.T.);
#1033=ORIENTED_EDGE('',*,*,#718,.F.);
#1034=ORIENTED_EDGE('',*,*,#721,.T.);
#1035=ORIENTED_EDGE('',*,*,#734,.T.);
#1036=ORIENTED_EDGE('',*,*,#746,.T.);
#1037=ORIENTED_EDGE('',*,*,#747,.T.);
#1038=ORIENTED_EDGE('',*,*,#748,.F.);
#1039=ORIENTED_EDGE('',*,*,#749,.T.);
#1040=ORIENTED_EDGE('',*,*,#743,.T.);
#1041=ORIENTED_EDGE('',*,*,#714,.T.);
#1042=ORIENTED_EDGE('',*,*,#750,.F.);
#1043=ORIENTED_EDGE('',*,*,#737,.T.);
#1044=ORIENTED_EDGE('',*,*,#751,.T.);
#1045=ORIENTED_EDGE('',*,*,#752,.F.);
#1046=ORIENTED_EDGE('',*,*,#753,.F.);
#1047=ORIENTED_EDGE('',*,*,#754,.T.);
#1048=ORIENTED_EDGE('',*,*,#748,.T.);
#1049=ORIENTED_EDGE('',*,*,#712,.F.);
#1050=ORIENTED_EDGE('',*,*,#755,.T.);
#1051=ORIENTED_EDGE('',*,*,#739,.F.);
#1052=ORIENTED_EDGE('',*,*,#756,.T.);
#1053=ORIENTED_EDGE('',*,*,#757,.F.);
#1054=ORIENTED_EDGE('',*,*,#745,.F.);
#1055=ORIENTED_EDGE('',*,*,#758,.F.);
#1056=ORIENTED_EDGE('',*,*,#753,.T.);
#1057=ORIENTED_EDGE('',*,*,#727,.F.);
#1058=ORIENTED_EDGE('',*,*,#733,.F.);
#1059=ORIENTED_EDGE('',*,*,#730,.T.);
#1060=ORIENTED_EDGE('',*,*,#723,.T.);
#1061=ORIENTED_EDGE('',*,*,#758,.T.);
#1062=ORIENTED_EDGE('',*,*,#744,.T.);
#1063=ORIENTED_EDGE('',*,*,#749,.F.);
#1064=ORIENTED_EDGE('',*,*,#754,.F.);
#1065=ORIENTED_EDGE('',*,*,#729,.F.);
#1066=ORIENTED_EDGE('',*,*,#732,.T.);
#1067=ORIENTED_EDGE('',*,*,#728,.T.);
#1068=ORIENTED_EDGE('',*,*,#725,.T.);
#1069=ORIENTED_EDGE('',*,*,#742,.F.);
#1070=ORIENTED_EDGE('',*,*,#757,.T.);
#1071=ORIENTED_EDGE('',*,*,#752,.T.);
#1072=ORIENTED_EDGE('',*,*,#747,.F.);
#1073=ORIENTED_EDGE('',*,*,#715,.T.);
#1074=ORIENTED_EDGE('',*,*,#746,.F.);
#1075=ORIENTED_EDGE('',*,*,#736,.F.);
#1076=ORIENTED_EDGE('',*,*,#741,.T.);
#1077=ORIENTED_EDGE('',*,*,#711,.T.);
#1078=ORIENTED_EDGE('',*,*,#751,.F.);
#1079=ORIENTED_EDGE('',*,*,#740,.F.);
#1080=ORIENTED_EDGE('',*,*,#755,.F.);
#1081=ORIENTED_EDGE('',*,*,#713,.T.);
#1082=ORIENTED_EDGE('',*,*,#756,.F.);
#1083=ORIENTED_EDGE('',*,*,#738,.F.);
#1084=ORIENTED_EDGE('',*,*,#750,.T.);
#1085=PLANE('',#1227);
#1086=PLANE('',#1231);
#1087=PLANE('',#1232);
#1088=PLANE('',#1233);
#1089=PLANE('',#1234);
#1090=PLANE('',#1235);
#1091=PLANE('',#1236);
#1092=PLANE('',#1240);
#1093=PLANE('',#1241);
#1094=PLANE('',#1242);
#1095=PLANE('',#1243);
#1096=PLANE('',#1244);
#1097=PLANE('',#1245);
#1098=PLANE('',#1246);
#1099=PLANE('',#1247);
#1100=PLANE('',#1248);
#1101=PLANE('',#1249);
#1102=PLANE('',#1250);
#1103=PLANE('',#1251);
#1104=PLANE('',#1252);
#1105=PLANE('',#1255);
#1106=PLANE('',#1256);
#1107=PLANE('',#1257);
#1108=PLANE('',#1258);
#1109=PLANE('',#1259);
#1110=PLANE('',#1260);
#1111=PLANE('',#1264);
#1112=PLANE('',#1268);
#1113=PLANE('',#1269);
#1114=PLANE('',#1270);
#1115=PLANE('',#1271);
#1116=PLANE('',#1272);
#1117=PLANE('',#1273);
#1118=PLANE('',#1274);
#1119=PLANE('',#1275);
#1120=PLANE('',#1278);
#1121=PLANE('',#1281);
#1122=PLANE('',#1282);
#1123=PLANE('',#1283);
#1124=PLANE('',#1284);
#1125=PLANE('',#1285);
#1126=PLANE('',#1286);
#1127=PLANE('',#1287);
#1128=PLANE('',#1288);
#1129=PLANE('',#1289);
#1130=PLANE('',#1290);
#1131=PLANE('',#1291);
#1132=PLANE('',#1292);
#1133=PLANE('',#1293);
#1134=PLANE('',#1294);
#1135=PLANE('',#1295);
#1136=PLANE('',#1296);
#1137=PLANE('',#1297);
#1138=PLANE('',#1298);
#1139=PLANE('',#1299);
#1140=PLANE('',#1300);
#1141=PLANE('',#1301);
#1142=PLANE('',#1302);
#1143=PLANE('',#1303);
#1144=PLANE('',#1304);
#1145=ADVANCED_FACE('',(#35),#1085,.F.);
#1146=ADVANCED_FACE('',(#36),#1086,.T.);
#1147=ADVANCED_FACE('',(#37),#1087,.T.);
#1148=ADVANCED_FACE('',(#38),#1088,.T.);
#1149=ADVANCED_FACE('',(#39),#1089,.T.);
#1150=ADVANCED_FACE('',(#40),#1090,.T.);
#1151=ADVANCED_FACE('',(#41),#1091,.T.);
#1152=ADVANCED_FACE('',(#42),#29,.F.);
#1153=ADVANCED_FACE('',(#43),#1092,.T.);
#1154=ADVANCED_FACE('',(#44),#1093,.T.);
#1155=ADVANCED_FACE('',(#45),#1094,.T.);
#1156=ADVANCED_FACE('',(#46),#1095,.T.);
#1157=ADVANCED_FACE('',(#47),#1096,.T.);
#1158=ADVANCED_FACE('',(#48),#1097,.T.);
#1159=ADVANCED_FACE('',(#49),#1098,.T.);
#1160=ADVANCED_FACE('',(#50),#1099,.T.);
#1161=ADVANCED_FACE('',(#51),#1100,.T.);
#1162=ADVANCED_FACE('',(#52),#1101,.T.);
#1163=ADVANCED_FACE('',(#53),#1102,.T.);
#1164=ADVANCED_FACE('',(#54),#1103,.T.);
#1165=ADVANCED_FACE('',(#55),#1104,.T.);
#1166=ADVANCED_FACE('',(#56),#30,.F.);
#1167=ADVANCED_FACE('',(#57),#1105,.T.);
#1168=ADVANCED_FACE('',(#58),#1106,.T.);
#1169=ADVANCED_FACE('',(#59),#1107,.T.);
#1170=ADVANCED_FACE('',(#60),#1108,.T.);
#1171=ADVANCED_FACE('',(#61),#1109,.T.);
#1172=ADVANCED_FACE('',(#62),#1110,.T.);
#1173=ADVANCED_FACE('',(#63),#31,.F.);
#1174=ADVANCED_FACE('',(#64),#1111,.T.);
#1175=ADVANCED_FACE('',(#65),#32,.F.);
#1176=ADVANCED_FACE('',(#66),#1112,.T.);
#1177=ADVANCED_FACE('',(#67),#1113,.T.);
#1178=ADVANCED_FACE('',(#68),#1114,.T.);
#1179=ADVANCED_FACE('',(#69),#1115,.T.);
#1180=ADVANCED_FACE('',(#70),#1116,.T.);
#1181=ADVANCED_FACE('',(#71,#21,#22,#23,#24),#1117,.F.);
#1182=ADVANCED_FACE('',(#72),#1118,.T.);
#1183=ADVANCED_FACE('',(#73),#1119,.T.);
#1184=ADVANCED_FACE('',(#74),#33,.T.);
#1185=ADVANCED_FACE('',(#75),#1120,.F.);
#1186=ADVANCED_FACE('',(#76),#34,.T.);
#1187=ADVANCED_FACE('',(#77),#1121,.F.);
#1188=ADVANCED_FACE('',(#78),#1122,.T.);
#1189=ADVANCED_FACE('',(#79),#1123,.F.);
#1190=ADVANCED_FACE('',(#80),#1124,.T.);
#1191=ADVANCED_FACE('',(#81),#1125,.T.);
#1192=ADVANCED_FACE('',(#82),#1126,.T.);
#1193=ADVANCED_FACE('',(#83),#1127,.T.);
#1194=ADVANCED_FACE('',(#84),#1128,.T.);
#1195=ADVANCED_FACE('',(#85),#1129,.T.);
#1196=ADVANCED_FACE('',(#86),#1130,.F.);
#1197=ADVANCED_FACE('',(#87),#1131,.F.);
#1198=ADVANCED_FACE('',(#88),#1132,.T.);
#1199=ADVANCED_FACE('',(#89),#1133,.T.);
#1200=ADVANCED_FACE('',(#90),#1134,.F.);
#1201=ADVANCED_FACE('',(#91,#25),#1135,.F.);
#1202=ADVANCED_FACE('',(#92),#1136,.F.);
#1203=ADVANCED_FACE('',(#93),#1137,.T.);
#1204=ADVANCED_FACE('',(#94,#26),#1138,.T.);
#1205=ADVANCED_FACE('',(#95),#1139,.T.);
#1206=ADVANCED_FACE('',(#96,#27),#1140,.F.);
#1207=ADVANCED_FACE('',(#97,#28),#1141,.T.);
#1208=ADVANCED_FACE('',(#98),#1142,.F.);
#1209=ADVANCED_FACE('',(#99),#1143,.T.);
#1210=ADVANCED_FACE('',(#100),#1144,.F.);
#1211=CLOSED_SHELL('',(#1145,#1146,#1147,#1148,#1149,#1150,#1151,#1152,
#1153,#1154,#1155,#1156,#1157,#1158,#1159,#1160,#1161,#1162,#1163,#1164,
#1165,#1166,#1167,#1168,#1169,#1170,#1171,#1172,#1173,#1174,#1175,#1176,
#1177,#1178,#1179,#1180,#1181,#1182,#1183,#1184,#1185,#1186,#1187,#1188,
#1189,#1190));
#1212=CLOSED_SHELL('',(#1191,#1192,#1193,#1194,#1195,#1196,#1197,#1198,
#1199,#1200,#1201,#1202,#1203,#1204,#1205,#1206,#1207,#1208,#1209,#1210));
#1213=DERIVED_UNIT_ELEMENT(#1215,1.);
#1214=DERIVED_UNIT_ELEMENT(#1965,-3.);
#1215=(
MASS_UNIT()
NAMED_UNIT(*)
SI_UNIT(.KILO.,.GRAM.)
);
#1216=DERIVED_UNIT((#1213,#1214));
#1217=MEASURE_REPRESENTATION_ITEM('density measure',
POSITIVE_RATIO_MEASURE(7850.),#1216);
#1218=PROPERTY_DEFINITION_REPRESENTATION(#1223,#1220);
#1219=PROPERTY_DEFINITION_REPRESENTATION(#1224,#1221);
#1220=REPRESENTATION('material name',(#1222),#1962);
#1221=REPRESENTATION('density',(#1217),#1962);
#1222=DESCRIPTIVE_REPRESENTATION_ITEM('Steel','Steel');
#1223=PROPERTY_DEFINITION('material property','material name',#1977);
#1224=PROPERTY_DEFINITION('material property','density of part',#1977);
#1225=AXIS2_PLACEMENT_3D('',#1619,#1306,#1307);
#1226=AXIS2_PLACEMENT_3D('',#1620,#1308,#1309);
#1227=AXIS2_PLACEMENT_3D('',#1621,#1310,#1311);
#1228=AXIS2_PLACEMENT_3D('',#1640,#1320,#1321);
#1229=AXIS2_PLACEMENT_3D('',#1654,#1328,#1329);
#1230=AXIS2_PLACEMENT_3D('',#1657,#1331,#1332);
#1231=AXIS2_PLACEMENT_3D('',#1658,#1333,#1334);
#1232=AXIS2_PLACEMENT_3D('',#1667,#1339,#1340);
#1233=AXIS2_PLACEMENT_3D('',#1676,#1345,#1346);
#1234=AXIS2_PLACEMENT_3D('',#1682,#1350,#1351);
#1235=AXIS2_PLACEMENT_3D('',#1691,#1356,#1357);
#1236=AXIS2_PLACEMENT_3D('',#1697,#1361,#1362);
#1237=AXIS2_PLACEMENT_3D('',#1706,#1367,#1368);
#1238=AXIS2_PLACEMENT_3D('',#1708,#1369,#1370);
#1239=AXIS2_PLACEMENT_3D('',#1711,#1372,#1373);
#1240=AXIS2_PLACEMENT_3D('',#1712,#1374,#1375);
#1241=AXIS2_PLACEMENT_3D('',#1718,#1379,#1380);
#1242=AXIS2_PLACEMENT_3D('',#1721,#1383,#1384);
#1243=AXIS2_PLACEMENT_3D('',#1727,#1388,#1389);
#1244=AXIS2_PLACEMENT_3D('',#1730,#1392,#1393);
#1245=AXIS2_PLACEMENT_3D('',#1739,#1398,#1399);
#1246=AXIS2_PLACEMENT_3D('',#1745,#1403,#1404);
#1247=AXIS2_PLACEMENT_3D('',#1748,#1407,#1408);
#1248=AXIS2_PLACEMENT_3D('',#1753,#1412,#1413);
#1249=AXIS2_PLACEMENT_3D('',#1757,#1416,#1417);
#1250=AXIS2_PLACEMENT_3D('',#1761,#1420,#1421);
#1251=AXIS2_PLACEMENT_3D('',#1765,#1424,#1425);
#1252=AXIS2_PLACEMENT_3D('',#1769,#1428,#1429);
#1253=AXIS2_PLACEMENT_3D('',#1773,#1432,#1433);
#1254=AXIS2_PLACEMENT_3D('',#1775,#1434,#1435);
#1255=AXIS2_PLACEMENT_3D('',#1777,#1437,#1438);
#1256=AXIS2_PLACEMENT_3D('',#1781,#1441,#1442);
#1257=AXIS2_PLACEMENT_3D('',#1785,#1445,#1446);
#1258=AXIS2_PLACEMENT_3D('',#1789,#1449,#1450);
#1259=AXIS2_PLACEMENT_3D('',#1793,#1453,#1454);
#1260=AXIS2_PLACEMENT_3D('',#1797,#1457,#1458);
#1261=AXIS2_PLACEMENT_3D('',#1803,#1462,#1463);
#1262=AXIS2_PLACEMENT_3D('',#1805,#1464,#1465);
#1263=AXIS2_PLACEMENT_3D('',#1807,#1466,#1467);
#1264=AXIS2_PLACEMENT_3D('',#1809,#1469,#1470);
#1265=AXIS2_PLACEMENT_3D('',#1816,#1475,#1476);
#1266=AXIS2_PLACEMENT_3D('',#1818,#1477,#1478);
#1267=AXIS2_PLACEMENT_3D('',#1820,#1479,#1480);
#1268=AXIS2_PLACEMENT_3D('',#1822,#1482,#1483);
#1269=AXIS2_PLACEMENT_3D('',#1827,#1487,#1488);
#1270=AXIS2_PLACEMENT_3D('',#1833,#1492,#1493);
#1271=AXIS2_PLACEMENT_3D('',#1837,#1496,#1497);
#1272=AXIS2_PLACEMENT_3D('',#1841,#1500,#1501);
#1273=AXIS2_PLACEMENT_3D('',#1843,#1503,#1504);
#1274=AXIS2_PLACEMENT_3D('',#1845,#1506,#1507);
#1275=AXIS2_PLACEMENT_3D('',#1847,#1509,#1510);
#1276=AXIS2_PLACEMENT_3D('',#1848,#1511,#1512);
#1277=AXIS2_PLACEMENT_3D('',#1849,#1513,#1514);
#1278=AXIS2_PLACEMENT_3D('',#1850,#1515,#1516);
#1279=AXIS2_PLACEMENT_3D('',#1851,#1517,#1518);
#1280=AXIS2_PLACEMENT_3D('',#1852,#1519,#1520);
#1281=AXIS2_PLACEMENT_3D('',#1853,#1521,#1522);
#1282=AXIS2_PLACEMENT_3D('',#1854,#1523,#1524);
#1283=AXIS2_PLACEMENT_3D('',#1855,#1525,#1526);
#1284=AXIS2_PLACEMENT_3D('',#1856,#1527,#1528);
#1285=AXIS2_PLACEMENT_3D('',#1857,#1529,#1530);
#1286=AXIS2_PLACEMENT_3D('',#1866,#1535,#1536);
#1287=AXIS2_PLACEMENT_3D('',#1875,#1541,#1542);
#1288=AXIS2_PLACEMENT_3D('',#1881,#1546,#1547);
#1289=AXIS2_PLACEMENT_3D('',#1890,#1552,#1553);
#1290=AXIS2_PLACEMENT_3D('',#1896,#1557,#1558);
#1291=AXIS2_PLACEMENT_3D('',#1902,#1562,#1563);
#1292=AXIS2_PLACEMENT_3D('',#1905,#1566,#1567);
#1293=AXIS2_PLACEMENT_3D('',#1911,#1571,#1572);
#1294=AXIS2_PLACEMENT_3D('',#1920,#1577,#1578);
#1295=AXIS2_PLACEMENT_3D('',#1922,#1580,#1581);
#1296=AXIS2_PLACEMENT_3D('',#1932,#1587,#1588);
#1297=AXIS2_PLACEMENT_3D('',#1938,#1592,#1593);
#1298=AXIS2_PLACEMENT_3D('',#1941,#1596,#1597);
#1299=AXIS2_PLACEMENT_3D('',#1949,#1603,#1604);
#1300=AXIS2_PLACEMENT_3D('',#1952,#1607,#1608);
#1301=AXIS2_PLACEMENT_3D('',#1953,#1609,#1610);
#1302=AXIS2_PLACEMENT_3D('',#1954,#1611,#1612);
#1303=AXIS2_PLACEMENT_3D('',#1955,#1613,#1614);
#1304=AXIS2_PLACEMENT_3D('',#1956,#1615,#1616);
#1305=AXIS2_PLACEMENT_3D('',#1957,#1617,#1618);
#1306=DIRECTION('axis',(0.,0.,1.));
#1307=DIRECTION('refdir',(1.,0.,0.));
#1308=DIRECTION('axis',(0.,0.,1.));
#1309=DIRECTION('refdir',(1.,0.,0.));
#1310=DIRECTION('center_axis',(3.08333721287483E-17,6.50320167618777E-17,
-1.));
#1311=DIRECTION('ref_axis',(1.,-4.23847039696127E-34,3.08333721287483E-17));
#1312=DIRECTION('',(-0.584530092185769,-0.811372030162056,5.1362997975155E-17));
#1313=DIRECTION('',(1.,-1.02322382430895E-35,-9.25247417184913E-17));
#1314=DIRECTION('',(-3.20463981270374E-34,-1.,-3.35295983825788E-18));
#1315=DIRECTION('',(-1.,1.02322382430895E-35,9.25247417184913E-17));
#1316=DIRECTION('',(-3.20463981270374E-34,-1.,-3.35295983825788E-18));
#1317=DIRECTION('',(1.,-1.02322382430895E-35,-9.25247417184913E-17));
#1318=DIRECTION('',(-3.20463981270374E-34,-1.,-3.35295983825788E-18));
#1319=DIRECTION('',(1.,-1.02322382430895E-35,-9.25247417184913E-17));
#1320=DIRECTION('center_axis',(9.25247417184913E-17,-3.35295983825788E-18,
1.));
#1321=DIRECTION('ref_axis',(1.,-1.02322382430895E-35,-9.25247417184913E-17));
#1322=DIRECTION('',(3.20463981270374E-34,1.,3.35295983825788E-18));
#1323=DIRECTION('',(1.,-1.02322382430895E-35,-9.25247417184913E-17));
#1324=DIRECTION('',(3.20463981270374E-34,1.,3.35295983825788E-18));
#1325=DIRECTION('',(-1.,1.02322382430895E-35,9.25247417184913E-17));
#1326=DIRECTION('',(3.20463981270374E-34,1.,3.35295983825788E-18));
#1327=DIRECTION('',(-1.,1.02322382430895E-35,9.25247417184913E-17));
#1328=DIRECTION('center_axis',(-9.25247417184913E-17,3.35295983825788E-18,
-1.));
#1329=DIRECTION('ref_axis',(1.,-1.02322382430895E-35,-9.25247417184913E-17));
#1330=DIRECTION('',(-1.,1.02322382430895E-35,9.25247417184913E-17));
#1331=DIRECTION('center_axis',(-9.25247417184913E-17,3.35295983825788E-18,
-1.));
#1332=DIRECTION('ref_axis',(1.,-1.02322382430895E-35,-9.25247417184913E-17));
#1333=DIRECTION('center_axis',(0.,0.,-1.));
#1334=DIRECTION('ref_axis',(-1.,0.,0.));
#1335=DIRECTION('',(6.02730279256842E-33,1.,6.50320167618777E-17));
#1336=DIRECTION('',(1.,-1.02322382430895E-35,-9.25247417184913E-17));
#1337=DIRECTION('',(5.38637483002767E-33,-1.,5.83260970853619E-17));
#1338=DIRECTION('',(-1.,4.23847039696127E-34,-3.08333721287483E-17));
#1339=DIRECTION('center_axis',(-1.,3.20463981270374E-34,0.));
#1340=DIRECTION('ref_axis',(-3.20463981270374E-34,-1.,-3.35295983825788E-18));
#1341=DIRECTION('',(3.20463981270374E-34,1.,3.35295983825788E-18));
#1342=DIRECTION('',(0.,0.,1.));
#1343=DIRECTION('',(-3.20463981270374E-34,-1.,-3.35295983825788E-18));
#1344=DIRECTION('',(0.,0.,1.));
#1345=DIRECTION('center_axis',(1.02322382430895E-35,1.,0.));
#1346=DIRECTION('ref_axis',(-1.,1.02322382430895E-35,9.25247417184913E-17));
#1347=DIRECTION('',(1.,-1.02322382430895E-35,-9.25247417184913E-17));
#1348=DIRECTION('',(0.,0.,1.));
#1349=DIRECTION('',(-1.,1.02322382430895E-35,9.25247417184913E-17));
#1350=DIRECTION('center_axis',(1.02322382430895E-35,1.,0.));
#1351=DIRECTION('ref_axis',(-1.,1.02322382430895E-35,9.25247417184913E-17));
#1352=DIRECTION('',(1.,-1.02322382430895E-35,-9.25247417184913E-17));
#1353=DIRECTION('',(0.,0.,1.));
#1354=DIRECTION('',(-1.,1.02322382430895E-35,9.25247417184913E-17));
#1355=DIRECTION('',(0.,0.,1.));
#1356=DIRECTION('center_axis',(1.,-3.20463981270374E-34,0.));
#1357=DIRECTION('ref_axis',(3.20463981270374E-34,1.,3.35295983825788E-18));
#1358=DIRECTION('',(-3.20463981270374E-34,-1.,-3.35295983825788E-18));
#1359=DIRECTION('',(0.,0.,1.));
#1360=DIRECTION('',(3.20463981270374E-34,1.,3.35295983825788E-18));
#1361=DIRECTION('center_axis',(1.02322382430895E-35,1.,0.));
#1362=DIRECTION('ref_axis',(-1.,1.02322382430895E-35,9.25247417184913E-17));
#1363=DIRECTION('',(1.,-1.02322382430895E-35,-9.25247417184913E-17));
#1364=DIRECTION('',(0.,0.,1.));
#1365=DIRECTION('',(-1.,1.02322382430895E-35,9.25247417184913E-17));
#1366=DIRECTION('',(0.,0.,1.));
#1367=DIRECTION('center_axis',(0.,0.,1.));
#1368=DIRECTION('ref_axis',(1.,-1.02322382430895E-35,0.));
#1369=DIRECTION('center_axis',(-9.25247417184913E-17,3.35295983825788E-18,
-1.));
#1370=DIRECTION('ref_axis',(1.,-1.02322382430895E-35,-9.25247417184913E-17));
#1371=DIRECTION('',(0.,0.,-1.));
#1372=DIRECTION('center_axis',(9.25247417184913E-17,-3.35295983825788E-18,
1.));
#1373=DIRECTION('ref_axis',(1.,-1.02322382430895E-35,-9.25247417184913E-17));
#1374=DIRECTION('center_axis',(-1.02322382430895E-35,-1.,0.));
#1375=DIRECTION('ref_axis',(1.,-1.02322382430895E-35,-9.25247417184913E-17));
#1376=DIRECTION('',(-1.,1.02322382430895E-35,9.25247417184913E-17));
#1377=DIRECTION('',(1.,-1.02322382430895E-35,-9.25247417184913E-17));
#1378=DIRECTION('',(0.,0.,1.));
#1379=DIRECTION('center_axis',(1.,-3.20463981270374E-34,0.));
#1380=DIRECTION('ref_axis',(3.20463981270374E-34,1.,3.35295983825788E-18));
#1381=DIRECTION('',(-3.20463981270374E-34,-1.,-3.35295983825788E-18));
#1382=DIRECTION('',(3.20463981270374E-34,1.,3.35295983825788E-18));
#1383=DIRECTION('center_axis',(-1.,3.20463981270374E-34,0.));
#1384=DIRECTION('ref_axis',(-3.20463981270374E-34,-1.,-3.35295983825788E-18));
#1385=DIRECTION('',(3.20463981270374E-34,1.,3.35295983825788E-18));
#1386=DIRECTION('',(-3.20463981270374E-34,-1.,-3.35295983825788E-18));
#1387=DIRECTION('',(0.,0.,1.));
#1388=DIRECTION('center_axis',(-1.02322382430895E-35,-1.,0.));
#1389=DIRECTION('ref_axis',(1.,-1.02322382430895E-35,-9.25247417184913E-17));
#1390=DIRECTION('',(-1.,1.02322382430895E-35,9.25247417184913E-17));
#1391=DIRECTION('',(1.,-1.02322382430895E-35,-9.25247417184913E-17));
#1392=DIRECTION('center_axis',(-1.,3.20463981270374E-34,0.));
#1393=DIRECTION('ref_axis',(-3.20463981270374E-34,-1.,-3.35295983825788E-18));
#1394=DIRECTION('',(3.20463981270374E-34,1.,3.35295983825788E-18));
#1395=DIRECTION('',(0.,0.,1.));
#1396=DIRECTION('',(-3.20463981270374E-34,-1.,-3.35295983825788E-18));
#1397=DIRECTION('',(0.,0.,1.));
#1398=DIRECTION('center_axis',(-1.02322382430895E-35,-1.,0.));
#1399=DIRECTION('ref_axis',(1.,-1.02322382430895E-35,-9.25247417184913E-17));
#1400=DIRECTION('',(-1.,1.02322382430895E-35,9.25247417184913E-17));
#1401=DIRECTION('',(1.,-1.02322382430895E-35,-9.25247417184913E-17));
#1402=DIRECTION('',(0.,0.,1.));
#1403=DIRECTION('center_axis',(1.,-3.20463981270374E-34,0.));
#1404=DIRECTION('ref_axis',(3.20463981270374E-34,1.,3.35295983825788E-18));
#1405=DIRECTION('',(-3.20463981270374E-34,-1.,-3.35295983825788E-18));
#1406=DIRECTION('',(3.20463981270374E-34,1.,3.35295983825788E-18));
#1407=DIRECTION('center_axis',(1.,-3.20463981270374E-34,0.));
#1408=DIRECTION('ref_axis',(3.20463981270374E-34,1.,3.35295983825788E-18));
#1409=DIRECTION('',(0.,0.,-1.));
#1410=DIRECTION('',(3.20463981270374E-34,1.,3.35295983825788E-18));
#1411=DIRECTION('',(0.,0.,1.));
#1412=DIRECTION('center_axis',(-1.02322382430895E-35,-1.,0.));
#1413=DIRECTION('ref_axis',(1.,-1.02322382430895E-35,-9.25247417184913E-17));
#1414=DIRECTION('',(1.,-1.02322382430895E-35,-9.25247417184913E-17));
#1415=DIRECTION('',(0.,0.,1.));
#1416=DIRECTION('center_axis',(1.,-3.20463981270374E-34,0.));
#1417=DIRECTION('ref_axis',(3.20463981270374E-34,1.,3.35295983825788E-18));
#1418=DIRECTION('',(3.20463981270374E-34,1.,3.35295983825788E-18));
#1419=DIRECTION('',(0.,0.,1.));
#1420=DIRECTION('center_axis',(1.02322382430895E-35,1.,0.));
#1421=DIRECTION('ref_axis',(-1.,1.02322382430895E-35,9.25247417184913E-17));
#1422=DIRECTION('',(-1.,1.02322382430895E-35,9.25247417184913E-17));
#1423=DIRECTION('',(0.,0.,1.));
#1424=DIRECTION('center_axis',(1.,-3.20463981270374E-34,0.));
#1425=DIRECTION('ref_axis',(3.20463981270374E-34,1.,3.35295983825788E-18));
#1426=DIRECTION('',(3.20463981270374E-34,1.,3.35295983825788E-18));
#1427=DIRECTION('',(0.,0.,1.));
#1428=DIRECTION('center_axis',(1.02322382430895E-35,1.,0.));
#1429=DIRECTION('ref_axis',(-1.,1.02322382430895E-35,9.25247417184913E-17));
#1430=DIRECTION('',(-1.,1.02322382430895E-35,9.25247417184913E-17));
#1431=DIRECTION('',(0.,0.,1.));
#1432=DIRECTION('center_axis',(0.,0.,1.));
#1433=DIRECTION('ref_axis',(1.,-1.02322382430895E-35,0.));
#1434=DIRECTION('center_axis',(-9.25247417184913E-17,3.35295983825788E-18,
-1.));
#1435=DIRECTION('ref_axis',(1.,-1.02322382430895E-35,-9.25247417184913E-17));
#1436=DIRECTION('',(0.,0.,1.));
#1437=DIRECTION('center_axis',(-1.,3.20463981270374E-34,0.));
#1438=DIRECTION('ref_axis',(-3.20463981270374E-34,-1.,-3.35295983825788E-18));
#1439=DIRECTION('',(-3.20463981270374E-34,-1.,-3.35295983825788E-18));
#1440=DIRECTION('',(0.,0.,1.));
#1441=DIRECTION('center_axis',(1.02322382430895E-35,1.,0.));
#1442=DIRECTION('ref_axis',(-1.,1.02322382430895E-35,9.25247417184913E-17));
#1443=DIRECTION('',(-1.,1.02322382430895E-35,9.25247417184913E-17));
#1444=DIRECTION('',(0.,0.,1.));
#1445=DIRECTION('center_axis',(-1.,3.20463981270374E-34,0.));
#1446=DIRECTION('ref_axis',(-3.20463981270374E-34,-1.,-3.35295983825788E-18));
#1447=DIRECTION('',(-3.20463981270374E-34,-1.,-3.35295983825788E-18));
#1448=DIRECTION('',(0.,0.,1.));
#1449=DIRECTION('center_axis',(-1.02322382430895E-35,-1.,0.));
#1450=DIRECTION('ref_axis',(1.,-1.02322382430895E-35,-9.25247417184913E-17));
#1451=DIRECTION('',(1.,-1.02322382430895E-35,-9.25247417184913E-17));
#1452=DIRECTION('',(0.,0.,1.));
#1453=DIRECTION('center_axis',(-1.,3.20463981270374E-34,0.));
#1454=DIRECTION('ref_axis',(-3.20463981270374E-34,-1.,-3.35295983825788E-18));
#1455=DIRECTION('',(-3.20463981270374E-34,-1.,-3.35295983825788E-18));
#1456=DIRECTION('',(0.,0.,1.));
#1457=DIRECTION('center_axis',(-1.02322382430895E-35,-1.,0.));
#1458=DIRECTION('ref_axis',(1.,-1.02322382430895E-35,-9.25247417184913E-17));
#1459=DIRECTION('',(1.,-1.02322382430895E-35,-9.25247417184913E-17));
#1460=DIRECTION('',(0.,0.,1.));
#1461=DIRECTION('',(0.,0.,1.));
#1462=DIRECTION('center_axis',(0.,0.,1.));
#1463=DIRECTION('ref_axis',(2.83276944882399E-16,1.,0.));
#1464=DIRECTION('center_axis',(9.25247417184913E-17,-3.35295983825788E-18,
1.));
#1465=DIRECTION('ref_axis',(1.,-1.02322382430895E-35,-9.25247417184913E-17));
#1466=DIRECTION('center_axis',(-9.25247417184913E-17,3.35295983825788E-18,
-1.));
#1467=DIRECTION('ref_axis',(1.,-1.02322382430895E-35,-9.25247417184913E-17));
#1468=DIRECTION('',(0.,0.,1.));
#1469=DIRECTION('center_axis',(-1.02322382430895E-35,-1.,0.));
#1470=DIRECTION('ref_axis',(1.,-1.02322382430895E-35,-9.25247417184913E-17));
#1471=DIRECTION('',(0.,0.,-1.));
#1472=DIRECTION('',(1.,-1.02322382430895E-35,-9.25247417184913E-17));
#1473=DIRECTION('',(0.,0.,1.));
#1474=DIRECTION('',(0.,0.,1.));
#1475=DIRECTION('center_axis',(0.,0.,1.));
#1476=DIRECTION('ref_axis',(-0.447213595499958,0.894427190999916,0.));
#1477=DIRECTION('center_axis',(9.25247417184913E-17,-3.35295983825788E-18,
1.));
#1478=DIRECTION('ref_axis',(1.,-1.02322382430895E-35,-9.25247417184913E-17));
#1479=DIRECTION('center_axis',(-9.25247417184913E-17,3.35295983825788E-18,
-1.));
#1480=DIRECTION('ref_axis',(1.,-1.02322382430895E-35,-9.25247417184913E-17));
#1481=DIRECTION('',(0.,0.,1.));
#1482=DIRECTION('center_axis',(0.811372030162056,-0.584530092185769,0.));
#1483=DIRECTION('ref_axis',(0.584530092185769,0.811372030162056,-5.1362997975155E-17));
#1484=DIRECTION('',(0.,0.,-1.));
#1485=DIRECTION('',(0.584530092185769,0.811372030162056,-5.1362997975155E-17));
#1486=DIRECTION('',(0.,0.,1.));
#1487=DIRECTION('center_axis',(1.02322382430895E-35,1.,0.));
#1488=DIRECTION('ref_axis',(-1.,1.02322382430895E-35,9.25247417184913E-17));
#1489=DIRECTION('',(0.,0.,-1.));
#1490=DIRECTION('',(-1.,1.02322382430895E-35,9.25247417184913E-17));
#1491=DIRECTION('',(0.,0.,-1.));
#1492=DIRECTION('center_axis',(1.,5.38637483002767E-33,0.));
#1493=DIRECTION('ref_axis',(-5.38637483002767E-33,1.,-5.83260970853619E-17));
#1494=DIRECTION('',(-5.38637483002767E-33,1.,-5.83260970853619E-17));
#1495=DIRECTION('',(0.,0.,-1.));
#1496=DIRECTION('center_axis',(-4.23847039696127E-34,-1.,0.));
#1497=DIRECTION('ref_axis',(1.,-4.23847039696127E-34,3.08333721287483E-17));
#1498=DIRECTION('',(1.,-4.23847039696127E-34,3.08333721287483E-17));
#1499=DIRECTION('',(0.,0.,1.));
#1500=DIRECTION('center_axis',(-1.,6.02730279256842E-33,0.));
#1501=DIRECTION('ref_axis',(-6.02730279256842E-33,-1.,-6.50320167618777E-17));
#1502=DIRECTION('',(-6.02730279256842E-33,-1.,-6.50320167618777E-17));
#1503=DIRECTION('center_axis',(3.08333721287483E-17,6.50320167618777E-17,
-1.));
#1504=DIRECTION('ref_axis',(1.,-4.23847039696127E-34,3.08333721287483E-17));
#1505=DIRECTION('',(1.,-1.02322382430895E-35,-9.25247417184913E-17));
#1506=DIRECTION('center_axis',(-1.02322382430895E-35,-1.,0.));
#1507=DIRECTION('ref_axis',(1.,-1.02322382430895E-35,-9.25247417184913E-17));
#1508=DIRECTION('',(1.,-1.02322382430895E-35,-9.25247417184913E-17));
#1509=DIRECTION('center_axis',(0.,0.,1.));
#1510=DIRECTION('ref_axis',(1.,0.,0.));
#1511=DIRECTION('center_axis',(0.,0.,1.));
#1512=DIRECTION('ref_axis',(1.,-1.02322382430895E-35,0.));
#1513=DIRECTION('center_axis',(9.25247417184913E-17,-3.35295983825788E-18,
1.));
#1514=DIRECTION('ref_axis',(1.,-1.02322382430895E-35,-9.25247417184913E-17));
#1515=DIRECTION('center_axis',(-9.25247417184913E-17,3.35295983825788E-18,
-1.));
#1516=DIRECTION('ref_axis',(1.,-1.02322382430895E-35,-9.25247417184913E-17));
#1517=DIRECTION('center_axis',(0.,0.,1.));
#1518=DIRECTION('ref_axis',(1.,-1.02322382430895E-35,0.));
#1519=DIRECTION('center_axis',(9.25247417184913E-17,-3.35295983825788E-18,
1.));
#1520=DIRECTION('ref_axis',(1.,-1.02322382430895E-35,-9.25247417184913E-17));
#1521=DIRECTION('center_axis',(-9.25247417184913E-17,3.35295983825788E-18,
-1.));
#1522=DIRECTION('ref_axis',(1.,-1.02322382430895E-35,-9.25247417184913E-17));
#1523=DIRECTION('center_axis',(0.,0.,1.));
#1524=DIRECTION('ref_axis',(1.,0.,0.));
#1525=DIRECTION('center_axis',(-9.25247417184913E-17,3.35295983825788E-18,
-1.));
#1526=DIRECTION('ref_axis',(1.,-1.02322382430895E-35,-9.25247417184913E-17));
#1527=DIRECTION('center_axis',(0.,0.,1.));
#1528=DIRECTION('ref_axis',(1.,0.,0.));
#1529=DIRECTION('center_axis',(0.,0.866025403784439,0.5));
#1530=DIRECTION('ref_axis',(1.,0.,0.));
#1531=DIRECTION('',(0.654653670707977,0.377964473009227,-0.654653670707977));
#1532=DIRECTION('',(-1.,0.,0.));
#1533=DIRECTION('',(-0.654653670707977,0.377964473009227,-0.654653670707977));
#1534=DIRECTION('',(-1.,0.,0.));
#1535=DIRECTION('center_axis',(0.,-0.866025403784439,0.5));
#1536=DIRECTION('ref_axis',(1.,0.,0.));
#1537=DIRECTION('',(0.654653670707978,-0.377964473009227,-0.654653670707977));
#1538=DIRECTION('',(-1.,0.,0.));
#1539=DIRECTION('',(-0.654653670707978,-0.377964473009227,-0.654653670707977));
#1540=DIRECTION('',(1.,0.,0.));
#1541=DIRECTION('center_axis',(0.499999999999999,-0.866025403784439,0.));
#1542=DIRECTION('ref_axis',(0.,0.,-1.));
#1543=DIRECTION('',(0.,0.,-1.));
#1544=DIRECTION('',(0.866025403784439,0.499999999999999,0.));
#1545=DIRECTION('',(0.,0.,1.));
#1546=DIRECTION('center_axis',(1.,0.,0.));
#1547=DIRECTION('ref_axis',(0.,0.,-1.));
#1548=DIRECTION('',(0.,0.,-1.));
#1549=DIRECTION('',(0.,1.,0.));
#1550=DIRECTION('',(0.,0.,-1.));
#1551=DIRECTION('',(0.,-1.,0.));
#1552=DIRECTION('center_axis',(0.,1.,0.));
#1553=DIRECTION('ref_axis',(0.,0.,-1.));
#1554=DIRECTION('',(0.,0.,-1.));
#1555=DIRECTION('',(1.,0.,0.));
#1556=DIRECTION('',(1.,0.,0.));
#1557=DIRECTION('center_axis',(0.,1.,0.));
#1558=DIRECTION('ref_axis',(0.,0.,-1.));
#1559=DIRECTION('',(1.,0.,0.));
#1560=DIRECTION('',(1.,0.,0.));
#1561=DIRECTION('',(0.,0.,-1.));
#1562=DIRECTION('center_axis',(1.,0.,0.));
#1563=DIRECTION('ref_axis',(0.,0.,-1.));
#1564=DIRECTION('',(0.,1.,0.));
#1565=DIRECTION('',(0.,1.,0.));
#1566=DIRECTION('center_axis',(0.,0.,-1.));
#1567=DIRECTION('ref_axis',(1.,0.,0.));
#1568=DIRECTION('',(1.,0.,0.));
#1569=DIRECTION('',(1.,0.,0.));
#1570=DIRECTION('',(-0.866025403784439,0.499999999999999,0.));
#1571=DIRECTION('center_axis',(0.,0.,-1.));
#1572=DIRECTION('ref_axis',(1.,0.,0.));
#1573=DIRECTION('',(1.,0.,0.));
#1574=DIRECTION('',(0.866025403784439,-0.5,0.));
#1575=DIRECTION('',(1.,0.,0.));
#1576=DIRECTION('',(-0.866025403784439,-0.5,0.));
#1577=DIRECTION('center_axis',(0.,1.,0.));
#1578=DIRECTION('ref_axis',(0.,0.,-1.));
#1579=DIRECTION('',(0.,0.,-1.));
#1580=DIRECTION('center_axis',(0.,1.,0.));
#1581=DIRECTION('ref_axis',(0.,0.,-1.));
#1582=DIRECTION('',(1.,0.,0.));
#1583=DIRECTION('',(0.,0.,-1.));
#1584=DIRECTION('',(1.,0.,0.));
#1585=DIRECTION('',(0.,0.,-1.));
#1586=DIRECTION('',(0.,0.,1.));
#1587=DIRECTION('center_axis',(1.,0.,0.));
#1588=DIRECTION('ref_axis',(0.,0.,-1.));
#1589=DIRECTION('',(0.,-1.,0.));
#1590=DIRECTION('',(0.,0.,-1.));
#1591=DIRECTION('',(0.,1.,0.));
#1592=DIRECTION('center_axis',(0.,1.,0.));
#1593=DIRECTION('ref_axis',(0.,0.,-1.));
#1594=DIRECTION('',(0.,0.,-1.));
#1595=DIRECTION('',(0.,0.,-1.));
#1596=DIRECTION('center_axis',(0.,1.,0.));
#1597=DIRECTION('ref_axis',(0.,0.,-1.));
#1598=DIRECTION('',(1.,0.,0.));
#1599=DIRECTION('',(0.,0.,-1.));
#1600=DIRECTION('',(1.,0.,0.));
#1601=DIRECTION('',(0.,0.,-1.));
#1602=DIRECTION('',(0.,0.,-1.));
#1603=DIRECTION('center_axis',(1.,0.,0.));
#1604=DIRECTION('ref_axis',(0.,0.,-1.));
#1605=DIRECTION('',(0.,-1.,0.));
#1606=DIRECTION('',(0.,1.,0.));
#1607=DIRECTION('center_axis',(0.,0.,-1.));
#1608=DIRECTION('ref_axis',(1.,0.,0.));
#1609=DIRECTION('center_axis',(0.,0.,-1.));
#1610=DIRECTION('ref_axis',(1.,0.,0.));
#1611=DIRECTION('center_axis',(0.499999999999999,0.866025403784439,0.));
#1612=DIRECTION('ref_axis',(0.,0.,1.));
#1613=DIRECTION('center_axis',(-0.5,0.866025403784439,0.));
#1614=DIRECTION('ref_axis',(0.,0.,-1.));
#1615=DIRECTION('center_axis',(-0.5,-0.866025403784439,0.));
#1616=DIRECTION('ref_axis',(0.,0.,1.));
#1617=DIRECTION('',(0.,0.,1.));
#1618=DIRECTION('',(1.,0.,0.));
#1619=CARTESIAN_POINT('',(0.,0.,0.));
#1620=CARTESIAN_POINT('',(0.,0.,0.));
#1621=CARTESIAN_POINT('Origin',(-2.5400049999541E-5,2.54000510002683E-5,
-7.750050800102));
#1622=CARTESIAN_POINT('',(-1.20002537322791,-1.59997456418621,-7.750050800102));
#1623=CARTESIAN_POINT('',(-2.00002535534652,-2.71043511754108,-7.750050800102));
#1624=CARTESIAN_POINT('',(-2.00002535534652,-2.71043511754108,-7.750050800102));
#1625=CARTESIAN_POINT('',(-5.10002528605612,-2.71043511754108,-7.750050800102));
#1626=CARTESIAN_POINT('',(-7.28546958851813,-2.71043511754108,-7.750050800102));
#1627=CARTESIAN_POINT('',(-5.10002528605612,-4.09997450830686,-7.750050800102));
#1628=CARTESIAN_POINT('',(-5.10002528605612,-4.09997450830686,-7.750050800102));
#1629=CARTESIAN_POINT('',(-6.90002524582298,-4.09997450830686,-7.750050800102));
#1630=CARTESIAN_POINT('',(-6.90002524582298,-4.09997450830686,-7.750050800102));
#1631=CARTESIAN_POINT('',(-6.90002524582298,-6.1999744613682,-7.750050800102));
#1632=CARTESIAN_POINT('',(-6.90002524582298,-6.1999744613682,-7.750050800102));
#1633=CARTESIAN_POINT('',(-5.00002528829129,-6.1999744613682,-7.750050800102));
#1634=CARTESIAN_POINT('',(-5.00002528829129,-6.1999744613682,-7.750050800102));
#1635=CARTESIAN_POINT('',(-5.00002528829129,-6.94207899415799,-7.750050800102));
#1636=CARTESIAN_POINT('',(-5.00002528829129,-6.94207899415799,-7.750050800102));
#1637=CARTESIAN_POINT('',(4.05894081787999,-6.94207899415799,-7.750050800102));
#1638=CARTESIAN_POINT('',(-4.74105918212001,-6.94207899415799,-7.750050800102));
#1639=CARTESIAN_POINT('',(6.15894081787999,-4.84207899415799,-7.750050800102));
#1640=CARTESIAN_POINT('Origin',(4.05894081787999,-4.84207899415799,-7.750050800102));
#1641=CARTESIAN_POINT('',(6.15894081787999,-3.69997451724756,-7.750050800102));
#1642=CARTESIAN_POINT('',(6.15894081787999,-3.79997451501238,-7.750050800102));
#1643=CARTESIAN_POINT('',(8.09997441890089,-3.69997451724756,-7.750050800102));
#1644=CARTESIAN_POINT('',(6.15894081787999,-3.69997451724756,-7.750050800102));
#1645=CARTESIAN_POINT('',(8.09997441890089,-1.59997456418621,-7.750050800102));
#1646=CARTESIAN_POINT('',(8.09997441890089,-3.69997451724756,-7.750050800102));
#1647=CARTESIAN_POINT('',(6.15894081787999,-1.59997456418621,-7.750050800102));
#1648=CARTESIAN_POINT('',(8.09997441890089,-1.59997456418621,-7.750050800102));
#1649=CARTESIAN_POINT('',(6.15894081787999,2.54000510002683E-5,-7.750050800102));
#1650=CARTESIAN_POINT('',(6.15894081787999,-1.59997456418621,-7.750050800102));
#1651=CARTESIAN_POINT('',(5.95499107311682,2.54000510002683E-5,-7.750050800102));
#1652=CARTESIAN_POINT('',(6.15894081787999,2.54000510002683E-5,-7.750050800102));
#1653=CARTESIAN_POINT('',(4.20497844682315,2.54000510002683E-5,-7.750050800102));
#1654=CARTESIAN_POINT('Origin',(5.07998475996999,0.000279400559017873,-7.750050800102));
#1655=CARTESIAN_POINT('',(1.99997455524651,2.54000510002683E-5,-7.750050800102));
#1656=CARTESIAN_POINT('',(4.20497844682315,2.54000510002683E-5,-7.750050800102));
#1657=CARTESIAN_POINT('Origin',(-2.54000500123317E-5,2.54000510180319E-5,
-7.750050800102));
#1658=CARTESIAN_POINT('Origin',(-2.54000499999574E-5,2.54000510002683E-5,
-9.350050800102));
#1659=CARTESIAN_POINT('',(-9.00002540005,-8.999974599949,-9.350050800102));
#1660=CARTESIAN_POINT('',(-9.00002540005,9.000025400051,-9.350050800102));
#1661=CARTESIAN_POINT('',(-9.00002540005,-8.999974599949,-9.350050800102));
#1662=CARTESIAN_POINT('',(8.99997459995,9.000025400051,-9.350050800102));
#1663=CARTESIAN_POINT('',(-9.00002540005,9.000025400051,-9.350050800102));
#1664=CARTESIAN_POINT('',(8.99997459995,-8.999974599949,-9.350050800102));
#1665=CARTESIAN_POINT('',(8.99997459995,9.000025400051,-9.350050800102));
#1666=CARTESIAN_POINT('',(-9.00002540005,-8.999974599949,-9.350050800102));
#1667=CARTESIAN_POINT('Origin',(-3.70321294793194,6.22901192437546,-7.750050800102));
#1668=CARTESIAN_POINT('',(-3.70321294793194,5.292634666492,-6.750050800102));
#1669=CARTESIAN_POINT('',(-3.70321294793194,6.22901192437546,-6.750050800102));
#1670=CARTESIAN_POINT('',(-3.70321294793194,5.292634666492,-6.750050800102));
#1671=CARTESIAN_POINT('',(-3.70321294793194,5.292634666492,-6.000050800102));
#1672=CARTESIAN_POINT('',(-3.70321294793194,5.292634666492,-7.750050800102));
#1673=CARTESIAN_POINT('',(-3.70321294793194,6.22901192437546,-6.000050800102));
#1674=CARTESIAN_POINT('',(-3.70321294793194,5.292634666492,-6.000050800102));
#1675=CARTESIAN_POINT('',(-3.70321294793194,6.22901192437546,-7.750050800102));
#1676=CARTESIAN_POINT('Origin',(-3.70321294793194,5.292634666492,-7.750050800102));
#1677=CARTESIAN_POINT('',(-5.22127910843997,5.292634666492,-6.750050800102));
#1678=CARTESIAN_POINT('',(-5.22127910843997,5.292634666492,-6.750050800102));
#1679=CARTESIAN_POINT('',(-5.22127910843997,5.292634666492,-6.000050800102));
#1680=CARTESIAN_POINT('',(-5.22127910843997,5.292634666492,-7.750050800102));
#1681=CARTESIAN_POINT('',(-5.22127910843997,5.292634666492,-6.000050800102));
#1682=CARTESIAN_POINT('Origin',(3.09318262968449,3.48814737112511,-7.750050800102));
#1683=CARTESIAN_POINT('',(-3.23255026900561,3.48814737112511,-7.050050800102));
#1684=CARTESIAN_POINT('',(3.09318262968449,3.48814737112511,-7.050050800102));
#1685=CARTESIAN_POINT('',(-3.23255026900561,3.48814737112511,-7.050050800102));
#1686=CARTESIAN_POINT('',(-3.23255026900561,3.48814737112511,-6.000050800102));
#1687=CARTESIAN_POINT('',(-3.23255026900561,3.48814737112511,-7.750050800102));
#1688=CARTESIAN_POINT('',(3.09318262968449,3.48814737112511,-6.000050800102));
#1689=CARTESIAN_POINT('',(-3.23255026900561,3.48814737112511,-6.000050800102));
#1690=CARTESIAN_POINT('',(3.09318262968449,3.48814737112511,-7.750050800102));
#1691=CARTESIAN_POINT('Origin',(-3.23255026900561,3.48814737112511,-7.750050800102));
#1692=CARTESIAN_POINT('',(-3.23255026900561,6.66690762172315,-7.050050800102));
#1693=CARTESIAN_POINT('',(-3.23255026900561,6.66690762172315,-7.050050800102));
#1694=CARTESIAN_POINT('',(-3.23255026900561,6.66690762172315,-6.000050800102));
#1695=CARTESIAN_POINT('',(-3.23255026900561,6.66690762172315,-7.750050800102));
#1696=CARTESIAN_POINT('',(-3.23255026900561,6.66690762172315,-6.000050800102));
#1697=CARTESIAN_POINT('Origin',(-5.10002528605612,-2.71043511754108,-7.750050800102));
#1698=CARTESIAN_POINT('',(-7.28546958851813,-2.71043511754108,-7.150050800102));
#1699=CARTESIAN_POINT('',(-5.10002528605612,-2.71043511754108,-7.150050800102));
#1700=CARTESIAN_POINT('',(-7.28546958851813,-2.71043511754108,-7.150050800102));
#1701=CARTESIAN_POINT('',(-7.28546958851813,-2.71043511754108,-6.000050800102));
#1702=CARTESIAN_POINT('',(-7.28546958851813,-2.71043511754108,-7.750050800102));
#1703=CARTESIAN_POINT('',(-5.10002528605612,-2.71043511754108,-6.000050800102));
#1704=CARTESIAN_POINT('',(-7.28546958851813,-2.71043511754108,-6.000050800102));
#1705=CARTESIAN_POINT('',(-5.10002528605612,-2.71043511754108,-7.750050800102));
#1706=CARTESIAN_POINT('Origin',(-5.08003556006801,0.000279400559022314,
-7.750050800102));
#1707=CARTESIAN_POINT('',(-5.95504191008101,0.000279400559022314,-6.000050800102));
#1708=CARTESIAN_POINT('Origin',(-5.08003556006801,0.000279400559022314,
-6.000050800102));
#1709=CARTESIAN_POINT('',(-5.95504191008101,0.000279400559022314,-7.550050800102));
#1710=CARTESIAN_POINT('',(-5.95504191008101,0.000279400559022206,-7.750050800102));
#1711=CARTESIAN_POINT('Origin',(-5.08003556006801,0.000279400559022314,
-7.550050800102));
#1712=CARTESIAN_POINT('Origin',(-5.22127910843997,6.22901192437546,-7.750050800102));
#1713=CARTESIAN_POINT('',(-5.22127910843997,6.22901192437546,-6.750050800102));
#1714=CARTESIAN_POINT('',(-3.70321294793194,6.22901192437546,-6.750050800102));
#1715=CARTESIAN_POINT('',(-5.22127910843997,6.22901192437546,-6.000050800102));
#1716=CARTESIAN_POINT('',(-3.70321294793194,6.22901192437546,-6.000050800102));
#1717=CARTESIAN_POINT('',(-5.22127910843997,6.22901192437546,-7.750050800102));
#1718=CARTESIAN_POINT('Origin',(-5.22127910843997,5.292634666492,-7.750050800102));
#1719=CARTESIAN_POINT('',(-5.22127910843997,6.22901192437546,-6.750050800102));
#1720=CARTESIAN_POINT('',(-5.22127910843997,6.22901192437546,-6.000050800102));
#1721=CARTESIAN_POINT('Origin',(3.09318262968449,6.66690762172315,-7.750050800102));
#1722=CARTESIAN_POINT('',(3.09318262968449,6.66690762172315,-7.050050800102));
#1723=CARTESIAN_POINT('',(3.09318262968449,3.48814737112511,-7.050050800102));
#1724=CARTESIAN_POINT('',(3.09318262968449,6.66690762172315,-6.000050800102));
#1725=CARTESIAN_POINT('',(3.09318262968449,3.48814737112511,-6.000050800102));
#1726=CARTESIAN_POINT('',(3.09318262968449,6.66690762172315,-7.750050800102));
#1727=CARTESIAN_POINT('Origin',(-3.23255026900561,6.66690762172315,-7.750050800102));
#1728=CARTESIAN_POINT('',(3.09318262968449,6.66690762172315,-7.050050800102));
#1729=CARTESIAN_POINT('',(3.09318262968449,6.66690762172315,-6.000050800102));
#1730=CARTESIAN_POINT('Origin',(-4.26389793707001,-1.00979838347113,-7.750050800102));
#1731=CARTESIAN_POINT('',(-4.26389793707001,-2.71043511754108,-7.150050800102));
#1732=CARTESIAN_POINT('',(-4.26389793707001,-1.00979838347113,-7.150050800102));
#1733=CARTESIAN_POINT('',(-4.26389793707001,-2.71043511754108,-7.150050800102));
#1734=CARTESIAN_POINT('',(-4.26389793707001,-2.71043511754108,-6.000050800102));
#1735=CARTESIAN_POINT('',(-4.26389793707001,-2.71043511754108,-7.750050800102));
#1736=CARTESIAN_POINT('',(-4.26389793707001,-1.00979838347113,-6.000050800102));
#1737=CARTESIAN_POINT('',(-4.26389793707001,-2.71043511754108,-6.000050800102));
#1738=CARTESIAN_POINT('',(-4.26389793707001,-1.00979838347113,-7.750050800102));
#1739=CARTESIAN_POINT('Origin',(-7.28546958851813,-1.00979838347113,-7.750050800102));
#1740=CARTESIAN_POINT('',(-7.28546958851813,-1.00979838347113,-7.150050800102));
#1741=CARTESIAN_POINT('',(-4.26389793707001,-1.00979838347113,-7.150050800102));
#1742=CARTESIAN_POINT('',(-7.28546958851813,-1.00979838347113,-6.000050800102));
#1743=CARTESIAN_POINT('',(-4.26389793707001,-1.00979838347113,-6.000050800102));
#1744=CARTESIAN_POINT('',(-7.28546958851813,-1.00979838347113,-7.750050800102));
#1745=CARTESIAN_POINT('Origin',(-7.28546958851813,-2.71043511754108,-7.750050800102));
#1746=CARTESIAN_POINT('',(-7.28546958851813,-1.00979838347113,-7.150050800102));
#1747=CARTESIAN_POINT('',(-7.28546958851813,-1.00979838347113,-6.000050800102));
#1748=CARTESIAN_POINT('Origin',(-5.10002528605612,-4.09997450830686,-7.750050800102));
#1749=CARTESIAN_POINT('',(-5.10002528605612,-2.71043511754108,-7.750050800102));
#1750=CARTESIAN_POINT('',(-5.10002528605612,-4.09997450830686,-6.000050800102));
#1751=CARTESIAN_POINT('',(-5.10002528605612,-4.09997450830686,-6.000050800102));
#1752=CARTESIAN_POINT('',(-5.10002528605612,-4.09997450830686,-7.750050800102));
#1753=CARTESIAN_POINT('Origin',(-6.90002524582298,-4.09997450830686,-7.750050800102));
#1754=CARTESIAN_POINT('',(-6.90002524582298,-4.09997450830686,-6.000050800102));
#1755=CARTESIAN_POINT('',(-6.90002524582298,-4.09997450830686,-6.000050800102));
#1756=CARTESIAN_POINT('',(-6.90002524582298,-4.09997450830686,-7.750050800102));
#1757=CARTESIAN_POINT('Origin',(-6.90002524582298,-6.1999744613682,-7.750050800102));
#1758=CARTESIAN_POINT('',(-6.90002524582298,-6.1999744613682,-6.000050800102));
#1759=CARTESIAN_POINT('',(-6.90002524582298,-6.1999744613682,-6.000050800102));
#1760=CARTESIAN_POINT('',(-6.90002524582298,-6.1999744613682,-7.750050800102));
#1761=CARTESIAN_POINT('Origin',(-5.00002528829129,-6.1999744613682,-7.750050800102));
#1762=CARTESIAN_POINT('',(-5.00002528829129,-6.1999744613682,-6.000050800102));
#1763=CARTESIAN_POINT('',(-5.00002528829129,-6.1999744613682,-6.000050800102));
#1764=CARTESIAN_POINT('',(-5.00002528829129,-6.1999744613682,-7.750050800102));
#1765=CARTESIAN_POINT('Origin',(-5.00002528829129,-6.94207899415799,-7.750050800102));
#1766=CARTESIAN_POINT('',(-5.00002528829129,-6.94207899415799,-6.000050800102));
#1767=CARTESIAN_POINT('',(-5.00002528829129,-6.94207899415799,-6.000050800102));
#1768=CARTESIAN_POINT('',(-5.00002528829129,-6.94207899415799,-7.750050800102));
#1769=CARTESIAN_POINT('Origin',(4.05894081787999,-6.94207899415799,-7.750050800102));
#1770=CARTESIAN_POINT('',(4.05894081787999,-6.94207899415799,-6.000050800102));
#1771=CARTESIAN_POINT('',(-4.74105918212001,-6.94207899415799,-6.000050800102));
#1772=CARTESIAN_POINT('',(4.05894081787999,-6.94207899415799,-7.750050800102));
#1773=CARTESIAN_POINT('Origin',(4.05894081787999,-4.84207899415799,-7.750050800102));
#1774=CARTESIAN_POINT('',(6.15894081787999,-4.84207899415799,-6.000050800102));
#1775=CARTESIAN_POINT('Origin',(4.05894081787999,-4.84207899415799,-6.000050800102));
#1776=CARTESIAN_POINT('',(6.15894081787999,-4.84207899415799,-7.750050800102));
#1777=CARTESIAN_POINT('Origin',(6.15894081787999,-3.69997451724756,-7.750050800102));
#1778=CARTESIAN_POINT('',(6.15894081787999,-3.69997451724756,-6.000050800102));
#1779=CARTESIAN_POINT('',(6.15894081787999,-3.79997451501238,-6.000050800102));
#1780=CARTESIAN_POINT('',(6.15894081787999,-3.69997451724756,-7.750050800102));
#1781=CARTESIAN_POINT('Origin',(8.09997441890089,-3.69997451724756,-7.750050800102));
#1782=CARTESIAN_POINT('',(8.09997441890089,-3.69997451724756,-6.000050800102));
#1783=CARTESIAN_POINT('',(6.15894081787999,-3.69997451724756,-6.000050800102));
#1784=CARTESIAN_POINT('',(8.09997441890089,-3.69997451724756,-7.750050800102));
#1785=CARTESIAN_POINT('Origin',(8.09997441890089,-1.59997456418621,-7.750050800102));
#1786=CARTESIAN_POINT('',(8.09997441890089,-1.59997456418621,-6.000050800102));
#1787=CARTESIAN_POINT('',(8.09997441890089,-3.69997451724756,-6.000050800102));
#1788=CARTESIAN_POINT('',(8.09997441890089,-1.59997456418621,-7.750050800102));
#1789=CARTESIAN_POINT('Origin',(6.15894081787999,-1.59997456418621,-7.750050800102));
#1790=CARTESIAN_POINT('',(6.15894081787999,-1.59997456418621,-6.000050800102));
#1791=CARTESIAN_POINT('',(8.09997441890089,-1.59997456418621,-6.000050800102));
#1792=CARTESIAN_POINT('',(6.15894081787999,-1.59997456418621,-7.750050800102));
#1793=CARTESIAN_POINT('Origin',(6.15894081787999,2.54000510002683E-5,-7.750050800102));
#1794=CARTESIAN_POINT('',(6.15894081787999,2.54000510002683E-5,-6.000050800102));
#1795=CARTESIAN_POINT('',(6.15894081787999,-1.59997456418621,-6.000050800102));
#1796=CARTESIAN_POINT('',(6.15894081787999,2.54000510002683E-5,-7.750050800102));
#1797=CARTESIAN_POINT('Origin',(5.95499107311682,2.54000510002683E-5,-7.750050800102));
#1798=CARTESIAN_POINT('',(5.95499107311682,2.54000510002683E-5,-6.000050800102));
#1799=CARTESIAN_POINT('',(6.15894081787999,2.54000510002683E-5,-6.000050800102));
#1800=CARTESIAN_POINT('',(5.95499107311682,2.54000510002683E-5,-7.550050800102));
#1801=CARTESIAN_POINT('',(5.95499107311682,2.54000510002683E-5,-7.750050800102));
#1802=CARTESIAN_POINT('',(5.95499107311682,2.54000510002683E-5,-7.750050800102));
#1803=CARTESIAN_POINT('Origin',(5.07998475996999,0.000279400559017873,-7.750050800102));
#1804=CARTESIAN_POINT('',(4.20497844682315,2.54000510002683E-5,-7.550050800102));
#1805=CARTESIAN_POINT('Origin',(5.07998475996999,0.000279400559017873,-7.550050800102));
#1806=CARTESIAN_POINT('',(4.20497844682315,2.54000510002683E-5,-6.000050800102));
#1807=CARTESIAN_POINT('Origin',(5.07998475996999,0.000279400559017873,-6.000050800102));
#1808=CARTESIAN_POINT('',(4.20497844682315,2.54000510002683E-5,-7.750050800102));
#1809=CARTESIAN_POINT('Origin',(1.99997455524651,2.54000510002683E-5,-7.750050800102));
#1810=CARTESIAN_POINT('',(4.20497844682316,2.54000510002683E-5,-7.750050800102));
#1811=CARTESIAN_POINT('',(1.99997455524651,2.54000510002683E-5,-6.000050800102));
#1812=CARTESIAN_POINT('',(4.20497844682315,2.54000510002683E-5,-6.000050800102));
#1813=CARTESIAN_POINT('',(1.99997459994999,2.54000510002683E-5,-7.550050800102));
#1814=CARTESIAN_POINT('',(1.99997455524651,2.54000510002683E-5,-7.750050800102));
#1815=CARTESIAN_POINT('',(1.99997459994999,2.54000510002683E-5,-7.750050800102));
#1816=CARTESIAN_POINT('Origin',(-2.54000500123317E-5,2.54000510180319E-5,
-7.750050800102));
#1817=CARTESIAN_POINT('',(-1.20002537322791,-1.59997456418621,-7.550050800102));
#1818=CARTESIAN_POINT('Origin',(-2.54000500123317E-5,2.54000510180319E-5,
-7.550050800102));
#1819=CARTESIAN_POINT('',(-1.20002537322791,-1.59997456418621,-6.000050800102));
#1820=CARTESIAN_POINT('Origin',(-2.54000500123317E-5,2.54000510180319E-5,
-6.000050800102));
#1821=CARTESIAN_POINT('',(-1.20002537322791,-1.59997456418621,-7.750050800102));
#1822=CARTESIAN_POINT('Origin',(-2.00002535534652,-2.71043511754108,-7.750050800102));
#1823=CARTESIAN_POINT('',(-1.20002539936326,-1.59997460046405,-7.750050800102));
#1824=CARTESIAN_POINT('',(-2.00002535534652,-2.71043511754108,-6.000050800102));
#1825=CARTESIAN_POINT('',(-2.00002535534652,-2.71043511754108,-6.000050800102));
#1826=CARTESIAN_POINT('',(-2.00002535534652,-2.71043511754108,-7.750050800102));
#1827=CARTESIAN_POINT('Origin',(8.99997459995,9.000025400051,-7.750050800102));
#1828=CARTESIAN_POINT('',(-9.00002540005,9.000025400051,-6.000050800102));
#1829=CARTESIAN_POINT('',(-9.00002540005,9.000025400051,-7.750050800102));
#1830=CARTESIAN_POINT('',(8.99997459995,9.000025400051,-6.000050800102));
#1831=CARTESIAN_POINT('',(-9.00002540005,9.000025400051,-6.000050800102));
#1832=CARTESIAN_POINT('',(8.99997459995,9.000025400051,-7.750050800102));
#1833=CARTESIAN_POINT('Origin',(8.99997459995,-8.999974599949,-7.750050800102));
#1834=CARTESIAN_POINT('',(8.99997459995,-8.999974599949,-6.000050800102));
#1835=CARTESIAN_POINT('',(8.99997459995,9.000025400051,-6.000050800102));
#1836=CARTESIAN_POINT('',(8.99997459995,-8.999974599949,-7.750050800102));
#1837=CARTESIAN_POINT('Origin',(-9.00002540005,-8.999974599949,-7.750050800102));
#1838=CARTESIAN_POINT('',(-9.00002540005,-8.999974599949,-6.000050800102));
#1839=CARTESIAN_POINT('',(-9.00002540005,-8.999974599949,-6.000050800102));
#1840=CARTESIAN_POINT('',(-9.00002540005,-8.999974599949,-7.750050800102));
#1841=CARTESIAN_POINT('Origin',(-9.00002540005,9.000025400051,-7.750050800102));
#1842=CARTESIAN_POINT('',(-9.00002540005,-8.999974599949,-6.000050800102));
#1843=CARTESIAN_POINT('Origin',(-2.5400049999541E-5,2.54000510002683E-5,
-6.000050800102));
#1844=CARTESIAN_POINT('',(-4.26389793707001,-2.71043511754108,-6.000050800102));
#1845=CARTESIAN_POINT('Origin',(-7.28546958851813,-2.71043511754108,-7.750050800102));
#1846=CARTESIAN_POINT('',(-7.28546958851813,-2.71043511754108,-7.150050800102));
#1847=CARTESIAN_POINT('Origin',(-5.77468376279407,-1.86011675050611,-7.150050800102));
#1848=CARTESIAN_POINT('Origin',(5.07998475996999,0.000279400559017873,-7.750050800102));
#1849=CARTESIAN_POINT('Origin',(5.07998475996999,0.000279400559017873,-7.550050800102));
#1850=CARTESIAN_POINT('Origin',(5.07998475996999,0.000279400559017873,-7.550050800102));
#1851=CARTESIAN_POINT('Origin',(-2.54000500123317E-5,2.54000510180319E-5,
-7.750050800102));
#1852=CARTESIAN_POINT('Origin',(-2.54000500123317E-5,2.54000510180319E-5,
-7.550050800102));
#1853=CARTESIAN_POINT('Origin',(-2.54000500123086E-5,2.54000510180319E-5,
-7.550050800102));
#1854=CARTESIAN_POINT('Origin',(-0.0696838196605626,5.07752749642413,-7.050050800102));
#1855=CARTESIAN_POINT('Origin',(-5.08003556006801,0.000279400559022314,
-7.550050800102));
#1856=CARTESIAN_POINT('Origin',(-4.46224602818596,5.76082329543373,-6.750050800102));
#1857=CARTESIAN_POINT('Origin',(2.77555756156289E-16,-3.49999994039536,
-10.1621777232528));
#1858=CARTESIAN_POINT('',(3.88564046931321,-6.99999998673468,-4.09999992697955));
#1859=CARTESIAN_POINT('',(2.49999992593103,-7.7999999865442,-2.71435918063741));
#1860=CARTESIAN_POINT('',(3.7905270518497,-7.05491373829702,-4.00488640875947));
#1861=CARTESIAN_POINT('',(-3.88564046376933,-6.9999999881061,-4.09999992264282));
#1862=CARTESIAN_POINT('',(-1.65,-7.,-4.1));
#1863=CARTESIAN_POINT('',(-2.49999992593103,-7.7999999865442,-2.71435918063741));
#1864=CARTESIAN_POINT('',(-3.83201393838877,-7.03096127318585,-4.04637329529853));
#1865=CARTESIAN_POINT('',(-1.25,-7.8,-2.71435914746835));
#1866=CARTESIAN_POINT('Origin',(5.55111512312578E-16,3.49999994039535,-10.1621777232528));
#1867=CARTESIAN_POINT('',(2.49999992593103,7.79999998654421,-2.71435918063741));
#1868=CARTESIAN_POINT('',(3.88564046376933,6.9999999881061,-4.09999992264283));
#1869=CARTESIAN_POINT('',(3.83201393838876,7.03096127318586,-4.04637329529853));
#1870=CARTESIAN_POINT('',(-2.49999992593103,7.79999998654421,-2.71435918063741));
#1871=CARTESIAN_POINT('',(-1.25,7.8,-2.71435914746835));
#1872=CARTESIAN_POINT('',(-3.88564046376933,6.99999998810611,-4.09999992264283));
#1873=CARTESIAN_POINT('',(-3.7905270518497,7.05491373829703,-4.00488640875947));
#1874=CARTESIAN_POINT('',(1.65,7.,-4.1));
#1875=CARTESIAN_POINT('Origin',(-3.47979583281325,7.23431449125334,0.));
#1876=CARTESIAN_POINT('',(-2.49999994516647,7.7999999781522,-1.2));
#1877=CARTESIAN_POINT('',(-2.5,7.8,-1.5));
#1878=CARTESIAN_POINT('',(-3.88564043661369,7.,-1.2));
#1879=CARTESIAN_POINT('',(-6.36739696498575,5.56715720028128,-1.2));
#1880=CARTESIAN_POINT('',(-3.88564043661369,7.,0.));
#1881=CARTESIAN_POINT('Origin',(9.,-9.6,0.));
#1882=CARTESIAN_POINT('',(9.,9.,0.));
#1883=CARTESIAN_POINT('',(9.,9.,-4.7));
#1884=CARTESIAN_POINT('',(9.,9.,0.));
#1885=CARTESIAN_POINT('',(9.,-9.,0.));
#1886=CARTESIAN_POINT('',(9.,-9.6,0.));
#1887=CARTESIAN_POINT('',(9.,-9.,-4.7));
#1888=CARTESIAN_POINT('',(9.,-9.,0.));
#1889=CARTESIAN_POINT('',(9.,-9.6,-4.7));
#1890=CARTESIAN_POINT('Origin',(-9.6,9.,0.));
#1891=CARTESIAN_POINT('',(-9.,9.,0.));
#1892=CARTESIAN_POINT('',(-9.,9.,-4.7));
#1893=CARTESIAN_POINT('',(-9.,9.,0.));
#1894=CARTESIAN_POINT('',(-9.6,9.,0.));
#1895=CARTESIAN_POINT('',(-9.6,9.,-4.7));
#1896=CARTESIAN_POINT('Origin',(-9.6,-9.,0.));
#1897=CARTESIAN_POINT('',(-9.,-9.,-4.7));
#1898=CARTESIAN_POINT('',(-9.6,-9.,-4.7));
#1899=CARTESIAN_POINT('',(-9.,-9.,0.));
#1900=CARTESIAN_POINT('',(-9.6,-9.,0.));
#1901=CARTESIAN_POINT('',(-9.,-9.,0.));
#1902=CARTESIAN_POINT('Origin',(-9.,-9.6,0.));
#1903=CARTESIAN_POINT('',(-9.,-9.6,-4.7));
#1904=CARTESIAN_POINT('',(-9.,-9.6,0.));
#1905=CARTESIAN_POINT('Origin',(-2.5,-7.8,-1.2));
#1906=CARTESIAN_POINT('',(3.88564043661369,7.,-1.2));
#1907=CARTESIAN_POINT('',(-7.2,7.,-1.2));
#1908=CARTESIAN_POINT('',(2.49999994516647,7.7999999781522,-1.2));
#1909=CARTESIAN_POINT('',(-2.5,7.8,-1.2));
#1910=CARTESIAN_POINT('',(4.00249901642912,6.93253166748644,-1.2));
#1911=CARTESIAN_POINT('Origin',(-2.5,-7.8,-1.2));
#1912=CARTESIAN_POINT('',(-2.49999994516648,-7.7999999781522,-1.2));
#1913=CARTESIAN_POINT('',(2.49999994516647,-7.7999999781522,-1.2));
#1914=CARTESIAN_POINT('',(-2.5,-7.8,-1.2));
#1915=CARTESIAN_POINT('',(-3.88564043661368,-7.,-1.2));
#1916=CARTESIAN_POINT('',(-2.49999994166981,-7.79999991275589,-1.2));
#1917=CARTESIAN_POINT('',(3.88564043661369,-7.,-1.2));
#1918=CARTESIAN_POINT('',(-7.2,-7.,-1.2));
#1919=CARTESIAN_POINT('',(1.11489789022645,-8.59968895501182,-1.2));
#1920=CARTESIAN_POINT('Origin',(-2.5,7.8,-1.5));
#1921=CARTESIAN_POINT('',(2.5,7.8,-1.5));
#1922=CARTESIAN_POINT('Origin',(-7.2,7.,0.));
#1923=CARTESIAN_POINT('',(-7.,7.,-4.7));
#1924=CARTESIAN_POINT('',(7.,7.,-4.7));
#1925=CARTESIAN_POINT('',(-7.2,7.,-4.7));
#1926=CARTESIAN_POINT('',(7.,7.,0.));
#1927=CARTESIAN_POINT('',(7.,7.,0.));
#1928=CARTESIAN_POINT('',(-7.,7.,0.));
#1929=CARTESIAN_POINT('',(-7.2,7.,0.));
#1930=CARTESIAN_POINT('',(-7.,7.,0.));
#1931=CARTESIAN_POINT('',(3.88564043661369,7.,-0.75));
#1932=CARTESIAN_POINT('Origin',(7.,-7.2,0.));
#1933=CARTESIAN_POINT('',(7.,-7.,-4.7));
#1934=CARTESIAN_POINT('',(7.,-7.2,-4.7));
#1935=CARTESIAN_POINT('',(7.,-7.,0.));
#1936=CARTESIAN_POINT('',(7.,-7.,0.));
#1937=CARTESIAN_POINT('',(7.,-9.6,0.));
#1938=CARTESIAN_POINT('Origin',(-2.5,-7.8,-1.5));
#1939=CARTESIAN_POINT('',(-2.5,-7.8,-1.5));
#1940=CARTESIAN_POINT('',(2.5,-7.8,-1.5));
#1941=CARTESIAN_POINT('Origin',(-7.2,-7.,0.));
#1942=CARTESIAN_POINT('',(-7.,-7.,-4.7));
#1943=CARTESIAN_POINT('',(-7.2,-7.,-4.7));
#1944=CARTESIAN_POINT('',(-7.,-7.,0.));
#1945=CARTESIAN_POINT('',(-7.,-7.,0.));
#1946=CARTESIAN_POINT('',(-7.2,-7.,0.));
#1947=CARTESIAN_POINT('',(3.88564043661369,-7.,0.));
#1948=CARTESIAN_POINT('',(-3.88564043661368,-7.,-0.75));
#1949=CARTESIAN_POINT('Origin',(-7.,-7.2,0.));
#1950=CARTESIAN_POINT('',(-7.,-7.2,-4.7));
#1951=CARTESIAN_POINT('',(-7.,-9.6,0.));
#1952=CARTESIAN_POINT('Origin',(-9.6,-9.6,0.));
#1953=CARTESIAN_POINT('Origin',(-9.6,-9.6,-4.7));
#1954=CARTESIAN_POINT('Origin',(2.49999993569998,7.79999991620258,-1.5));
#1955=CARTESIAN_POINT('Origin',(3.47979583281325,-7.23431449125334,0.));
#1956=CARTESIAN_POINT('Origin',(-2.49999993569998,-7.79999991620258,-1.5));
#1957=CARTESIAN_POINT('',(0.,0.,0.));
#1958=UNCERTAINTY_MEASURE_WITH_UNIT(LENGTH_MEASURE(0.01),#1964,
'DISTANCE_ACCURACY_VALUE',
'Maximum model space distance between geometric entities at asserted c
onnectivities');
#1959=UNCERTAINTY_MEASURE_WITH_UNIT(LENGTH_MEASURE(0.01),#1964,
'DISTANCE_ACCURACY_VALUE',
'Maximum model space distance between geometric entities at asserted c
onnectivities');
#1960=UNCERTAINTY_MEASURE_WITH_UNIT(LENGTH_MEASURE(0.01),#1964,
'DISTANCE_ACCURACY_VALUE',
'Maximum model space distance between geometric entities at asserted c
onnectivities');
#1961=(
GEOMETRIC_REPRESENTATION_CONTEXT(3)
GLOBAL_UNCERTAINTY_ASSIGNED_CONTEXT((#1958))
GLOBAL_UNIT_ASSIGNED_CONTEXT((#1964,#1966,#1967))
REPRESENTATION_CONTEXT('','3D')
);
#1962=(
GEOMETRIC_REPRESENTATION_CONTEXT(3)
GLOBAL_UNCERTAINTY_ASSIGNED_CONTEXT((#1959))
GLOBAL_UNIT_ASSIGNED_CONTEXT((#1964,#1966,#1967))
REPRESENTATION_CONTEXT('','3D')
);
#1963=(
GEOMETRIC_REPRESENTATION_CONTEXT(3)
GLOBAL_UNCERTAINTY_ASSIGNED_CONTEXT((#1960))
GLOBAL_UNIT_ASSIGNED_CONTEXT((#1964,#1966,#1967))
REPRESENTATION_CONTEXT('','3D')
);
#1964=(
LENGTH_UNIT()
NAMED_UNIT(*)
SI_UNIT(.MILLI.,.METRE.)
);
#1965=(
LENGTH_UNIT()
NAMED_UNIT(*)
SI_UNIT($,.METRE.)
);
#1966=(
NAMED_UNIT(*)
PLANE_ANGLE_UNIT()
SI_UNIT($,.RADIAN.)
);
#1967=(
NAMED_UNIT(*)
SI_UNIT($,.STERADIAN.)
SOLID_ANGLE_UNIT()
);
#1968=SHAPE_DEFINITION_REPRESENTATION(#1970,#1973);
#1969=SHAPE_DEFINITION_REPRESENTATION(#1971,#1974);
#1970=PRODUCT_DEFINITION_SHAPE('',$,#1976);
#1971=PRODUCT_DEFINITION_SHAPE('',$,#1977);
#1972=PRODUCT_DEFINITION_SHAPE($,$,#14);
#1973=SHAPE_REPRESENTATION('',(#1225,#1305),#1961);
#1974=SHAPE_REPRESENTATION('',(#1226),#1962);
#1975=PRODUCT_DEFINITION_CONTEXT('part definition',#1983,'design');
#1976=PRODUCT_DEFINITION('2025-10-30-23-20-08-347',
'22mm midplate sockets',#1978,#1975);
#1977=PRODUCT_DEFINITION('2025-10-30-21-26-47-988','Norm MX 22mm',#1979,
#1975);
#1978=PRODUCT_DEFINITION_FORMATION('',$,#1985);
#1979=PRODUCT_DEFINITION_FORMATION('',$,#1986);
#1980=PRODUCT_RELATED_PRODUCT_CATEGORY('22mm midplate sockets',
'22mm midplate sockets',(#1985));
#1981=PRODUCT_RELATED_PRODUCT_CATEGORY('Norm MX 22mm','Norm MX 22mm',(#1986));
#1982=APPLICATION_PROTOCOL_DEFINITION('international standard',
'automotive_design',2009,#1983);
#1983=APPLICATION_CONTEXT(
'Core Data for Automotive Mechanical Design Process');
#1984=PRODUCT_CONTEXT('part definition',#1983,'mechanical');
#1985=PRODUCT('2025-10-30-23-20-08-347','22mm midplate sockets',$,(#1984));
#1986=PRODUCT('2025-10-30-21-26-47-988','Norm MX 22mm',$,(#1984));
#1987=PRESENTATION_STYLE_ASSIGNMENT((#1989));
#1988=PRESENTATION_STYLE_ASSIGNMENT((#1990));
#1989=SURFACE_STYLE_USAGE(.BOTH.,#1991);
#1990=SURFACE_STYLE_USAGE(.BOTH.,#1992);
#1991=SURFACE_SIDE_STYLE('',(#1993));
#1992=SURFACE_SIDE_STYLE('',(#1994));
#1993=SURFACE_STYLE_FILL_AREA(#1995);
#1994=SURFACE_STYLE_FILL_AREA(#1996);
#1995=FILL_AREA_STYLE('Steel - Satin',(#1997));
#1996=FILL_AREA_STYLE('Opaque(234,234,234)',(#1998));
#1997=FILL_AREA_STYLE_COLOUR('Steel - Satin',#1999);
#1998=FILL_AREA_STYLE_COLOUR('Opaque(234,234,234)',#2000);
#1999=COLOUR_RGB('Steel - Satin',0.627450980392157,0.627450980392157,0.627450980392157);
#2000=COLOUR_RGB('Opaque(234,234,234)',0.917647058823529,0.917647058823529,
0.917647058823529);
ENDSEC;
END-ISO-10303-21;
