ISO-10303-21;
HEADER;
/* Generated by software containing ST-Developer
 * from STEP Tools, Inc. (www.steptools.com) 
 */

FILE_DESCRIPTION(
/* description */ (''),
/* implementation_level */ '2;1');

FILE_NAME(
/* name */ 'oled-skree-skreen.step',
/* time_stamp */ '2026-01-02T22:47:09-05:00',
/* author */ (''),
/* organization */ (''),
/* preprocessor_version */ 'ST-DEVELOPER v20.1',
/* originating_system */ 'Autodesk Translation Framework v14.21.0.0',
/* authorisation */ '');

FILE_SCHEMA (('AUTOMOTIVE_DESIGN { 1 0 10303 214 3 1 1 }'));
ENDSEC;

DATA;
#10=MECHANICAL_DESIGN_GEOMETRIC_PRESENTATION_REPRESENTATION('',(#13),#629);
#11=SHAPE_REPRESENTATION_RELATIONSHIP('SRR','None',#636,#12);
#12=ADVANCED_BREP_SHAPE_REPRESENTATION('',(#14),#628);
#13=STYLED_ITEM('',(#645),#14);
#14=MANIFOLD_SOLID_BREP('Body3',#389);
#15=CYLINDRICAL_SURFACE('',#417,1.3);
#16=FACE_BOUND('',#51,.T.);
#17=FACE_BOUND('',#52,.T.);
#18=FACE_BOUND('',#54,.T.);
#19=FACE_BOUND('',#64,.T.);
#20=FACE_BOUND('',#65,.T.);
#21=CIRCLE('',#410,1.3);
#22=CIRCLE('',#418,1.3);
#23=FACE_OUTER_BOUND('',#44,.T.);
#24=FACE_OUTER_BOUND('',#45,.T.);
#25=FACE_OUTER_BOUND('',#46,.T.);
#26=FACE_OUTER_BOUND('',#47,.T.);
#27=FACE_OUTER_BOUND('',#48,.T.);
#28=FACE_OUTER_BOUND('',#49,.T.);
#29=FACE_OUTER_BOUND('',#50,.T.);
#30=FACE_OUTER_BOUND('',#53,.T.);
#31=FACE_OUTER_BOUND('',#55,.T.);
#32=FACE_OUTER_BOUND('',#56,.T.);
#33=FACE_OUTER_BOUND('',#57,.T.);
#34=FACE_OUTER_BOUND('',#58,.T.);
#35=FACE_OUTER_BOUND('',#59,.T.);
#36=FACE_OUTER_BOUND('',#60,.T.);
#37=FACE_OUTER_BOUND('',#61,.T.);
#38=FACE_OUTER_BOUND('',#62,.T.);
#39=FACE_OUTER_BOUND('',#63,.T.);
#40=FACE_OUTER_BOUND('',#66,.T.);
#41=FACE_OUTER_BOUND('',#67,.T.);
#42=FACE_OUTER_BOUND('',#68,.T.);
#43=FACE_OUTER_BOUND('',#69,.T.);
#44=EDGE_LOOP('',(#248,#249,#250,#251));
#45=EDGE_LOOP('',(#252,#253,#254,#255));
#46=EDGE_LOOP('',(#256,#257,#258,#259));
#47=EDGE_LOOP('',(#260,#261,#262,#263));
#48=EDGE_LOOP('',(#264,#265,#266,#267));
#49=EDGE_LOOP('',(#268,#269,#270,#271));
#50=EDGE_LOOP('',(#272,#273,#274,#275));
#51=EDGE_LOOP('',(#276,#277));
#52=EDGE_LOOP('',(#278,#279,#280,#281));
#53=EDGE_LOOP('',(#282,#283,#284,#285));
#54=EDGE_LOOP('',(#286,#287,#288,#289));
#55=EDGE_LOOP('',(#290,#291,#292,#293));
#56=EDGE_LOOP('',(#294,#295,#296,#297));
#57=EDGE_LOOP('',(#298,#299,#300,#301));
#58=EDGE_LOOP('',(#302,#303,#304,#305));
#59=EDGE_LOOP('',(#306,#307,#308,#309));
#60=EDGE_LOOP('',(#310,#311,#312,#313));
#61=EDGE_LOOP('',(#314,#315,#316,#317));
#62=EDGE_LOOP('',(#318,#319,#320,#321));
#63=EDGE_LOOP('',(#322,#323,#324,#325));
#64=EDGE_LOOP('',(#326,#327,#328,#329));
#65=EDGE_LOOP('',(#330,#331));
#66=EDGE_LOOP('',(#332,#333,#334,#335));
#67=EDGE_LOOP('',(#336,#337,#338,#339));
#68=EDGE_LOOP('',(#340,#341,#342,#343));
#69=EDGE_LOOP('',(#344,#345,#346,#347));
#70=LINE('',#526,#118);
#71=LINE('',#528,#119);
#72=LINE('',#530,#120);
#73=LINE('',#531,#121);
#74=LINE('',#534,#122);
#75=LINE('',#536,#123);
#76=LINE('',#537,#124);
#77=LINE('',#540,#125);
#78=LINE('',#542,#126);
#79=LINE('',#543,#127);
#80=LINE('',#545,#128);
#81=LINE('',#546,#129);
#82=LINE('',#549,#130);
#83=LINE('',#551,#131);
#84=LINE('',#552,#132);
#85=LINE('',#555,#133);
#86=LINE('',#556,#134);
#87=LINE('',#560,#135);
#88=LINE('',#562,#136);
#89=LINE('',#564,#137);
#90=LINE('',#565,#138);
#91=LINE('',#569,#139);
#92=LINE('',#573,#140);
#93=LINE('',#575,#141);
#94=LINE('',#577,#142);
#95=LINE('',#578,#143);
#96=LINE('',#581,#144);
#97=LINE('',#583,#145);
#98=LINE('',#585,#146);
#99=LINE('',#586,#147);
#100=LINE('',#589,#148);
#101=LINE('',#591,#149);
#102=LINE('',#592,#150);
#103=LINE('',#595,#151);
#104=LINE('',#596,#152);
#105=LINE('',#598,#153);
#106=LINE('',#599,#154);
#107=LINE('',#601,#155);
#108=LINE('',#605,#156);
#109=LINE('',#606,#157);
#110=LINE('',#607,#158);
#111=LINE('',#612,#159);
#112=LINE('',#613,#160);
#113=LINE('',#615,#161);
#114=LINE('',#618,#162);
#115=LINE('',#619,#163);
#116=LINE('',#621,#164);
#117=LINE('',#624,#165);
#118=VECTOR('',#430,10.);
#119=VECTOR('',#431,10.);
#120=VECTOR('',#432,10.);
#121=VECTOR('',#433,10.);
#122=VECTOR('',#436,10.);
#123=VECTOR('',#437,10.);
#124=VECTOR('',#438,10.);
#125=VECTOR('',#441,10.);
#126=VECTOR('',#442,10.);
#127=VECTOR('',#443,10.);
#128=VECTOR('',#446,10.);
#129=VECTOR('',#447,10.);
#130=VECTOR('',#450,10.);
#131=VECTOR('',#451,10.);
#132=VECTOR('',#452,10.);
#133=VECTOR('',#455,10.);
#134=VECTOR('',#456,10.);
#135=VECTOR('',#459,10.);
#136=VECTOR('',#460,10.);
#137=VECTOR('',#461,10.);
#138=VECTOR('',#462,10.);
#139=VECTOR('',#465,10.);
#140=VECTOR('',#468,10.);
#141=VECTOR('',#469,10.);
#142=VECTOR('',#470,10.);
#143=VECTOR('',#471,10.);
#144=VECTOR('',#472,10.);
#145=VECTOR('',#473,10.);
#146=VECTOR('',#474,10.);
#147=VECTOR('',#475,10.);
#148=VECTOR('',#478,10.);
#149=VECTOR('',#479,10.);
#150=VECTOR('',#480,10.);
#151=VECTOR('',#483,10.);
#152=VECTOR('',#484,10.);
#153=VECTOR('',#487,10.);
#154=VECTOR('',#488,10.);
#155=VECTOR('',#491,10.);
#156=VECTOR('',#494,10.);
#157=VECTOR('',#495,10.);
#158=VECTOR('',#496,10.);
#159=VECTOR('',#503,10.);
#160=VECTOR('',#504,10.);
#161=VECTOR('',#507,10.);
#162=VECTOR('',#510,10.);
#163=VECTOR('',#511,10.);
#164=VECTOR('',#514,10.);
#165=VECTOR('',#519,10.);
#166=VERTEX_POINT('',#524);
#167=VERTEX_POINT('',#525);
#168=VERTEX_POINT('',#527);
#169=VERTEX_POINT('',#529);
#170=VERTEX_POINT('',#533);
#171=VERTEX_POINT('',#535);
#172=VERTEX_POINT('',#539);
#173=VERTEX_POINT('',#541);
#174=VERTEX_POINT('',#548);
#175=VERTEX_POINT('',#550);
#176=VERTEX_POINT('',#554);
#177=VERTEX_POINT('',#558);
#178=VERTEX_POINT('',#559);
#179=VERTEX_POINT('',#561);
#180=VERTEX_POINT('',#563);
#181=VERTEX_POINT('',#566);
#182=VERTEX_POINT('',#567);
#183=VERTEX_POINT('',#571);
#184=VERTEX_POINT('',#572);
#185=VERTEX_POINT('',#574);
#186=VERTEX_POINT('',#576);
#187=VERTEX_POINT('',#579);
#188=VERTEX_POINT('',#580);
#189=VERTEX_POINT('',#582);
#190=VERTEX_POINT('',#584);
#191=VERTEX_POINT('',#588);
#192=VERTEX_POINT('',#590);
#193=VERTEX_POINT('',#594);
#194=VERTEX_POINT('',#603);
#195=VERTEX_POINT('',#604);
#196=VERTEX_POINT('',#611);
#197=VERTEX_POINT('',#617);
#198=EDGE_CURVE('',#166,#167,#70,.T.);
#199=EDGE_CURVE('',#167,#168,#71,.T.);
#200=EDGE_CURVE('',#168,#169,#72,.T.);
#201=EDGE_CURVE('',#166,#169,#73,.T.);
#202=EDGE_CURVE('',#167,#170,#74,.T.);
#203=EDGE_CURVE('',#170,#171,#75,.T.);
#204=EDGE_CURVE('',#171,#168,#76,.T.);
#205=EDGE_CURVE('',#170,#172,#77,.T.);
#206=EDGE_CURVE('',#172,#173,#78,.T.);
#207=EDGE_CURVE('',#173,#171,#79,.T.);
#208=EDGE_CURVE('',#169,#173,#80,.T.);
#209=EDGE_CURVE('',#172,#166,#81,.T.);
#210=EDGE_CURVE('',#174,#169,#82,.T.);
#211=EDGE_CURVE('',#174,#175,#83,.T.);
#212=EDGE_CURVE('',#175,#173,#84,.T.);
#213=EDGE_CURVE('',#176,#168,#85,.T.);
#214=EDGE_CURVE('',#176,#174,#86,.T.);
#215=EDGE_CURVE('',#177,#178,#87,.T.);
#216=EDGE_CURVE('',#178,#179,#88,.T.);
#217=EDGE_CURVE('',#179,#180,#89,.T.);
#218=EDGE_CURVE('',#180,#177,#90,.T.);
#219=EDGE_CURVE('',#181,#182,#21,.T.);
#220=EDGE_CURVE('',#182,#181,#91,.T.);
#221=EDGE_CURVE('',#183,#184,#92,.T.);
#222=EDGE_CURVE('',#185,#183,#93,.T.);
#223=EDGE_CURVE('',#186,#185,#94,.T.);
#224=EDGE_CURVE('',#184,#186,#95,.T.);
#225=EDGE_CURVE('',#187,#188,#96,.T.);
#226=EDGE_CURVE('',#189,#187,#97,.T.);
#227=EDGE_CURVE('',#190,#189,#98,.T.);
#228=EDGE_CURVE('',#188,#190,#99,.T.);
#229=EDGE_CURVE('',#191,#187,#100,.T.);
#230=EDGE_CURVE('',#191,#192,#101,.T.);
#231=EDGE_CURVE('',#189,#192,#102,.T.);
#232=EDGE_CURVE('',#188,#193,#103,.T.);
#233=EDGE_CURVE('',#193,#191,#104,.T.);
#234=EDGE_CURVE('',#177,#183,#105,.T.);
#235=EDGE_CURVE('',#185,#180,#106,.T.);
#236=EDGE_CURVE('',#184,#178,#107,.T.);
#237=EDGE_CURVE('',#194,#195,#108,.T.);
#238=EDGE_CURVE('',#195,#181,#109,.T.);
#239=EDGE_CURVE('',#194,#182,#110,.T.);
#240=EDGE_CURVE('',#195,#194,#22,.T.);
#241=EDGE_CURVE('',#196,#171,#111,.T.);
#242=EDGE_CURVE('',#196,#176,#112,.T.);
#243=EDGE_CURVE('',#175,#196,#113,.T.);
#244=EDGE_CURVE('',#197,#193,#114,.T.);
#245=EDGE_CURVE('',#192,#197,#115,.T.);
#246=EDGE_CURVE('',#190,#197,#116,.T.);
#247=EDGE_CURVE('',#186,#179,#117,.T.);
#248=ORIENTED_EDGE('',*,*,#198,.T.);
#249=ORIENTED_EDGE('',*,*,#199,.T.);
#250=ORIENTED_EDGE('',*,*,#200,.T.);
#251=ORIENTED_EDGE('',*,*,#201,.F.);
#252=ORIENTED_EDGE('',*,*,#202,.T.);
#253=ORIENTED_EDGE('',*,*,#203,.T.);
#254=ORIENTED_EDGE('',*,*,#204,.T.);
#255=ORIENTED_EDGE('',*,*,#199,.F.);
#256=ORIENTED_EDGE('',*,*,#205,.T.);
#257=ORIENTED_EDGE('',*,*,#206,.T.);
#258=ORIENTED_EDGE('',*,*,#207,.T.);
#259=ORIENTED_EDGE('',*,*,#203,.F.);
#260=ORIENTED_EDGE('',*,*,#208,.T.);
#261=ORIENTED_EDGE('',*,*,#206,.F.);
#262=ORIENTED_EDGE('',*,*,#209,.T.);
#263=ORIENTED_EDGE('',*,*,#201,.T.);
#264=ORIENTED_EDGE('',*,*,#208,.F.);
#265=ORIENTED_EDGE('',*,*,#210,.F.);
#266=ORIENTED_EDGE('',*,*,#211,.T.);
#267=ORIENTED_EDGE('',*,*,#212,.T.);
#268=ORIENTED_EDGE('',*,*,#200,.F.);
#269=ORIENTED_EDGE('',*,*,#213,.F.);
#270=ORIENTED_EDGE('',*,*,#214,.T.);
#271=ORIENTED_EDGE('',*,*,#210,.T.);
#272=ORIENTED_EDGE('',*,*,#215,.T.);
#273=ORIENTED_EDGE('',*,*,#216,.T.);
#274=ORIENTED_EDGE('',*,*,#217,.T.);
#275=ORIENTED_EDGE('',*,*,#218,.T.);
#276=ORIENTED_EDGE('',*,*,#219,.T.);
#277=ORIENTED_EDGE('',*,*,#220,.T.);
#278=ORIENTED_EDGE('',*,*,#198,.F.);
#279=ORIENTED_EDGE('',*,*,#209,.F.);
#280=ORIENTED_EDGE('',*,*,#205,.F.);
#281=ORIENTED_EDGE('',*,*,#202,.F.);
#282=ORIENTED_EDGE('',*,*,#221,.F.);
#283=ORIENTED_EDGE('',*,*,#222,.F.);
#284=ORIENTED_EDGE('',*,*,#223,.F.);
#285=ORIENTED_EDGE('',*,*,#224,.F.);
#286=ORIENTED_EDGE('',*,*,#225,.F.);
#287=ORIENTED_EDGE('',*,*,#226,.F.);
#288=ORIENTED_EDGE('',*,*,#227,.F.);
#289=ORIENTED_EDGE('',*,*,#228,.F.);
#290=ORIENTED_EDGE('',*,*,#226,.T.);
#291=ORIENTED_EDGE('',*,*,#229,.F.);
#292=ORIENTED_EDGE('',*,*,#230,.T.);
#293=ORIENTED_EDGE('',*,*,#231,.F.);
#294=ORIENTED_EDGE('',*,*,#225,.T.);
#295=ORIENTED_EDGE('',*,*,#232,.T.);
#296=ORIENTED_EDGE('',*,*,#233,.T.);
#297=ORIENTED_EDGE('',*,*,#229,.T.);
#298=ORIENTED_EDGE('',*,*,#222,.T.);
#299=ORIENTED_EDGE('',*,*,#234,.F.);
#300=ORIENTED_EDGE('',*,*,#218,.F.);
#301=ORIENTED_EDGE('',*,*,#235,.F.);
#302=ORIENTED_EDGE('',*,*,#221,.T.);
#303=ORIENTED_EDGE('',*,*,#236,.T.);
#304=ORIENTED_EDGE('',*,*,#215,.F.);
#305=ORIENTED_EDGE('',*,*,#234,.T.);
#306=ORIENTED_EDGE('',*,*,#237,.T.);
#307=ORIENTED_EDGE('',*,*,#238,.T.);
#308=ORIENTED_EDGE('',*,*,#220,.F.);
#309=ORIENTED_EDGE('',*,*,#239,.F.);
#310=ORIENTED_EDGE('',*,*,#240,.T.);
#311=ORIENTED_EDGE('',*,*,#239,.T.);
#312=ORIENTED_EDGE('',*,*,#219,.F.);
#313=ORIENTED_EDGE('',*,*,#238,.F.);
#314=ORIENTED_EDGE('',*,*,#204,.F.);
#315=ORIENTED_EDGE('',*,*,#241,.F.);
#316=ORIENTED_EDGE('',*,*,#242,.T.);
#317=ORIENTED_EDGE('',*,*,#213,.T.);
#318=ORIENTED_EDGE('',*,*,#207,.F.);
#319=ORIENTED_EDGE('',*,*,#212,.F.);
#320=ORIENTED_EDGE('',*,*,#243,.T.);
#321=ORIENTED_EDGE('',*,*,#241,.T.);
#322=ORIENTED_EDGE('',*,*,#233,.F.);
#323=ORIENTED_EDGE('',*,*,#244,.F.);
#324=ORIENTED_EDGE('',*,*,#245,.F.);
#325=ORIENTED_EDGE('',*,*,#230,.F.);
#326=ORIENTED_EDGE('',*,*,#214,.F.);
#327=ORIENTED_EDGE('',*,*,#242,.F.);
#328=ORIENTED_EDGE('',*,*,#243,.F.);
#329=ORIENTED_EDGE('',*,*,#211,.F.);
#330=ORIENTED_EDGE('',*,*,#240,.F.);
#331=ORIENTED_EDGE('',*,*,#237,.F.);
#332=ORIENTED_EDGE('',*,*,#227,.T.);
#333=ORIENTED_EDGE('',*,*,#231,.T.);
#334=ORIENTED_EDGE('',*,*,#245,.T.);
#335=ORIENTED_EDGE('',*,*,#246,.F.);
#336=ORIENTED_EDGE('',*,*,#228,.T.);
#337=ORIENTED_EDGE('',*,*,#246,.T.);
#338=ORIENTED_EDGE('',*,*,#244,.T.);
#339=ORIENTED_EDGE('',*,*,#232,.F.);
#340=ORIENTED_EDGE('',*,*,#224,.T.);
#341=ORIENTED_EDGE('',*,*,#247,.T.);
#342=ORIENTED_EDGE('',*,*,#216,.F.);
#343=ORIENTED_EDGE('',*,*,#236,.F.);
#344=ORIENTED_EDGE('',*,*,#223,.T.);
#345=ORIENTED_EDGE('',*,*,#235,.T.);
#346=ORIENTED_EDGE('',*,*,#217,.F.);
#347=ORIENTED_EDGE('',*,*,#247,.F.);
#348=PLANE('',#403);
#349=PLANE('',#404);
#350=PLANE('',#405);
#351=PLANE('',#406);
#352=PLANE('',#407);
#353=PLANE('',#408);
#354=PLANE('',#409);
#355=PLANE('',#411);
#356=PLANE('',#412);
#357=PLANE('',#413);
#358=PLANE('',#414);
#359=PLANE('',#415);
#360=PLANE('',#416);
#361=PLANE('',#419);
#362=PLANE('',#420);
#363=PLANE('',#421);
#364=PLANE('',#422);
#365=PLANE('',#423);
#366=PLANE('',#424);
#367=PLANE('',#425);
#368=ADVANCED_FACE('',(#23),#348,.T.);
#369=ADVANCED_FACE('',(#24),#349,.T.);
#370=ADVANCED_FACE('',(#25),#350,.T.);
#371=ADVANCED_FACE('',(#26),#351,.T.);
#372=ADVANCED_FACE('',(#27),#352,.T.);
#373=ADVANCED_FACE('',(#28),#353,.T.);
#374=ADVANCED_FACE('',(#29,#16,#17),#354,.T.);
#375=ADVANCED_FACE('',(#30,#18),#355,.F.);
#376=ADVANCED_FACE('',(#31),#356,.T.);
#377=ADVANCED_FACE('',(#32),#357,.T.);
#378=ADVANCED_FACE('',(#33),#358,.T.);
#379=ADVANCED_FACE('',(#34),#359,.T.);
#380=ADVANCED_FACE('',(#35),#360,.T.);
#381=ADVANCED_FACE('',(#36),#15,.F.);
#382=ADVANCED_FACE('',(#37),#361,.T.);
#383=ADVANCED_FACE('',(#38),#362,.T.);
#384=ADVANCED_FACE('',(#39,#19,#20),#363,.F.);
#385=ADVANCED_FACE('',(#40),#364,.T.);
#386=ADVANCED_FACE('',(#41),#365,.T.);
#387=ADVANCED_FACE('',(#42),#366,.T.);
#388=ADVANCED_FACE('',(#43),#367,.T.);
#389=CLOSED_SHELL('',(#368,#369,#370,#371,#372,#373,#374,#375,#376,#377,
#378,#379,#380,#381,#382,#383,#384,#385,#386,#387,#388));
#390=DERIVED_UNIT_ELEMENT(#392,1.);
#391=DERIVED_UNIT_ELEMENT(#631,-3.);
#392=(
MASS_UNIT()
NAMED_UNIT(*)
SI_UNIT(.KILO.,.GRAM.)
);
#393=DERIVED_UNIT((#390,#391));
#394=MEASURE_REPRESENTATION_ITEM('density measure',
POSITIVE_RATIO_MEASURE(7850.),#393);
#395=PROPERTY_DEFINITION_REPRESENTATION(#400,#397);
#396=PROPERTY_DEFINITION_REPRESENTATION(#401,#398);
#397=REPRESENTATION('material name',(#399),#628);
#398=REPRESENTATION('density',(#394),#628);
#399=DESCRIPTIVE_REPRESENTATION_ITEM('Steel','Steel');
#400=PROPERTY_DEFINITION('material property','material name',#638);
#401=PROPERTY_DEFINITION('material property','density of part',#638);
#402=AXIS2_PLACEMENT_3D('',#522,#426,#427);
#403=AXIS2_PLACEMENT_3D('',#523,#428,#429);
#404=AXIS2_PLACEMENT_3D('',#532,#434,#435);
#405=AXIS2_PLACEMENT_3D('',#538,#439,#440);
#406=AXIS2_PLACEMENT_3D('',#544,#444,#445);
#407=AXIS2_PLACEMENT_3D('',#547,#448,#449);
#408=AXIS2_PLACEMENT_3D('',#553,#453,#454);
#409=AXIS2_PLACEMENT_3D('',#557,#457,#458);
#410=AXIS2_PLACEMENT_3D('',#568,#463,#464);
#411=AXIS2_PLACEMENT_3D('',#570,#466,#467);
#412=AXIS2_PLACEMENT_3D('',#587,#476,#477);
#413=AXIS2_PLACEMENT_3D('',#593,#481,#482);
#414=AXIS2_PLACEMENT_3D('',#597,#485,#486);
#415=AXIS2_PLACEMENT_3D('',#600,#489,#490);
#416=AXIS2_PLACEMENT_3D('',#602,#492,#493);
#417=AXIS2_PLACEMENT_3D('',#608,#497,#498);
#418=AXIS2_PLACEMENT_3D('',#609,#499,#500);
#419=AXIS2_PLACEMENT_3D('',#610,#501,#502);
#420=AXIS2_PLACEMENT_3D('',#614,#505,#506);
#421=AXIS2_PLACEMENT_3D('',#616,#508,#509);
#422=AXIS2_PLACEMENT_3D('',#620,#512,#513);
#423=AXIS2_PLACEMENT_3D('',#622,#515,#516);
#424=AXIS2_PLACEMENT_3D('',#623,#517,#518);
#425=AXIS2_PLACEMENT_3D('',#625,#520,#521);
#426=DIRECTION('axis',(0.,0.,1.));
#427=DIRECTION('refdir',(1.,0.,0.));
#428=DIRECTION('center_axis',(0.707106781186548,0.,0.707106781186547));
#429=DIRECTION('ref_axis',(0.707106781186547,0.,-0.707106781186548));
#430=DIRECTION('',(0.,-1.,0.));
#431=DIRECTION('',(0.577350269189625,0.577350269189626,-0.577350269189626));
#432=DIRECTION('',(0.,1.,0.));
#433=DIRECTION('',(0.577350269189625,-0.577350269189628,-0.577350269189625));
#434=DIRECTION('center_axis',(0.,0.707106781186547,0.707106781186548));
#435=DIRECTION('ref_axis',(1.,0.,0.));
#436=DIRECTION('',(1.,0.,0.));
#437=DIRECTION('',(-0.577350269189625,0.577350269189626,-0.577350269189626));
#438=DIRECTION('',(-1.,0.,0.));
#439=DIRECTION('center_axis',(-0.707106781186548,0.,0.707106781186547));
#440=DIRECTION('ref_axis',(0.707106781186547,0.,0.707106781186548));
#441=DIRECTION('',(0.,1.,0.));
#442=DIRECTION('',(-0.577350269189625,-0.577350269189626,-0.577350269189626));
#443=DIRECTION('',(0.,-1.,0.));
#444=DIRECTION('center_axis',(0.,-0.707106781186547,0.707106781186548));
#445=DIRECTION('ref_axis',(1.,0.,0.));
#446=DIRECTION('',(1.,0.,0.));
#447=DIRECTION('',(-1.,0.,0.));
#448=DIRECTION('center_axis',(0.,-1.,0.));
#449=DIRECTION('ref_axis',(1.,0.,0.));
#450=DIRECTION('',(0.,0.,1.));
#451=DIRECTION('',(1.,0.,0.));
#452=DIRECTION('',(0.,0.,1.));
#453=DIRECTION('center_axis',(1.,0.,0.));
#454=DIRECTION('ref_axis',(0.,1.,0.));
#455=DIRECTION('',(0.,0.,1.));
#456=DIRECTION('',(0.,1.,0.));
#457=DIRECTION('center_axis',(0.,0.,1.));
#458=DIRECTION('ref_axis',(1.,0.,0.));
#459=DIRECTION('',(-1.,-1.2474713855941E-16,0.));
#460=DIRECTION('',(0.,-1.,0.));
#461=DIRECTION('',(1.,0.,0.));
#462=DIRECTION('',(0.,1.,0.));
#463=DIRECTION('center_axis',(0.,0.,-1.));
#464=DIRECTION('ref_axis',(-1.,5.12410626750072E-15,0.));
#465=DIRECTION('',(1.,0.,0.));
#466=DIRECTION('center_axis',(0.,0.,1.));
#467=DIRECTION('ref_axis',(1.,0.,0.));
#468=DIRECTION('',(-1.,-1.2474713855941E-16,0.));
#469=DIRECTION('',(0.,1.,0.));
#470=DIRECTION('',(1.,0.,0.));
#471=DIRECTION('',(0.,-1.,0.));
#472=DIRECTION('',(-1.,0.,0.));
#473=DIRECTION('',(0.,-1.,0.));
#474=DIRECTION('',(1.,0.,0.));
#475=DIRECTION('',(0.,1.,0.));
#476=DIRECTION('center_axis',(-1.,0.,0.));
#477=DIRECTION('ref_axis',(0.,1.,0.));
#478=DIRECTION('',(0.,0.,-1.));
#479=DIRECTION('',(0.,1.,0.));
#480=DIRECTION('',(0.,0.,1.));
#481=DIRECTION('center_axis',(0.,1.,0.));
#482=DIRECTION('ref_axis',(1.,0.,0.));
#483=DIRECTION('',(0.,0.,1.));
#484=DIRECTION('',(1.,0.,0.));
#485=DIRECTION('center_axis',(1.,0.,0.));
#486=DIRECTION('ref_axis',(0.,-1.,0.));
#487=DIRECTION('',(0.,0.,-1.));
#488=DIRECTION('',(0.,0.,1.));
#489=DIRECTION('center_axis',(-1.2474713855941E-16,1.,0.));
#490=DIRECTION('ref_axis',(1.,1.2474713855941E-16,0.));
#491=DIRECTION('',(0.,0.,1.));
#492=DIRECTION('center_axis',(0.,-1.,0.));
#493=DIRECTION('ref_axis',(1.,0.,0.));
#494=DIRECTION('',(1.,0.,0.));
#495=DIRECTION('',(0.,0.,1.));
#496=DIRECTION('',(0.,0.,1.));
#497=DIRECTION('center_axis',(0.,0.,1.));
#498=DIRECTION('ref_axis',(-1.,5.12410626750072E-15,0.));
#499=DIRECTION('center_axis',(0.,0.,-1.));
#500=DIRECTION('ref_axis',(-1.,5.12410626750072E-15,0.));
#501=DIRECTION('center_axis',(0.,1.,0.));
#502=DIRECTION('ref_axis',(-1.,0.,0.));
#503=DIRECTION('',(0.,0.,1.));
#504=DIRECTION('',(-1.,0.,0.));
#505=DIRECTION('center_axis',(-1.,0.,0.));
#506=DIRECTION('ref_axis',(0.,-1.,0.));
#507=DIRECTION('',(0.,-1.,0.));
#508=DIRECTION('center_axis',(0.,0.,1.));
#509=DIRECTION('ref_axis',(-1.,0.,0.));
#510=DIRECTION('',(0.,-1.,0.));
#511=DIRECTION('',(-1.,0.,0.));
#512=DIRECTION('center_axis',(0.,-1.,0.));
#513=DIRECTION('ref_axis',(-1.,0.,0.));
#514=DIRECTION('',(0.,0.,1.));
#515=DIRECTION('center_axis',(1.,0.,0.));
#516=DIRECTION('ref_axis',(0.,-1.,0.));
#517=DIRECTION('center_axis',(-1.,0.,0.));
#518=DIRECTION('ref_axis',(0.,1.,0.));
#519=DIRECTION('',(0.,0.,1.));
#520=DIRECTION('center_axis',(0.,-1.,0.));
#521=DIRECTION('ref_axis',(-1.,0.,0.));
#522=CARTESIAN_POINT('',(0.,0.,0.));
#523=CARTESIAN_POINT('Origin',(-5.67179445998544,-5.34505396484998,-0.3));
#524=CARTESIAN_POINT('',(-5.97179445998544,15.1898920703001,0.));
#525=CARTESIAN_POINT('',(-5.97179445998544,-11.2901079297,0.));
#526=CARTESIAN_POINT('',(-5.97179445998544,-5.34505396484998,0.));
#527=CARTESIAN_POINT('',(-5.37179445998544,-10.6901079297,-0.6));
#528=CARTESIAN_POINT('',(-5.97179445998544,-11.2901079297,0.));
#529=CARTESIAN_POINT('',(-5.37179445998544,14.5898920703,-0.6));
#530=CARTESIAN_POINT('',(-5.37179445998544,-5.34505396484998,-0.6));
#531=CARTESIAN_POINT('',(-5.97179445998544,15.1898920703001,0.));
#532=CARTESIAN_POINT('Origin',(2.68610277000728,-10.9901079297,-0.3));
#533=CARTESIAN_POINT('',(5.97220554001456,-11.2901079297,0.));
#534=CARTESIAN_POINT('',(2.68610277000728,-11.2901079297,0.));
#535=CARTESIAN_POINT('',(5.37220554001456,-10.6901079297,-0.6));
#536=CARTESIAN_POINT('',(5.97220554001456,-11.2901079297,0.));
#537=CARTESIAN_POINT('',(2.68610277000728,-10.6901079297,-0.6));
#538=CARTESIAN_POINT('Origin',(5.67220554001456,7.29494603515002,-0.3));
#539=CARTESIAN_POINT('',(5.97220554001456,15.1898920703001,0.));
#540=CARTESIAN_POINT('',(5.97220554001456,7.29494603515002,0.));
#541=CARTESIAN_POINT('',(5.37220554001456,14.5898920703,-0.6));
#542=CARTESIAN_POINT('',(5.97220554001456,15.1898920703001,0.));
#543=CARTESIAN_POINT('',(5.37220554001456,7.29494603515002,-0.6));
#544=CARTESIAN_POINT('Origin',(-2.68589722999272,14.8898920703,-0.3));
#545=CARTESIAN_POINT('',(-2.68589722999272,14.5898920703,-0.6));
#546=CARTESIAN_POINT('',(-2.68589722999272,15.1898920703001,0.));
#547=CARTESIAN_POINT('Origin',(-5.37179445998544,14.5898920703,-1.));
#548=CARTESIAN_POINT('',(-5.37179445998544,14.5898920703,-1.));
#549=CARTESIAN_POINT('',(-5.37179445998544,14.5898920703,-1.));
#550=CARTESIAN_POINT('',(5.37220554001456,14.5898920703,-1.));
#551=CARTESIAN_POINT('',(5.37220554001456,14.5898920703,-1.));
#552=CARTESIAN_POINT('',(5.37220554001456,14.5898920703,-1.));
#553=CARTESIAN_POINT('Origin',(-5.37179445998544,-10.6901079297,-1.));
#554=CARTESIAN_POINT('',(-5.37179445998544,-10.6901079297,-1.));
#555=CARTESIAN_POINT('',(-5.37179445998544,-10.6901079297,-1.));
#556=CARTESIAN_POINT('',(-5.37179445998544,14.5898920703,-1.));
#557=CARTESIAN_POINT('Origin',(0.,0.,0.));
#558=CARTESIAN_POINT('',(8.8997875017103,19.8498920703001,0.));
#559=CARTESIAN_POINT('',(-8.8997875017103,19.8498920703001,0.));
#560=CARTESIAN_POINT('',(-8.8997875017103,19.8498920703001,0.));
#561=CARTESIAN_POINT('',(-8.8997875017103,-19.8498920703001,0.));
#562=CARTESIAN_POINT('',(-8.8997875017103,-19.8498920703001,0.));
#563=CARTESIAN_POINT('',(8.8997875017103,-19.8498920703001,0.));
#564=CARTESIAN_POINT('',(8.8997875017103,-19.8498920703001,0.));
#565=CARTESIAN_POINT('',(8.8997875017103,19.8498920703001,0.));
#566=CARTESIAN_POINT('',(6.72392752730306,-18.9498920703001,0.));
#567=CARTESIAN_POINT('',(6.67731855051555,-18.9498920703001,0.));
#568=CARTESIAN_POINT('Origin',(6.70062303890921,-17.6501009713844,0.));
#569=CARTESIAN_POINT('',(7.9997875017103,-18.9498920703001,0.));
#570=CARTESIAN_POINT('Origin',(0.,0.,-4.7));
#571=CARTESIAN_POINT('',(8.8997875017103,19.8498920703001,-4.7));
#572=CARTESIAN_POINT('',(-8.8997875017103,19.8498920703001,-4.7));
#573=CARTESIAN_POINT('',(-4.44989375085515,19.8498920703001,-4.7));
#574=CARTESIAN_POINT('',(8.8997875017103,-19.8498920703001,-4.7));
#575=CARTESIAN_POINT('',(8.8997875017103,9.92494603515007,-4.7));
#576=CARTESIAN_POINT('',(-8.8997875017103,-19.8498920703001,-4.7));
#577=CARTESIAN_POINT('',(4.44989375085515,-19.8498920703001,-4.7));
#578=CARTESIAN_POINT('',(-8.8997875017103,-9.92494603515007,-4.7));
#579=CARTESIAN_POINT('',(8.4997875017103,-19.4498920703001,-4.7));
#580=CARTESIAN_POINT('',(-8.4997875017103,-19.4498920703001,-4.7));
#581=CARTESIAN_POINT('',(-4.24989375085515,-19.4498920703001,-4.7));
#582=CARTESIAN_POINT('',(8.4997875017103,19.4498920703001,-4.7));
#583=CARTESIAN_POINT('',(8.4997875017103,-9.72494603515007,-4.7));
#584=CARTESIAN_POINT('',(-8.4997875017103,19.4498920703001,-4.7));
#585=CARTESIAN_POINT('',(4.24989375085515,19.4498920703001,-4.7));
#586=CARTESIAN_POINT('',(-8.4997875017103,9.72494603515007,-4.7));
#587=CARTESIAN_POINT('Origin',(8.4997875017103,-19.4498920703001,-1.4));
#588=CARTESIAN_POINT('',(8.4997875017103,-19.4498920703001,-1.));
#589=CARTESIAN_POINT('',(8.4997875017103,-19.4498920703001,-1.4));
#590=CARTESIAN_POINT('',(8.4997875017103,19.4498920703001,-1.));
#591=CARTESIAN_POINT('',(8.4997875017103,-9.72494603515007,-1.));
#592=CARTESIAN_POINT('',(8.4997875017103,19.4498920703001,-1.4));
#593=CARTESIAN_POINT('Origin',(-8.4997875017103,-19.4498920703001,-1.4));
#594=CARTESIAN_POINT('',(-8.4997875017103,-19.4498920703001,-1.));
#595=CARTESIAN_POINT('',(-8.4997875017103,-19.4498920703001,-1.4));
#596=CARTESIAN_POINT('',(-4.24989375085515,-19.4498920703001,-1.));
#597=CARTESIAN_POINT('Origin',(8.8997875017103,19.8498920703001,-1.4));
#598=CARTESIAN_POINT('',(8.8997875017103,19.8498920703001,-1.4));
#599=CARTESIAN_POINT('',(8.8997875017103,-19.8498920703001,-1.4));
#600=CARTESIAN_POINT('Origin',(-8.8997875017103,19.8498920703001,-1.4));
#601=CARTESIAN_POINT('',(-8.8997875017103,19.8498920703001,-1.4));
#602=CARTESIAN_POINT('Origin',(6.67731855051555,-18.9498920703001,-1.));
#603=CARTESIAN_POINT('',(6.67731855051555,-18.9498920703001,-1.));
#604=CARTESIAN_POINT('',(6.72392752730306,-18.9498920703001,-1.));
#605=CARTESIAN_POINT('',(7.9997875017103,-18.9498920703001,-1.));
#606=CARTESIAN_POINT('',(6.72392752730306,-18.9498920703001,-1.));
#607=CARTESIAN_POINT('',(6.67731855051555,-18.9498920703001,-1.));
#608=CARTESIAN_POINT('Origin',(6.70062303890921,-17.6501009713844,-1.));
#609=CARTESIAN_POINT('Origin',(6.70062303890921,-17.6501009713844,-1.));
#610=CARTESIAN_POINT('Origin',(5.37220554001456,-10.6901079297,-1.));
#611=CARTESIAN_POINT('',(5.37220554001456,-10.6901079297,-1.));
#612=CARTESIAN_POINT('',(5.37220554001456,-10.6901079297,-1.));
#613=CARTESIAN_POINT('',(-5.37179445998544,-10.6901079297,-1.));
#614=CARTESIAN_POINT('Origin',(5.37220554001456,14.5898920703,-1.));
#615=CARTESIAN_POINT('',(5.37220554001456,-10.6901079297,-1.));
#616=CARTESIAN_POINT('Origin',(0.,1.11022302462516E-15,-1.));
#617=CARTESIAN_POINT('',(-8.4997875017103,19.4498920703001,-1.));
#618=CARTESIAN_POINT('',(-8.4997875017103,9.72494603515007,-1.));
#619=CARTESIAN_POINT('',(4.24989375085515,19.4498920703001,-1.));
#620=CARTESIAN_POINT('Origin',(8.4997875017103,19.4498920703001,-1.4));
#621=CARTESIAN_POINT('',(-8.4997875017103,19.4498920703001,-1.4));
#622=CARTESIAN_POINT('Origin',(-8.4997875017103,19.4498920703001,-1.4));
#623=CARTESIAN_POINT('Origin',(-8.8997875017103,-19.8498920703001,-1.4));
#624=CARTESIAN_POINT('',(-8.8997875017103,-19.8498920703001,-1.4));
#625=CARTESIAN_POINT('Origin',(8.8997875017103,-19.8498920703001,-1.4));
#626=UNCERTAINTY_MEASURE_WITH_UNIT(LENGTH_MEASURE(0.01),#630,
'DISTANCE_ACCURACY_VALUE',
'Maximum model space distance between geometric entities at asserted c
onnectivities');
#627=UNCERTAINTY_MEASURE_WITH_UNIT(LENGTH_MEASURE(0.01),#630,
'DISTANCE_ACCURACY_VALUE',
'Maximum model space distance between geometric entities at asserted c
onnectivities');
#628=(
GEOMETRIC_REPRESENTATION_CONTEXT(3)
GLOBAL_UNCERTAINTY_ASSIGNED_CONTEXT((#626))
GLOBAL_UNIT_ASSIGNED_CONTEXT((#630,#632,#633))
REPRESENTATION_CONTEXT('','3D')
);
#629=(
GEOMETRIC_REPRESENTATION_CONTEXT(3)
GLOBAL_UNCERTAINTY_ASSIGNED_CONTEXT((#627))
GLOBAL_UNIT_ASSIGNED_CONTEXT((#630,#632,#633))
REPRESENTATION_CONTEXT('','3D')
);
#630=(
LENGTH_UNIT()
NAMED_UNIT(*)
SI_UNIT(.MILLI.,.METRE.)
);
#631=(
LENGTH_UNIT()
NAMED_UNIT(*)
SI_UNIT($,.METRE.)
);
#632=(
NAMED_UNIT(*)
PLANE_ANGLE_UNIT()
SI_UNIT($,.RADIAN.)
);
#633=(
NAMED_UNIT(*)
SI_UNIT($,.STERADIAN.)
SOLID_ANGLE_UNIT()
);
#634=SHAPE_DEFINITION_REPRESENTATION(#635,#636);
#635=PRODUCT_DEFINITION_SHAPE('',$,#638);
#636=SHAPE_REPRESENTATION('',(#402),#628);
#637=PRODUCT_DEFINITION_CONTEXT('part definition',#642,'design');
#638=PRODUCT_DEFINITION('2025-10-26-05-11-53-953',
'Skree Skreen PCB and mount_v6',#639,#637);
#639=PRODUCT_DEFINITION_FORMATION('',$,#644);
#640=PRODUCT_RELATED_PRODUCT_CATEGORY('Skree Skreen PCB and mount_v6',
'Skree Skreen PCB and mount_v6',(#644));
#641=APPLICATION_PROTOCOL_DEFINITION('international standard',
'automotive_design',2009,#642);
#642=APPLICATION_CONTEXT(
'Core Data for Automotive Mechanical Design Process');
#643=PRODUCT_CONTEXT('part definition',#642,'mechanical');
#644=PRODUCT('2025-10-26-05-11-53-953','Skree Skreen PCB and mount_v6',
$,(#643));
#645=PRESENTATION_STYLE_ASSIGNMENT((#646));
#646=SURFACE_STYLE_USAGE(.BOTH.,#647);
#647=SURFACE_SIDE_STYLE('',(#648));
#648=SURFACE_STYLE_FILL_AREA(#649);
#649=FILL_AREA_STYLE('Steel - Satin',(#650));
#650=FILL_AREA_STYLE_COLOUR('Steel - Satin',#651);
#651=COLOUR_RGB('Steel - Satin',0.627450980392157,0.627450980392157,0.627450980392157);
ENDSEC;
END-ISO-10303-21;
