ISO-10303-21;
HEADER;
/* Generated by software containing ST-Developer
 * from STEP Tools, Inc. (www.steptools.com) 
 */

FILE_DESCRIPTION(
/* description */ (''),
/* implementation_level */ '2;1');

FILE_NAME(
/* name */ 'trackpad-skree-azoteq-tps65.step',
/* time_stamp */ '2026-01-02T22:50:53-05:00',
/* author */ (''),
/* organization */ (''),
/* preprocessor_version */ 'ST-DEVELOPER v20.1',
/* originating_system */ 'Autodesk Translation Framework v14.21.0.0',
/* authorisation */ '');

FILE_SCHEMA (('AUTOMOTIVE_DESIGN { 1 0 10303 214 3 1 1 }'));
ENDSEC;

DATA;
#10=MECHANICAL_DESIGN_GEOMETRIC_PRESENTATION_REPRESENTATION('',(#13),#937);
#11=SHAPE_REPRESENTATION_RELATIONSHIP('SRR','None',#944,#12);
#12=ADVANCED_BREP_SHAPE_REPRESENTATION('',(#14),#936);
#13=STYLED_ITEM('',(#953),#14);
#14=MANIFOLD_SOLID_BREP('Body2',#553);
#15=FACE_BOUND('',#94,.T.);
#16=FACE_BOUND('',#112,.T.);
#17=FACE_BOUND('',#114,.T.);
#18=CYLINDRICAL_SURFACE('',#583,4.);
#19=CYLINDRICAL_SURFACE('',#586,4.00000000000001);
#20=CYLINDRICAL_SURFACE('',#590,3.);
#21=CYLINDRICAL_SURFACE('',#594,3.);
#22=CYLINDRICAL_SURFACE('',#598,3.);
#23=CYLINDRICAL_SURFACE('',#602,3.);
#24=CYLINDRICAL_SURFACE('',#607,4.00000000000001);
#25=CYLINDRICAL_SURFACE('',#610,4.);
#26=CIRCLE('',#569,4.60000000000001);
#27=CIRCLE('',#570,4.00000000000001);
#28=CIRCLE('',#573,4.6);
#29=CIRCLE('',#574,4.);
#30=CIRCLE('',#577,4.6);
#31=CIRCLE('',#578,4.);
#32=CIRCLE('',#581,4.6);
#33=CIRCLE('',#582,4.00000000000001);
#34=CIRCLE('',#584,4.);
#35=CIRCLE('',#587,4.00000000000001);
#36=CIRCLE('',#591,3.);
#37=CIRCLE('',#592,3.);
#38=CIRCLE('',#595,3.);
#39=CIRCLE('',#596,3.);
#40=CIRCLE('',#599,3.);
#41=CIRCLE('',#600,3.);
#42=CIRCLE('',#603,3.);
#43=CIRCLE('',#604,3.);
#44=CIRCLE('',#608,4.00000000000001);
#45=CIRCLE('',#611,4.);
#46=CONICAL_SURFACE('',#568,4.30000000000001,0.785398163397445);
#47=CONICAL_SURFACE('',#572,4.3,0.785398163397447);
#48=CONICAL_SURFACE('',#576,4.3,0.785398163397448);
#49=CONICAL_SURFACE('',#580,4.30000000000001,0.785398163397447);
#50=FACE_OUTER_BOUND('',#81,.T.);
#51=FACE_OUTER_BOUND('',#82,.T.);
#52=FACE_OUTER_BOUND('',#83,.T.);
#53=FACE_OUTER_BOUND('',#84,.T.);
#54=FACE_OUTER_BOUND('',#85,.T.);
#55=FACE_OUTER_BOUND('',#86,.T.);
#56=FACE_OUTER_BOUND('',#87,.T.);
#57=FACE_OUTER_BOUND('',#88,.T.);
#58=FACE_OUTER_BOUND('',#89,.T.);
#59=FACE_OUTER_BOUND('',#90,.T.);
#60=FACE_OUTER_BOUND('',#91,.T.);
#61=FACE_OUTER_BOUND('',#92,.T.);
#62=FACE_OUTER_BOUND('',#93,.T.);
#63=FACE_OUTER_BOUND('',#95,.T.);
#64=FACE_OUTER_BOUND('',#96,.T.);
#65=FACE_OUTER_BOUND('',#97,.T.);
#66=FACE_OUTER_BOUND('',#98,.T.);
#67=FACE_OUTER_BOUND('',#99,.T.);
#68=FACE_OUTER_BOUND('',#100,.T.);
#69=FACE_OUTER_BOUND('',#101,.T.);
#70=FACE_OUTER_BOUND('',#102,.T.);
#71=FACE_OUTER_BOUND('',#103,.T.);
#72=FACE_OUTER_BOUND('',#104,.T.);
#73=FACE_OUTER_BOUND('',#105,.T.);
#74=FACE_OUTER_BOUND('',#106,.T.);
#75=FACE_OUTER_BOUND('',#107,.T.);
#76=FACE_OUTER_BOUND('',#108,.T.);
#77=FACE_OUTER_BOUND('',#109,.T.);
#78=FACE_OUTER_BOUND('',#110,.T.);
#79=FACE_OUTER_BOUND('',#111,.T.);
#80=FACE_OUTER_BOUND('',#113,.T.);
#81=EDGE_LOOP('',(#351,#352,#353,#354));
#82=EDGE_LOOP('',(#355,#356,#357,#358));
#83=EDGE_LOOP('',(#359,#360,#361,#362));
#84=EDGE_LOOP('',(#363,#364,#365,#366));
#85=EDGE_LOOP('',(#367,#368,#369,#370));
#86=EDGE_LOOP('',(#371,#372,#373,#374));
#87=EDGE_LOOP('',(#375,#376,#377,#378));
#88=EDGE_LOOP('',(#379,#380,#381,#382));
#89=EDGE_LOOP('',(#383,#384,#385,#386));
#90=EDGE_LOOP('',(#387,#388,#389,#390));
#91=EDGE_LOOP('',(#391,#392,#393,#394));
#92=EDGE_LOOP('',(#395,#396,#397,#398));
#93=EDGE_LOOP('',(#399,#400,#401,#402));
#94=EDGE_LOOP('',(#403,#404,#405,#406,#407,#408,#409,#410));
#95=EDGE_LOOP('',(#411,#412,#413,#414));
#96=EDGE_LOOP('',(#415,#416,#417,#418));
#97=EDGE_LOOP('',(#419,#420,#421,#422));
#98=EDGE_LOOP('',(#423,#424,#425,#426));
#99=EDGE_LOOP('',(#427,#428,#429,#430));
#100=EDGE_LOOP('',(#431,#432,#433,#434));
#101=EDGE_LOOP('',(#435,#436,#437,#438));
#102=EDGE_LOOP('',(#439,#440,#441,#442));
#103=EDGE_LOOP('',(#443,#444,#445,#446));
#104=EDGE_LOOP('',(#447,#448,#449,#450));
#105=EDGE_LOOP('',(#451,#452,#453,#454));
#106=EDGE_LOOP('',(#455,#456,#457,#458));
#107=EDGE_LOOP('',(#459,#460,#461,#462));
#108=EDGE_LOOP('',(#463,#464,#465,#466));
#109=EDGE_LOOP('',(#467,#468,#469,#470));
#110=EDGE_LOOP('',(#471,#472,#473,#474));
#111=EDGE_LOOP('',(#475,#476,#477,#478));
#112=EDGE_LOOP('',(#479,#480,#481,#482,#483,#484,#485,#486));
#113=EDGE_LOOP('',(#487,#488,#489,#490,#491,#492,#493,#494));
#114=EDGE_LOOP('',(#495,#496,#497,#498,#499,#500,#501,#502));
#115=LINE('',#782,#171);
#116=LINE('',#784,#172);
#117=LINE('',#786,#173);
#118=LINE('',#787,#174);
#119=LINE('',#791,#175);
#120=LINE('',#797,#176);
#121=LINE('',#798,#177);
#122=LINE('',#799,#178);
#123=LINE('',#803,#179);
#124=LINE('',#809,#180);
#125=LINE('',#810,#181);
#126=LINE('',#811,#182);
#127=LINE('',#815,#183);
#128=LINE('',#821,#184);
#129=LINE('',#822,#185);
#130=LINE('',#823,#186);
#131=LINE('',#829,#187);
#132=LINE('',#832,#188);
#133=LINE('',#835,#189);
#134=LINE('',#836,#190);
#135=LINE('',#839,#191);
#136=LINE('',#843,#192);
#137=LINE('',#844,#193);
#138=LINE('',#848,#194);
#139=LINE('',#850,#195);
#140=LINE('',#852,#196);
#141=LINE('',#853,#197);
#142=LINE('',#859,#198);
#143=LINE('',#862,#199);
#144=LINE('',#865,#200);
#145=LINE('',#867,#201);
#146=LINE('',#868,#202);
#147=LINE('',#874,#203);
#148=LINE('',#877,#204);
#149=LINE('',#879,#205);
#150=LINE('',#880,#206);
#151=LINE('',#886,#207);
#152=LINE('',#889,#208);
#153=LINE('',#891,#209);
#154=LINE('',#892,#210);
#155=LINE('',#897,#211);
#156=LINE('',#900,#212);
#157=LINE('',#901,#213);
#158=LINE('',#904,#214);
#159=LINE('',#905,#215);
#160=LINE('',#908,#216);
#161=LINE('',#912,#217);
#162=LINE('',#913,#218);
#163=LINE('',#918,#219);
#164=LINE('',#920,#220);
#165=LINE('',#921,#221);
#166=LINE('',#924,#222);
#167=LINE('',#925,#223);
#168=LINE('',#928,#224);
#169=LINE('',#929,#225);
#170=LINE('',#931,#226);
#171=VECTOR('',#622,10.);
#172=VECTOR('',#623,10.);
#173=VECTOR('',#624,10.);
#174=VECTOR('',#625,10.);
#175=VECTOR('',#628,10.);
#176=VECTOR('',#635,10.);
#177=VECTOR('',#636,10.);
#178=VECTOR('',#637,10.);
#179=VECTOR('',#640,10.);
#180=VECTOR('',#647,10.);
#181=VECTOR('',#648,10.);
#182=VECTOR('',#649,10.);
#183=VECTOR('',#652,10.);
#184=VECTOR('',#659,10.);
#185=VECTOR('',#660,10.);
#186=VECTOR('',#661,10.);
#187=VECTOR('',#670,10.);
#188=VECTOR('',#673,10.);
#189=VECTOR('',#676,10.);
#190=VECTOR('',#677,10.);
#191=VECTOR('',#680,10.);
#192=VECTOR('',#685,10.);
#193=VECTOR('',#686,10.);
#194=VECTOR('',#689,10.);
#195=VECTOR('',#690,10.);
#196=VECTOR('',#691,10.);
#197=VECTOR('',#692,10.);
#198=VECTOR('',#697,10.);
#199=VECTOR('',#700,10.);
#200=VECTOR('',#703,10.);
#201=VECTOR('',#704,10.);
#202=VECTOR('',#705,10.);
#203=VECTOR('',#710,10.);
#204=VECTOR('',#713,10.);
#205=VECTOR('',#716,10.);
#206=VECTOR('',#717,10.);
#207=VECTOR('',#722,10.);
#208=VECTOR('',#725,10.);
#209=VECTOR('',#728,10.);
#210=VECTOR('',#729,10.);
#211=VECTOR('',#734,10.);
#212=VECTOR('',#739,10.);
#213=VECTOR('',#740,10.);
#214=VECTOR('',#743,10.);
#215=VECTOR('',#744,10.);
#216=VECTOR('',#747,10.);
#217=VECTOR('',#752,10.);
#218=VECTOR('',#753,10.);
#219=VECTOR('',#760,10.);
#220=VECTOR('',#761,10.);
#221=VECTOR('',#762,10.);
#222=VECTOR('',#765,10.);
#223=VECTOR('',#766,10.);
#224=VECTOR('',#769,10.);
#225=VECTOR('',#770,10.);
#226=VECTOR('',#773,10.);
#227=VERTEX_POINT('',#780);
#228=VERTEX_POINT('',#781);
#229=VERTEX_POINT('',#783);
#230=VERTEX_POINT('',#785);
#231=VERTEX_POINT('',#789);
#232=VERTEX_POINT('',#790);
#233=VERTEX_POINT('',#795);
#234=VERTEX_POINT('',#796);
#235=VERTEX_POINT('',#801);
#236=VERTEX_POINT('',#802);
#237=VERTEX_POINT('',#807);
#238=VERTEX_POINT('',#808);
#239=VERTEX_POINT('',#813);
#240=VERTEX_POINT('',#814);
#241=VERTEX_POINT('',#819);
#242=VERTEX_POINT('',#820);
#243=VERTEX_POINT('',#828);
#244=VERTEX_POINT('',#830);
#245=VERTEX_POINT('',#834);
#246=VERTEX_POINT('',#838);
#247=VERTEX_POINT('',#842);
#248=VERTEX_POINT('',#846);
#249=VERTEX_POINT('',#847);
#250=VERTEX_POINT('',#849);
#251=VERTEX_POINT('',#851);
#252=VERTEX_POINT('',#855);
#253=VERTEX_POINT('',#856);
#254=VERTEX_POINT('',#858);
#255=VERTEX_POINT('',#860);
#256=VERTEX_POINT('',#864);
#257=VERTEX_POINT('',#866);
#258=VERTEX_POINT('',#870);
#259=VERTEX_POINT('',#871);
#260=VERTEX_POINT('',#873);
#261=VERTEX_POINT('',#875);
#262=VERTEX_POINT('',#882);
#263=VERTEX_POINT('',#883);
#264=VERTEX_POINT('',#885);
#265=VERTEX_POINT('',#887);
#266=VERTEX_POINT('',#894);
#267=VERTEX_POINT('',#896);
#268=VERTEX_POINT('',#903);
#269=VERTEX_POINT('',#907);
#270=VERTEX_POINT('',#911);
#271=VERTEX_POINT('',#917);
#272=VERTEX_POINT('',#919);
#273=VERTEX_POINT('',#923);
#274=VERTEX_POINT('',#927);
#275=EDGE_CURVE('',#227,#228,#115,.T.);
#276=EDGE_CURVE('',#228,#229,#116,.T.);
#277=EDGE_CURVE('',#229,#230,#117,.T.);
#278=EDGE_CURVE('',#230,#227,#118,.T.);
#279=EDGE_CURVE('',#231,#232,#119,.T.);
#280=EDGE_CURVE('',#232,#228,#26,.T.);
#281=EDGE_CURVE('',#227,#231,#27,.T.);
#282=EDGE_CURVE('',#233,#234,#120,.T.);
#283=EDGE_CURVE('',#234,#232,#121,.T.);
#284=EDGE_CURVE('',#231,#233,#122,.T.);
#285=EDGE_CURVE('',#235,#236,#123,.T.);
#286=EDGE_CURVE('',#236,#234,#28,.T.);
#287=EDGE_CURVE('',#233,#235,#29,.T.);
#288=EDGE_CURVE('',#237,#238,#124,.T.);
#289=EDGE_CURVE('',#238,#236,#125,.T.);
#290=EDGE_CURVE('',#235,#237,#126,.T.);
#291=EDGE_CURVE('',#239,#240,#127,.T.);
#292=EDGE_CURVE('',#240,#238,#30,.T.);
#293=EDGE_CURVE('',#237,#239,#31,.T.);
#294=EDGE_CURVE('',#241,#242,#128,.T.);
#295=EDGE_CURVE('',#242,#240,#129,.T.);
#296=EDGE_CURVE('',#239,#241,#130,.T.);
#297=EDGE_CURVE('',#229,#242,#32,.T.);
#298=EDGE_CURVE('',#241,#230,#33,.T.);
#299=EDGE_CURVE('',#243,#233,#131,.T.);
#300=EDGE_CURVE('',#244,#243,#34,.T.);
#301=EDGE_CURVE('',#244,#235,#132,.T.);
#302=EDGE_CURVE('',#245,#231,#133,.T.);
#303=EDGE_CURVE('',#243,#245,#134,.T.);
#304=EDGE_CURVE('',#246,#227,#135,.T.);
#305=EDGE_CURVE('',#245,#246,#35,.T.);
#306=EDGE_CURVE('',#247,#230,#136,.T.);
#307=EDGE_CURVE('',#246,#247,#137,.T.);
#308=EDGE_CURVE('',#248,#249,#138,.T.);
#309=EDGE_CURVE('',#249,#250,#139,.T.);
#310=EDGE_CURVE('',#250,#251,#140,.T.);
#311=EDGE_CURVE('',#251,#248,#141,.T.);
#312=EDGE_CURVE('',#252,#253,#36,.T.);
#313=EDGE_CURVE('',#253,#254,#142,.T.);
#314=EDGE_CURVE('',#254,#255,#37,.T.);
#315=EDGE_CURVE('',#255,#252,#143,.T.);
#316=EDGE_CURVE('',#253,#256,#144,.T.);
#317=EDGE_CURVE('',#257,#256,#145,.T.);
#318=EDGE_CURVE('',#254,#257,#146,.T.);
#319=EDGE_CURVE('',#258,#259,#38,.T.);
#320=EDGE_CURVE('',#259,#260,#147,.T.);
#321=EDGE_CURVE('',#260,#261,#39,.T.);
#322=EDGE_CURVE('',#261,#258,#148,.T.);
#323=EDGE_CURVE('',#260,#255,#149,.T.);
#324=EDGE_CURVE('',#259,#252,#150,.T.);
#325=EDGE_CURVE('',#262,#263,#40,.T.);
#326=EDGE_CURVE('',#263,#264,#151,.T.);
#327=EDGE_CURVE('',#264,#265,#41,.T.);
#328=EDGE_CURVE('',#265,#262,#152,.T.);
#329=EDGE_CURVE('',#264,#261,#153,.T.);
#330=EDGE_CURVE('',#263,#258,#154,.T.);
#331=EDGE_CURVE('',#256,#266,#42,.T.);
#332=EDGE_CURVE('',#266,#267,#155,.T.);
#333=EDGE_CURVE('',#267,#257,#43,.T.);
#334=EDGE_CURVE('',#267,#265,#156,.T.);
#335=EDGE_CURVE('',#266,#262,#157,.T.);
#336=EDGE_CURVE('',#268,#244,#158,.T.);
#337=EDGE_CURVE('',#268,#237,#159,.T.);
#338=EDGE_CURVE('',#269,#241,#160,.T.);
#339=EDGE_CURVE('',#247,#269,#44,.T.);
#340=EDGE_CURVE('',#270,#239,#161,.T.);
#341=EDGE_CURVE('',#269,#270,#162,.T.);
#342=EDGE_CURVE('',#270,#268,#45,.T.);
#343=EDGE_CURVE('',#271,#249,#163,.T.);
#344=EDGE_CURVE('',#272,#271,#164,.T.);
#345=EDGE_CURVE('',#250,#272,#165,.T.);
#346=EDGE_CURVE('',#273,#272,#166,.F.);
#347=EDGE_CURVE('',#251,#273,#167,.F.);
#348=EDGE_CURVE('',#274,#273,#168,.T.);
#349=EDGE_CURVE('',#248,#274,#169,.T.);
#350=EDGE_CURVE('',#271,#274,#170,.F.);
#351=ORIENTED_EDGE('',*,*,#275,.T.);
#352=ORIENTED_EDGE('',*,*,#276,.T.);
#353=ORIENTED_EDGE('',*,*,#277,.T.);
#354=ORIENTED_EDGE('',*,*,#278,.T.);
#355=ORIENTED_EDGE('',*,*,#279,.T.);
#356=ORIENTED_EDGE('',*,*,#280,.T.);
#357=ORIENTED_EDGE('',*,*,#275,.F.);
#358=ORIENTED_EDGE('',*,*,#281,.T.);
#359=ORIENTED_EDGE('',*,*,#282,.T.);
#360=ORIENTED_EDGE('',*,*,#283,.T.);
#361=ORIENTED_EDGE('',*,*,#279,.F.);
#362=ORIENTED_EDGE('',*,*,#284,.T.);
#363=ORIENTED_EDGE('',*,*,#285,.T.);
#364=ORIENTED_EDGE('',*,*,#286,.T.);
#365=ORIENTED_EDGE('',*,*,#282,.F.);
#366=ORIENTED_EDGE('',*,*,#287,.T.);
#367=ORIENTED_EDGE('',*,*,#288,.T.);
#368=ORIENTED_EDGE('',*,*,#289,.T.);
#369=ORIENTED_EDGE('',*,*,#285,.F.);
#370=ORIENTED_EDGE('',*,*,#290,.T.);
#371=ORIENTED_EDGE('',*,*,#291,.T.);
#372=ORIENTED_EDGE('',*,*,#292,.T.);
#373=ORIENTED_EDGE('',*,*,#288,.F.);
#374=ORIENTED_EDGE('',*,*,#293,.T.);
#375=ORIENTED_EDGE('',*,*,#294,.T.);
#376=ORIENTED_EDGE('',*,*,#295,.T.);
#377=ORIENTED_EDGE('',*,*,#291,.F.);
#378=ORIENTED_EDGE('',*,*,#296,.T.);
#379=ORIENTED_EDGE('',*,*,#277,.F.);
#380=ORIENTED_EDGE('',*,*,#297,.T.);
#381=ORIENTED_EDGE('',*,*,#294,.F.);
#382=ORIENTED_EDGE('',*,*,#298,.T.);
#383=ORIENTED_EDGE('',*,*,#287,.F.);
#384=ORIENTED_EDGE('',*,*,#299,.F.);
#385=ORIENTED_EDGE('',*,*,#300,.F.);
#386=ORIENTED_EDGE('',*,*,#301,.T.);
#387=ORIENTED_EDGE('',*,*,#284,.F.);
#388=ORIENTED_EDGE('',*,*,#302,.F.);
#389=ORIENTED_EDGE('',*,*,#303,.F.);
#390=ORIENTED_EDGE('',*,*,#299,.T.);
#391=ORIENTED_EDGE('',*,*,#281,.F.);
#392=ORIENTED_EDGE('',*,*,#304,.F.);
#393=ORIENTED_EDGE('',*,*,#305,.F.);
#394=ORIENTED_EDGE('',*,*,#302,.T.);
#395=ORIENTED_EDGE('',*,*,#278,.F.);
#396=ORIENTED_EDGE('',*,*,#306,.F.);
#397=ORIENTED_EDGE('',*,*,#307,.F.);
#398=ORIENTED_EDGE('',*,*,#304,.T.);
#399=ORIENTED_EDGE('',*,*,#308,.T.);
#400=ORIENTED_EDGE('',*,*,#309,.T.);
#401=ORIENTED_EDGE('',*,*,#310,.T.);
#402=ORIENTED_EDGE('',*,*,#311,.T.);
#403=ORIENTED_EDGE('',*,*,#276,.F.);
#404=ORIENTED_EDGE('',*,*,#280,.F.);
#405=ORIENTED_EDGE('',*,*,#283,.F.);
#406=ORIENTED_EDGE('',*,*,#286,.F.);
#407=ORIENTED_EDGE('',*,*,#289,.F.);
#408=ORIENTED_EDGE('',*,*,#292,.F.);
#409=ORIENTED_EDGE('',*,*,#295,.F.);
#410=ORIENTED_EDGE('',*,*,#297,.F.);
#411=ORIENTED_EDGE('',*,*,#312,.T.);
#412=ORIENTED_EDGE('',*,*,#313,.T.);
#413=ORIENTED_EDGE('',*,*,#314,.T.);
#414=ORIENTED_EDGE('',*,*,#315,.T.);
#415=ORIENTED_EDGE('',*,*,#313,.F.);
#416=ORIENTED_EDGE('',*,*,#316,.T.);
#417=ORIENTED_EDGE('',*,*,#317,.F.);
#418=ORIENTED_EDGE('',*,*,#318,.F.);
#419=ORIENTED_EDGE('',*,*,#319,.T.);
#420=ORIENTED_EDGE('',*,*,#320,.T.);
#421=ORIENTED_EDGE('',*,*,#321,.T.);
#422=ORIENTED_EDGE('',*,*,#322,.T.);
#423=ORIENTED_EDGE('',*,*,#315,.F.);
#424=ORIENTED_EDGE('',*,*,#323,.F.);
#425=ORIENTED_EDGE('',*,*,#320,.F.);
#426=ORIENTED_EDGE('',*,*,#324,.T.);
#427=ORIENTED_EDGE('',*,*,#325,.T.);
#428=ORIENTED_EDGE('',*,*,#326,.T.);
#429=ORIENTED_EDGE('',*,*,#327,.T.);
#430=ORIENTED_EDGE('',*,*,#328,.T.);
#431=ORIENTED_EDGE('',*,*,#322,.F.);
#432=ORIENTED_EDGE('',*,*,#329,.F.);
#433=ORIENTED_EDGE('',*,*,#326,.F.);
#434=ORIENTED_EDGE('',*,*,#330,.T.);
#435=ORIENTED_EDGE('',*,*,#331,.T.);
#436=ORIENTED_EDGE('',*,*,#332,.T.);
#437=ORIENTED_EDGE('',*,*,#333,.T.);
#438=ORIENTED_EDGE('',*,*,#317,.T.);
#439=ORIENTED_EDGE('',*,*,#328,.F.);
#440=ORIENTED_EDGE('',*,*,#334,.F.);
#441=ORIENTED_EDGE('',*,*,#332,.F.);
#442=ORIENTED_EDGE('',*,*,#335,.T.);
#443=ORIENTED_EDGE('',*,*,#290,.F.);
#444=ORIENTED_EDGE('',*,*,#301,.F.);
#445=ORIENTED_EDGE('',*,*,#336,.F.);
#446=ORIENTED_EDGE('',*,*,#337,.T.);
#447=ORIENTED_EDGE('',*,*,#298,.F.);
#448=ORIENTED_EDGE('',*,*,#338,.F.);
#449=ORIENTED_EDGE('',*,*,#339,.F.);
#450=ORIENTED_EDGE('',*,*,#306,.T.);
#451=ORIENTED_EDGE('',*,*,#296,.F.);
#452=ORIENTED_EDGE('',*,*,#340,.F.);
#453=ORIENTED_EDGE('',*,*,#341,.F.);
#454=ORIENTED_EDGE('',*,*,#338,.T.);
#455=ORIENTED_EDGE('',*,*,#293,.F.);
#456=ORIENTED_EDGE('',*,*,#337,.F.);
#457=ORIENTED_EDGE('',*,*,#342,.F.);
#458=ORIENTED_EDGE('',*,*,#340,.T.);
#459=ORIENTED_EDGE('',*,*,#343,.F.);
#460=ORIENTED_EDGE('',*,*,#344,.F.);
#461=ORIENTED_EDGE('',*,*,#345,.F.);
#462=ORIENTED_EDGE('',*,*,#309,.F.);
#463=ORIENTED_EDGE('',*,*,#345,.T.);
#464=ORIENTED_EDGE('',*,*,#346,.F.);
#465=ORIENTED_EDGE('',*,*,#347,.F.);
#466=ORIENTED_EDGE('',*,*,#310,.F.);
#467=ORIENTED_EDGE('',*,*,#347,.T.);
#468=ORIENTED_EDGE('',*,*,#348,.F.);
#469=ORIENTED_EDGE('',*,*,#349,.F.);
#470=ORIENTED_EDGE('',*,*,#311,.F.);
#471=ORIENTED_EDGE('',*,*,#349,.T.);
#472=ORIENTED_EDGE('',*,*,#350,.F.);
#473=ORIENTED_EDGE('',*,*,#343,.T.);
#474=ORIENTED_EDGE('',*,*,#308,.F.);
#475=ORIENTED_EDGE('',*,*,#350,.T.);
#476=ORIENTED_EDGE('',*,*,#348,.T.);
#477=ORIENTED_EDGE('',*,*,#346,.T.);
#478=ORIENTED_EDGE('',*,*,#344,.T.);
#479=ORIENTED_EDGE('',*,*,#318,.T.);
#480=ORIENTED_EDGE('',*,*,#333,.F.);
#481=ORIENTED_EDGE('',*,*,#334,.T.);
#482=ORIENTED_EDGE('',*,*,#327,.F.);
#483=ORIENTED_EDGE('',*,*,#329,.T.);
#484=ORIENTED_EDGE('',*,*,#321,.F.);
#485=ORIENTED_EDGE('',*,*,#323,.T.);
#486=ORIENTED_EDGE('',*,*,#314,.F.);
#487=ORIENTED_EDGE('',*,*,#336,.T.);
#488=ORIENTED_EDGE('',*,*,#300,.T.);
#489=ORIENTED_EDGE('',*,*,#303,.T.);
#490=ORIENTED_EDGE('',*,*,#305,.T.);
#491=ORIENTED_EDGE('',*,*,#307,.T.);
#492=ORIENTED_EDGE('',*,*,#339,.T.);
#493=ORIENTED_EDGE('',*,*,#341,.T.);
#494=ORIENTED_EDGE('',*,*,#342,.T.);
#495=ORIENTED_EDGE('',*,*,#312,.F.);
#496=ORIENTED_EDGE('',*,*,#324,.F.);
#497=ORIENTED_EDGE('',*,*,#319,.F.);
#498=ORIENTED_EDGE('',*,*,#330,.F.);
#499=ORIENTED_EDGE('',*,*,#325,.F.);
#500=ORIENTED_EDGE('',*,*,#335,.F.);
#501=ORIENTED_EDGE('',*,*,#331,.F.);
#502=ORIENTED_EDGE('',*,*,#316,.F.);
#503=PLANE('',#567);
#504=PLANE('',#571);
#505=PLANE('',#575);
#506=PLANE('',#579);
#507=PLANE('',#585);
#508=PLANE('',#588);
#509=PLANE('',#589);
#510=PLANE('',#593);
#511=PLANE('',#597);
#512=PLANE('',#601);
#513=PLANE('',#605);
#514=PLANE('',#606);
#515=PLANE('',#609);
#516=PLANE('',#612);
#517=PLANE('',#613);
#518=PLANE('',#614);
#519=PLANE('',#615);
#520=PLANE('',#616);
#521=PLANE('',#617);
#522=ADVANCED_FACE('',(#50),#503,.T.);
#523=ADVANCED_FACE('',(#51),#46,.F.);
#524=ADVANCED_FACE('',(#52),#504,.T.);
#525=ADVANCED_FACE('',(#53),#47,.F.);
#526=ADVANCED_FACE('',(#54),#505,.T.);
#527=ADVANCED_FACE('',(#55),#48,.F.);
#528=ADVANCED_FACE('',(#56),#506,.T.);
#529=ADVANCED_FACE('',(#57),#49,.F.);
#530=ADVANCED_FACE('',(#58),#18,.F.);
#531=ADVANCED_FACE('',(#59),#507,.T.);
#532=ADVANCED_FACE('',(#60),#19,.F.);
#533=ADVANCED_FACE('',(#61),#508,.T.);
#534=ADVANCED_FACE('',(#62,#15),#509,.F.);
#535=ADVANCED_FACE('',(#63),#20,.F.);
#536=ADVANCED_FACE('',(#64),#510,.T.);
#537=ADVANCED_FACE('',(#65),#21,.F.);
#538=ADVANCED_FACE('',(#66),#511,.T.);
#539=ADVANCED_FACE('',(#67),#22,.F.);
#540=ADVANCED_FACE('',(#68),#512,.T.);
#541=ADVANCED_FACE('',(#69),#23,.F.);
#542=ADVANCED_FACE('',(#70),#513,.T.);
#543=ADVANCED_FACE('',(#71),#514,.T.);
#544=ADVANCED_FACE('',(#72),#24,.F.);
#545=ADVANCED_FACE('',(#73),#515,.T.);
#546=ADVANCED_FACE('',(#74),#25,.F.);
#547=ADVANCED_FACE('',(#75),#516,.T.);
#548=ADVANCED_FACE('',(#76),#517,.T.);
#549=ADVANCED_FACE('',(#77),#518,.T.);
#550=ADVANCED_FACE('',(#78),#519,.T.);
#551=ADVANCED_FACE('',(#79,#16),#520,.T.);
#552=ADVANCED_FACE('',(#80,#17),#521,.F.);
#553=CLOSED_SHELL('',(#522,#523,#524,#525,#526,#527,#528,#529,#530,#531,
#532,#533,#534,#535,#536,#537,#538,#539,#540,#541,#542,#543,#544,#545,#546,
#547,#548,#549,#550,#551,#552));
#554=DERIVED_UNIT_ELEMENT(#556,1.);
#555=DERIVED_UNIT_ELEMENT(#939,-3.);
#556=(
MASS_UNIT()
NAMED_UNIT(*)
SI_UNIT(.KILO.,.GRAM.)
);
#557=DERIVED_UNIT((#554,#555));
#558=MEASURE_REPRESENTATION_ITEM('density measure',
POSITIVE_RATIO_MEASURE(7850.),#557);
#559=PROPERTY_DEFINITION_REPRESENTATION(#564,#561);
#560=PROPERTY_DEFINITION_REPRESENTATION(#565,#562);
#561=REPRESENTATION('material name',(#563),#936);
#562=REPRESENTATION('density',(#558),#936);
#563=DESCRIPTIVE_REPRESENTATION_ITEM('Steel','Steel');
#564=PROPERTY_DEFINITION('material property','material name',#946);
#565=PROPERTY_DEFINITION('material property','density of part',#946);
#566=AXIS2_PLACEMENT_3D('',#778,#618,#619);
#567=AXIS2_PLACEMENT_3D('',#779,#620,#621);
#568=AXIS2_PLACEMENT_3D('',#788,#626,#627);
#569=AXIS2_PLACEMENT_3D('',#792,#629,#630);
#570=AXIS2_PLACEMENT_3D('',#793,#631,#632);
#571=AXIS2_PLACEMENT_3D('',#794,#633,#634);
#572=AXIS2_PLACEMENT_3D('',#800,#638,#639);
#573=AXIS2_PLACEMENT_3D('',#804,#641,#642);
#574=AXIS2_PLACEMENT_3D('',#805,#643,#644);
#575=AXIS2_PLACEMENT_3D('',#806,#645,#646);
#576=AXIS2_PLACEMENT_3D('',#812,#650,#651);
#577=AXIS2_PLACEMENT_3D('',#816,#653,#654);
#578=AXIS2_PLACEMENT_3D('',#817,#655,#656);
#579=AXIS2_PLACEMENT_3D('',#818,#657,#658);
#580=AXIS2_PLACEMENT_3D('',#824,#662,#663);
#581=AXIS2_PLACEMENT_3D('',#825,#664,#665);
#582=AXIS2_PLACEMENT_3D('',#826,#666,#667);
#583=AXIS2_PLACEMENT_3D('',#827,#668,#669);
#584=AXIS2_PLACEMENT_3D('',#831,#671,#672);
#585=AXIS2_PLACEMENT_3D('',#833,#674,#675);
#586=AXIS2_PLACEMENT_3D('',#837,#678,#679);
#587=AXIS2_PLACEMENT_3D('',#840,#681,#682);
#588=AXIS2_PLACEMENT_3D('',#841,#683,#684);
#589=AXIS2_PLACEMENT_3D('',#845,#687,#688);
#590=AXIS2_PLACEMENT_3D('',#854,#693,#694);
#591=AXIS2_PLACEMENT_3D('',#857,#695,#696);
#592=AXIS2_PLACEMENT_3D('',#861,#698,#699);
#593=AXIS2_PLACEMENT_3D('',#863,#701,#702);
#594=AXIS2_PLACEMENT_3D('',#869,#706,#707);
#595=AXIS2_PLACEMENT_3D('',#872,#708,#709);
#596=AXIS2_PLACEMENT_3D('',#876,#711,#712);
#597=AXIS2_PLACEMENT_3D('',#878,#714,#715);
#598=AXIS2_PLACEMENT_3D('',#881,#718,#719);
#599=AXIS2_PLACEMENT_3D('',#884,#720,#721);
#600=AXIS2_PLACEMENT_3D('',#888,#723,#724);
#601=AXIS2_PLACEMENT_3D('',#890,#726,#727);
#602=AXIS2_PLACEMENT_3D('',#893,#730,#731);
#603=AXIS2_PLACEMENT_3D('',#895,#732,#733);
#604=AXIS2_PLACEMENT_3D('',#898,#735,#736);
#605=AXIS2_PLACEMENT_3D('',#899,#737,#738);
#606=AXIS2_PLACEMENT_3D('',#902,#741,#742);
#607=AXIS2_PLACEMENT_3D('',#906,#745,#746);
#608=AXIS2_PLACEMENT_3D('',#909,#748,#749);
#609=AXIS2_PLACEMENT_3D('',#910,#750,#751);
#610=AXIS2_PLACEMENT_3D('',#914,#754,#755);
#611=AXIS2_PLACEMENT_3D('',#915,#756,#757);
#612=AXIS2_PLACEMENT_3D('',#916,#758,#759);
#613=AXIS2_PLACEMENT_3D('',#922,#763,#764);
#614=AXIS2_PLACEMENT_3D('',#926,#767,#768);
#615=AXIS2_PLACEMENT_3D('',#930,#771,#772);
#616=AXIS2_PLACEMENT_3D('',#932,#774,#775);
#617=AXIS2_PLACEMENT_3D('',#933,#776,#777);
#618=DIRECTION('axis',(0.,0.,1.));
#619=DIRECTION('refdir',(1.,0.,0.));
#620=DIRECTION('center_axis',(1.09700783139478E-16,-0.70710678118655,0.707106781186545));
#621=DIRECTION('ref_axis',(1.,0.,-1.551403353188E-16));
#622=DIRECTION('',(0.,0.707106781186545,0.70710678118655));
#623=DIRECTION('',(-1.,-1.55140335318799E-16,0.));
#624=DIRECTION('',(0.,-0.707106781186545,-0.70710678118655));
#625=DIRECTION('',(1.,1.55140335318799E-16,0.));
#626=DIRECTION('center_axis',(0.,0.,1.));
#627=DIRECTION('ref_axis',(2.22044604925031E-15,1.,0.));
#628=DIRECTION('',(0.707106781186545,0.,0.70710678118655));
#629=DIRECTION('center_axis',(0.,0.,1.));
#630=DIRECTION('ref_axis',(2.22044604925031E-15,1.,0.));
#631=DIRECTION('center_axis',(0.,0.,-1.));
#632=DIRECTION('ref_axis',(2.22044604925031E-15,1.,0.));
#633=DIRECTION('center_axis',(-0.70710678118655,0.,0.707106781186545));
#634=DIRECTION('ref_axis',(0.707106781186545,0.,0.70710678118655));
#635=DIRECTION('',(0.707106781186545,0.,0.70710678118655));
#636=DIRECTION('',(0.,1.,0.));
#637=DIRECTION('',(0.,-1.,0.));
#638=DIRECTION('center_axis',(0.,0.,1.));
#639=DIRECTION('ref_axis',(1.,2.77555756156289E-16,0.));
#640=DIRECTION('',(0.,-0.707106781186546,0.707106781186549));
#641=DIRECTION('center_axis',(0.,0.,1.));
#642=DIRECTION('ref_axis',(1.,2.77555756156289E-16,0.));
#643=DIRECTION('center_axis',(0.,0.,-1.));
#644=DIRECTION('ref_axis',(1.,2.77555756156289E-16,0.));
#645=DIRECTION('center_axis',(1.37125978924347E-17,0.707106781186548,0.707106781186547));
#646=DIRECTION('ref_axis',(1.,0.,-1.93925419148499E-17));
#647=DIRECTION('',(-2.61682076447296E-15,-0.707106781186547,0.707106781186548));
#648=DIRECTION('',(1.,-1.93925419148499E-17,0.));
#649=DIRECTION('',(-1.,1.93925419148499E-17,0.));
#650=DIRECTION('center_axis',(0.,0.,1.));
#651=DIRECTION('ref_axis',(-1.38777878078145E-16,-1.,0.));
#652=DIRECTION('',(-0.707106781186547,0.,0.707106781186547));
#653=DIRECTION('center_axis',(0.,0.,1.));
#654=DIRECTION('ref_axis',(-1.38777878078145E-16,-1.,0.));
#655=DIRECTION('center_axis',(0.,0.,-1.));
#656=DIRECTION('ref_axis',(-1.38777878078145E-16,-1.,0.));
#657=DIRECTION('center_axis',(0.707106781186547,4.4039178719179E-16,0.707106781186548));
#658=DIRECTION('ref_axis',(0.707106781186548,0.,-0.707106781186547));
#659=DIRECTION('',(-0.707106781186548,0.,0.707106781186547));
#660=DIRECTION('',(6.22808038204356E-16,-1.,0.));
#661=DIRECTION('',(-6.22808038204356E-16,1.,0.));
#662=DIRECTION('center_axis',(0.,0.,1.));
#663=DIRECTION('ref_axis',(-1.,2.22044604925031E-15,0.));
#664=DIRECTION('center_axis',(0.,0.,1.));
#665=DIRECTION('ref_axis',(-1.,2.22044604925031E-15,0.));
#666=DIRECTION('center_axis',(0.,0.,-1.));
#667=DIRECTION('ref_axis',(-1.,2.22044604925031E-15,0.));
#668=DIRECTION('center_axis',(0.,0.,1.));
#669=DIRECTION('ref_axis',(1.,2.77555756156289E-16,0.));
#670=DIRECTION('',(0.,0.,1.));
#671=DIRECTION('center_axis',(0.,0.,1.));
#672=DIRECTION('ref_axis',(1.,2.77555756156289E-16,0.));
#673=DIRECTION('',(0.,0.,1.));
#674=DIRECTION('center_axis',(-1.,0.,0.));
#675=DIRECTION('ref_axis',(0.,-1.,0.));
#676=DIRECTION('',(0.,0.,1.));
#677=DIRECTION('',(0.,1.,0.));
#678=DIRECTION('center_axis',(0.,0.,1.));
#679=DIRECTION('ref_axis',(2.22044604925031E-15,1.,0.));
#680=DIRECTION('',(0.,0.,1.));
#681=DIRECTION('center_axis',(0.,0.,1.));
#682=DIRECTION('ref_axis',(2.22044604925031E-15,1.,0.));
#683=DIRECTION('center_axis',(1.55140335318799E-16,-1.,0.));
#684=DIRECTION('ref_axis',(1.,1.55140335318799E-16,0.));
#685=DIRECTION('',(0.,0.,1.));
#686=DIRECTION('',(-1.,-1.55140335318799E-16,0.));
#687=DIRECTION('center_axis',(0.,0.,-1.));
#688=DIRECTION('ref_axis',(1.,0.,0.));
#689=DIRECTION('',(0.,1.,0.));
#690=DIRECTION('',(-1.,0.,0.));
#691=DIRECTION('',(0.,-1.,0.));
#692=DIRECTION('',(1.,-5.36539008183161E-17,0.));
#693=DIRECTION('center_axis',(0.,0.,-1.));
#694=DIRECTION('ref_axis',(0.70710678118655,0.707106781186545,0.));
#695=DIRECTION('center_axis',(0.,0.,1.));
#696=DIRECTION('ref_axis',(0.70710678118655,0.707106781186545,0.));
#697=DIRECTION('',(0.,0.,-1.));
#698=DIRECTION('center_axis',(0.,0.,-1.));
#699=DIRECTION('ref_axis',(0.70710678118655,0.707106781186545,0.));
#700=DIRECTION('',(0.,0.,1.));
#701=DIRECTION('center_axis',(0.,-1.,0.));
#702=DIRECTION('ref_axis',(-1.,0.,0.));
#703=DIRECTION('',(-1.,0.,0.));
#704=DIRECTION('',(0.,0.,1.));
#705=DIRECTION('',(-1.,0.,0.));
#706=DIRECTION('center_axis',(0.,0.,-1.));
#707=DIRECTION('ref_axis',(0.707106781186548,-0.707106781186547,0.));
#708=DIRECTION('center_axis',(0.,0.,1.));
#709=DIRECTION('ref_axis',(0.707106781186548,-0.707106781186547,0.));
#710=DIRECTION('',(0.,0.,-1.));
#711=DIRECTION('center_axis',(0.,0.,-1.));
#712=DIRECTION('ref_axis',(0.707106781186548,-0.707106781186547,0.));
#713=DIRECTION('',(0.,0.,1.));
#714=DIRECTION('center_axis',(-1.,0.,0.));
#715=DIRECTION('ref_axis',(0.,1.,0.));
#716=DIRECTION('',(0.,1.,0.));
#717=DIRECTION('',(0.,1.,0.));
#718=DIRECTION('center_axis',(0.,0.,-1.));
#719=DIRECTION('ref_axis',(-0.707106781186547,-0.707106781186548,0.));
#720=DIRECTION('center_axis',(0.,0.,1.));
#721=DIRECTION('ref_axis',(-0.707106781186547,-0.707106781186548,0.));
#722=DIRECTION('',(0.,0.,-1.));
#723=DIRECTION('center_axis',(0.,0.,-1.));
#724=DIRECTION('ref_axis',(-0.707106781186547,-0.707106781186548,0.));
#725=DIRECTION('',(0.,0.,1.));
#726=DIRECTION('center_axis',(0.,1.,0.));
#727=DIRECTION('ref_axis',(1.,0.,0.));
#728=DIRECTION('',(1.,0.,0.));
#729=DIRECTION('',(1.,0.,0.));
#730=DIRECTION('center_axis',(0.,0.,-1.));
#731=DIRECTION('ref_axis',(-0.707106781186546,0.707106781186549,0.));
#732=DIRECTION('center_axis',(0.,0.,1.));
#733=DIRECTION('ref_axis',(-0.707106781186546,0.707106781186549,0.));
#734=DIRECTION('',(0.,0.,-1.));
#735=DIRECTION('center_axis',(0.,0.,-1.));
#736=DIRECTION('ref_axis',(-0.707106781186546,0.707106781186549,0.));
#737=DIRECTION('center_axis',(1.,0.,0.));
#738=DIRECTION('ref_axis',(0.,-1.,0.));
#739=DIRECTION('',(0.,-1.,0.));
#740=DIRECTION('',(0.,-1.,0.));
#741=DIRECTION('center_axis',(1.93925419148499E-17,1.,0.));
#742=DIRECTION('ref_axis',(-1.,1.93925419148499E-17,0.));
#743=DIRECTION('',(1.,-1.93925419148499E-17,0.));
#744=DIRECTION('',(0.,0.,1.));
#745=DIRECTION('center_axis',(0.,0.,1.));
#746=DIRECTION('ref_axis',(-1.,2.22044604925031E-15,0.));
#747=DIRECTION('',(0.,0.,1.));
#748=DIRECTION('center_axis',(0.,0.,1.));
#749=DIRECTION('ref_axis',(-1.,2.22044604925031E-15,0.));
#750=DIRECTION('center_axis',(1.,6.22808038204356E-16,0.));
#751=DIRECTION('ref_axis',(-6.22808038204356E-16,1.,0.));
#752=DIRECTION('',(0.,0.,1.));
#753=DIRECTION('',(6.22808038204356E-16,-1.,0.));
#754=DIRECTION('center_axis',(0.,0.,1.));
#755=DIRECTION('ref_axis',(-1.38777878078145E-16,-1.,0.));
#756=DIRECTION('center_axis',(0.,0.,1.));
#757=DIRECTION('ref_axis',(-1.38777878078145E-16,-1.,0.));
#758=DIRECTION('center_axis',(0.,1.,0.));
#759=DIRECTION('ref_axis',(1.,0.,0.));
#760=DIRECTION('',(0.,0.,1.));
#761=DIRECTION('',(1.,0.,0.));
#762=DIRECTION('',(0.,0.,-1.));
#763=DIRECTION('center_axis',(-1.,0.,0.));
#764=DIRECTION('ref_axis',(0.,1.,0.));
#765=DIRECTION('',(0.,-1.,0.));
#766=DIRECTION('',(0.,0.,1.));
#767=DIRECTION('center_axis',(-5.36539008183161E-17,-1.,0.));
#768=DIRECTION('ref_axis',(-1.,5.36539008183161E-17,0.));
#769=DIRECTION('',(-1.,5.36539008183161E-17,0.));
#770=DIRECTION('',(0.,0.,-1.));
#771=DIRECTION('center_axis',(1.,0.,0.));
#772=DIRECTION('ref_axis',(0.,-1.,0.));
#773=DIRECTION('',(0.,1.,0.));
#774=DIRECTION('center_axis',(0.,0.,-1.));
#775=DIRECTION('ref_axis',(-1.,0.,0.));
#776=DIRECTION('center_axis',(0.,0.,-1.));
#777=DIRECTION('ref_axis',(1.,0.,0.));
#778=CARTESIAN_POINT('',(0.,0.,0.));
#779=CARTESIAN_POINT('Origin',(-14.3125,24.8,-0.3));
#780=CARTESIAN_POINT('',(28.625,24.5,-0.6));
#781=CARTESIAN_POINT('',(28.625,25.1,0.));
#782=CARTESIAN_POINT('',(28.625,24.5,-0.6));
#783=CARTESIAN_POINT('',(-28.625,25.1,0.));
#784=CARTESIAN_POINT('',(-14.3125,25.1,0.));
#785=CARTESIAN_POINT('',(-28.625,24.5,-0.6));
#786=CARTESIAN_POINT('',(-28.625,25.1,0.));
#787=CARTESIAN_POINT('',(-14.3125,24.5,-0.6));
#788=CARTESIAN_POINT('Origin',(28.625,20.5,-0.3));
#789=CARTESIAN_POINT('',(32.625,20.5,-0.6));
#790=CARTESIAN_POINT('',(33.225,20.5,0.));
#791=CARTESIAN_POINT('',(32.625,20.5,-0.6));
#792=CARTESIAN_POINT('Origin',(28.625,20.5,0.));
#793=CARTESIAN_POINT('Origin',(28.625,20.5,-0.6));
#794=CARTESIAN_POINT('Origin',(32.925,10.25,-0.3));
#795=CARTESIAN_POINT('',(32.625,-20.5,-0.6));
#796=CARTESIAN_POINT('',(33.225,-20.5,0.));
#797=CARTESIAN_POINT('',(32.625,-20.5,-0.6));
#798=CARTESIAN_POINT('',(33.225,10.25,0.));
#799=CARTESIAN_POINT('',(32.625,10.25,-0.6));
#800=CARTESIAN_POINT('Origin',(28.625,-20.5,-0.3));
#801=CARTESIAN_POINT('',(28.625,-24.5,-0.6));
#802=CARTESIAN_POINT('',(28.625,-25.1,0.));
#803=CARTESIAN_POINT('',(28.625,-24.5,-0.6));
#804=CARTESIAN_POINT('Origin',(28.625,-20.5,0.));
#805=CARTESIAN_POINT('Origin',(28.625,-20.5,-0.6));
#806=CARTESIAN_POINT('Origin',(14.3125,-24.8,-0.3));
#807=CARTESIAN_POINT('',(-28.625,-24.5,-0.6));
#808=CARTESIAN_POINT('',(-28.625,-25.1,0.));
#809=CARTESIAN_POINT('',(-28.625,-24.5,-0.6));
#810=CARTESIAN_POINT('',(14.3125,-25.1,0.));
#811=CARTESIAN_POINT('',(14.3125,-24.5,-0.6));
#812=CARTESIAN_POINT('Origin',(-28.625,-20.5,-0.3));
#813=CARTESIAN_POINT('',(-32.625,-20.5,-0.6));
#814=CARTESIAN_POINT('',(-33.225,-20.5,0.));
#815=CARTESIAN_POINT('',(-32.625,-20.5,-0.6));
#816=CARTESIAN_POINT('Origin',(-28.625,-20.5,0.));
#817=CARTESIAN_POINT('Origin',(-28.625,-20.5,-0.6));
#818=CARTESIAN_POINT('Origin',(-32.925,-10.25,-0.3));
#819=CARTESIAN_POINT('',(-32.625,20.5,-0.6));
#820=CARTESIAN_POINT('',(-33.225,20.5,0.));
#821=CARTESIAN_POINT('',(-32.625,20.5,-0.6));
#822=CARTESIAN_POINT('',(-33.225,-10.25,0.));
#823=CARTESIAN_POINT('',(-32.625,-10.25,-0.6));
#824=CARTESIAN_POINT('Origin',(-28.625,20.5,-0.3));
#825=CARTESIAN_POINT('Origin',(-28.625,20.5,0.));
#826=CARTESIAN_POINT('Origin',(-28.625,20.5,-0.6));
#827=CARTESIAN_POINT('Origin',(28.625,-20.5,-1.8));
#828=CARTESIAN_POINT('',(32.625,-20.5,-1.8));
#829=CARTESIAN_POINT('',(32.625,-20.5,-1.8));
#830=CARTESIAN_POINT('',(28.625,-24.5,-1.8));
#831=CARTESIAN_POINT('Origin',(28.625,-20.5,-1.8));
#832=CARTESIAN_POINT('',(28.625,-24.5,-1.8));
#833=CARTESIAN_POINT('Origin',(32.625,20.5,-1.8));
#834=CARTESIAN_POINT('',(32.625,20.5,-1.8));
#835=CARTESIAN_POINT('',(32.625,20.5,-1.8));
#836=CARTESIAN_POINT('',(32.625,10.25,-1.8));
#837=CARTESIAN_POINT('Origin',(28.625,20.5,-1.8));
#838=CARTESIAN_POINT('',(28.625,24.5,-1.8));
#839=CARTESIAN_POINT('',(28.625,24.5,-1.8));
#840=CARTESIAN_POINT('Origin',(28.625,20.5,-1.8));
#841=CARTESIAN_POINT('Origin',(-28.625,24.5,-1.8));
#842=CARTESIAN_POINT('',(-28.625,24.5,-1.8));
#843=CARTESIAN_POINT('',(-28.625,24.5,-1.8));
#844=CARTESIAN_POINT('',(-14.3125,24.5,-1.8));
#845=CARTESIAN_POINT('Origin',(4.44089209850063E-15,4.44089209850063E-15,
0.));
#846=CARTESIAN_POINT('',(34.,-25.5,0.));
#847=CARTESIAN_POINT('',(34.,25.5,0.));
#848=CARTESIAN_POINT('',(34.,12.75,0.));
#849=CARTESIAN_POINT('',(-34.,25.5,0.));
#850=CARTESIAN_POINT('',(33.625,25.5,0.));
#851=CARTESIAN_POINT('',(-34.,-25.5,0.));
#852=CARTESIAN_POINT('',(-34.,-12.75,0.));
#853=CARTESIAN_POINT('',(-33.625,-25.5,0.));
#854=CARTESIAN_POINT('Origin',(22.625,18.,-1.8));
#855=CARTESIAN_POINT('',(25.625,18.,-1.8));
#856=CARTESIAN_POINT('',(22.625,21.,-1.8));
#857=CARTESIAN_POINT('Origin',(22.625,18.,-1.8));
#858=CARTESIAN_POINT('',(22.625,21.,-4.));
#859=CARTESIAN_POINT('',(22.625,21.,-1.8));
#860=CARTESIAN_POINT('',(25.625,18.,-4.));
#861=CARTESIAN_POINT('Origin',(22.625,18.,-4.));
#862=CARTESIAN_POINT('',(25.625,18.,-1.8));
#863=CARTESIAN_POINT('Origin',(25.625,21.,-1.8));
#864=CARTESIAN_POINT('',(-22.625,21.,-1.8));
#865=CARTESIAN_POINT('',(32.625,21.,-1.8));
#866=CARTESIAN_POINT('',(-22.625,21.,-4.));
#867=CARTESIAN_POINT('',(-22.625,21.,-1.8));
#868=CARTESIAN_POINT('',(32.625,21.,-4.));
#869=CARTESIAN_POINT('Origin',(22.625,-18.,-1.8));
#870=CARTESIAN_POINT('',(22.625,-21.,-1.8));
#871=CARTESIAN_POINT('',(25.625,-18.,-1.8));
#872=CARTESIAN_POINT('Origin',(22.625,-18.,-1.8));
#873=CARTESIAN_POINT('',(25.625,-18.,-4.));
#874=CARTESIAN_POINT('',(25.625,-18.,-1.8));
#875=CARTESIAN_POINT('',(22.625,-21.,-4.));
#876=CARTESIAN_POINT('Origin',(22.625,-18.,-4.));
#877=CARTESIAN_POINT('',(22.625,-21.,-1.8));
#878=CARTESIAN_POINT('Origin',(25.625,-21.,-1.8));
#879=CARTESIAN_POINT('',(25.625,-24.5,-4.));
#880=CARTESIAN_POINT('',(25.625,-24.5,-1.8));
#881=CARTESIAN_POINT('Origin',(-22.625,-18.,-1.8));
#882=CARTESIAN_POINT('',(-25.625,-18.,-1.8));
#883=CARTESIAN_POINT('',(-22.625,-21.,-1.8));
#884=CARTESIAN_POINT('Origin',(-22.625,-18.,-1.8));
#885=CARTESIAN_POINT('',(-22.625,-21.,-4.));
#886=CARTESIAN_POINT('',(-22.625,-21.,-1.8));
#887=CARTESIAN_POINT('',(-25.625,-18.,-4.));
#888=CARTESIAN_POINT('Origin',(-22.625,-18.,-4.));
#889=CARTESIAN_POINT('',(-25.625,-18.,-1.8));
#890=CARTESIAN_POINT('Origin',(-25.625,-21.,-1.8));
#891=CARTESIAN_POINT('',(-32.625,-21.,-4.));
#892=CARTESIAN_POINT('',(-32.625,-21.,-1.8));
#893=CARTESIAN_POINT('Origin',(-22.625,18.,-1.8));
#894=CARTESIAN_POINT('',(-25.625,18.,-1.8));
#895=CARTESIAN_POINT('Origin',(-22.625,18.,-1.8));
#896=CARTESIAN_POINT('',(-25.625,18.,-4.));
#897=CARTESIAN_POINT('',(-25.625,18.,-1.8));
#898=CARTESIAN_POINT('Origin',(-22.625,18.,-4.));
#899=CARTESIAN_POINT('Origin',(-25.625,21.,-1.8));
#900=CARTESIAN_POINT('',(-25.625,24.5,-4.));
#901=CARTESIAN_POINT('',(-25.625,24.5,-1.8));
#902=CARTESIAN_POINT('Origin',(28.625,-24.5,-1.8));
#903=CARTESIAN_POINT('',(-28.625,-24.5,-1.8));
#904=CARTESIAN_POINT('',(14.3125,-24.5,-1.8));
#905=CARTESIAN_POINT('',(-28.625,-24.5,-1.8));
#906=CARTESIAN_POINT('Origin',(-28.625,20.5,-1.8));
#907=CARTESIAN_POINT('',(-32.625,20.5,-1.8));
#908=CARTESIAN_POINT('',(-32.625,20.5,-1.8));
#909=CARTESIAN_POINT('Origin',(-28.625,20.5,-1.8));
#910=CARTESIAN_POINT('Origin',(-32.625,-20.5,-1.8));
#911=CARTESIAN_POINT('',(-32.625,-20.5,-1.8));
#912=CARTESIAN_POINT('',(-32.625,-20.5,-1.8));
#913=CARTESIAN_POINT('',(-32.625,-10.25,-1.8));
#914=CARTESIAN_POINT('Origin',(-28.625,-20.5,-1.8));
#915=CARTESIAN_POINT('Origin',(-28.625,-20.5,-1.8));
#916=CARTESIAN_POINT('Origin',(-33.625,25.5,-1.8));
#917=CARTESIAN_POINT('',(34.,25.5,-4.));
#918=CARTESIAN_POINT('',(34.,25.5,-1.8));
#919=CARTESIAN_POINT('',(-34.,25.5,-4.));
#920=CARTESIAN_POINT('',(33.625,25.5,-4.));
#921=CARTESIAN_POINT('',(-34.,25.5,-1.8));
#922=CARTESIAN_POINT('Origin',(-34.,-25.5,-1.8));
#923=CARTESIAN_POINT('',(-34.,-25.5,-4.));
#924=CARTESIAN_POINT('',(-34.,-12.75,-4.));
#925=CARTESIAN_POINT('',(-34.,-25.5,-1.8));
#926=CARTESIAN_POINT('Origin',(33.625,-25.5,-1.8));
#927=CARTESIAN_POINT('',(34.,-25.5,-4.));
#928=CARTESIAN_POINT('',(-33.625,-25.5,-4.));
#929=CARTESIAN_POINT('',(34.,-25.5,-1.8));
#930=CARTESIAN_POINT('Origin',(34.,25.5,-1.8));
#931=CARTESIAN_POINT('',(34.,12.75,-4.));
#932=CARTESIAN_POINT('Origin',(4.44089209850063E-15,4.44089209850063E-15,
-4.));
#933=CARTESIAN_POINT('Origin',(4.44089209850063E-15,4.44089209850063E-15,
-1.8));
#934=UNCERTAINTY_MEASURE_WITH_UNIT(LENGTH_MEASURE(0.01),#938,
'DISTANCE_ACCURACY_VALUE',
'Maximum model space distance between geometric entities at asserted c
onnectivities');
#935=UNCERTAINTY_MEASURE_WITH_UNIT(LENGTH_MEASURE(0.01),#938,
'DISTANCE_ACCURACY_VALUE',
'Maximum model space distance between geometric entities at asserted c
onnectivities');
#936=(
GEOMETRIC_REPRESENTATION_CONTEXT(3)
GLOBAL_UNCERTAINTY_ASSIGNED_CONTEXT((#934))
GLOBAL_UNIT_ASSIGNED_CONTEXT((#938,#940,#941))
REPRESENTATION_CONTEXT('','3D')
);
#937=(
GEOMETRIC_REPRESENTATION_CONTEXT(3)
GLOBAL_UNCERTAINTY_ASSIGNED_CONTEXT((#935))
GLOBAL_UNIT_ASSIGNED_CONTEXT((#938,#940,#941))
REPRESENTATION_CONTEXT('','3D')
);
#938=(
LENGTH_UNIT()
NAMED_UNIT(*)
SI_UNIT(.MILLI.,.METRE.)
);
#939=(
LENGTH_UNIT()
NAMED_UNIT(*)
SI_UNIT($,.METRE.)
);
#940=(
NAMED_UNIT(*)
PLANE_ANGLE_UNIT()
SI_UNIT($,.RADIAN.)
);
#941=(
NAMED_UNIT(*)
SI_UNIT($,.STERADIAN.)
SOLID_ANGLE_UNIT()
);
#942=SHAPE_DEFINITION_REPRESENTATION(#943,#944);
#943=PRODUCT_DEFINITION_SHAPE('',$,#946);
#944=SHAPE_REPRESENTATION('',(#566),#936);
#945=PRODUCT_DEFINITION_CONTEXT('part definition',#950,'design');
#946=PRODUCT_DEFINITION('2025-12-31-20-01-08-591','TPS65',#947,#945);
#947=PRODUCT_DEFINITION_FORMATION('',$,#952);
#948=PRODUCT_RELATED_PRODUCT_CATEGORY('TPS65','TPS65',(#952));
#949=APPLICATION_PROTOCOL_DEFINITION('international standard',
'automotive_design',2009,#950);
#950=APPLICATION_CONTEXT(
'Core Data for Automotive Mechanical Design Process');
#951=PRODUCT_CONTEXT('part definition',#950,'mechanical');
#952=PRODUCT('2025-12-31-20-01-08-591','TPS65',$,(#951));
#953=PRESENTATION_STYLE_ASSIGNMENT((#954));
#954=SURFACE_STYLE_USAGE(.BOTH.,#955);
#955=SURFACE_SIDE_STYLE('',(#956));
#956=SURFACE_STYLE_FILL_AREA(#957);
#957=FILL_AREA_STYLE('Steel - Satin',(#958));
#958=FILL_AREA_STYLE_COLOUR('Steel - Satin',#959);
#959=COLOUR_RGB('Steel - Satin',0.627450980392157,0.627450980392157,0.627450980392157);
ENDSEC;
END-ISO-10303-21;
